<svg width="601" height="356" viewBox="0 0 601 356" fill="none" xmlns="http://www.w3.org/2000/svg">
<path opacity="0.7" d="M159.707 109.324C159.707 109.324 137.818 165.852 168.578 222.772C199.339 279.693 262.697 309.762 313.407 335.474C364.117 361.187 416.774 348.664 441.795 306.551C466.817 264.438 432.5 234.376 432.452 174.323C432.405 114.271 441.442 98.3723 408.899 47.6387C376.357 -3.09484 296.582 -14.3297 236.254 23.3004C175.927 60.9306 159.707 109.324 159.707 109.324Z" fill="#DEE8FF"/>
<path d="M136.933 200.106C133.262 183.158 134.845 165.493 141.471 149.467C150.547 127.044 170.025 111.115 191.859 101.819C223.577 88.3073 254.762 88.0561 280.505 61.5823C288.459 53.4172 295.14 44.0666 303.273 36.0742C327.235 12.521 362.306 15.3474 388.497 34.0486C443.132 73.0605 462.783 150.331 459.745 214.207C458.379 242.871 444.695 269.549 423.034 288.36C374.043 330.897 290.853 323.737 234.608 301.534C192.605 284.976 146.786 246.349 136.933 200.106Z" fill="#A50833"/>
<path opacity="0.7" d="M136.933 200.106C133.262 183.158 134.845 165.493 141.471 149.467C150.547 127.044 170.025 111.115 191.859 101.819C223.577 88.3073 254.762 88.0561 280.505 61.5823C288.459 53.4172 295.14 44.0666 303.273 36.0742C327.235 12.521 362.306 15.3474 388.497 34.0486C443.132 73.0605 462.783 150.331 459.745 214.207C458.379 242.871 444.695 269.549 423.034 288.36C374.043 330.897 290.853 323.737 234.608 301.534C192.605 284.976 146.786 246.349 136.933 200.106Z" fill="#DEE8FF"/>
<path d="M156.506 354.992H448.801" stroke="#263238" stroke-width="0.785106" stroke-linecap="round" stroke-linejoin="round"/>
<path d="M375.148 313.036C375.148 313.036 386.964 313.97 387.459 322.685C387.443 322.685 375.494 328.196 375.148 313.036Z" stroke="#263238" stroke-width="0.785106" stroke-linecap="round" stroke-linejoin="round"/>
<path d="M398.529 315.203C398.529 315.203 405.132 306.276 415.802 310.853C415.802 310.853 409.285 321.641 398.529 315.203Z" stroke="#263238" stroke-width="0.785106" stroke-linecap="round" stroke-linejoin="round"/>
<path d="M414.921 287.018C414.921 287.018 416.821 304.188 401.19 299.462C401.158 299.462 406.12 286.837 414.921 287.018Z" stroke="#263238" stroke-width="0.785106" stroke-linecap="round" stroke-linejoin="round"/>
<path d="M395.703 277.455C395.703 277.455 408.061 284.128 398.977 294.241C398.977 294.241 390.301 287.018 395.703 277.455Z" stroke="#263238" stroke-width="0.785106" stroke-linecap="round" stroke-linejoin="round"/>
<path d="M380.486 292.804C380.486 292.804 393.927 291.446 393.927 303.89C393.927 303.89 380.486 304.424 380.486 292.804Z" stroke="#263238" stroke-width="0.785106" stroke-linecap="round" stroke-linejoin="round"/>
<path d="M390.582 329.712C390.393 325.535 390.393 320.165 392.937 314.489C398.818 301.393 400.788 290.362 397.734 282.59" stroke="#263238" stroke-width="0.785106" stroke-linecap="round" stroke-linejoin="round"/>
<path d="M384.908 296.148C384.908 296.148 392.963 299.352 395.703 307.65" stroke="#263238" stroke-width="0.785106" stroke-linecap="round" stroke-linejoin="round"/>
<path d="M410.644 293.887C410.644 293.887 405.988 300.231 398.082 299.548" stroke="#263238" stroke-width="0.785106" stroke-linecap="round" stroke-linejoin="round"/>
<path d="M410.643 312.675C410.643 312.675 397.752 316.388 392.625 315.171" stroke="#263238" stroke-width="0.785106" stroke-linecap="round" stroke-linejoin="round"/>
<path d="M379.004 316.962C379.004 316.962 384.767 323.289 390.561 323.187" stroke="#263238" stroke-width="0.785106" stroke-linecap="round" stroke-linejoin="round"/>
<path d="M405.895 329.712H377.874C377.693 329.712 377.52 329.784 377.391 329.912C377.263 330.04 377.191 330.214 377.191 330.395V332.522C377.193 332.702 377.266 332.874 377.394 333C377.522 333.127 377.695 333.198 377.874 333.198H378.66L381.164 354.992H402.558L405.055 333.198H405.84C406.02 333.198 406.192 333.127 406.32 333C406.448 332.874 406.521 332.702 406.523 332.522V330.395C406.524 330.223 406.459 330.057 406.343 329.93C406.226 329.804 406.066 329.726 405.895 329.712Z" stroke="#263238" stroke-width="0.785106" stroke-miterlimit="10"/>
<path d="M380.486 333.198H396.785" stroke="#263238" stroke-width="0.785106" stroke-linecap="round" stroke-linejoin="round"/>
<path d="M399.863 333.198H402.313" stroke="#263238" stroke-width="0.785106" stroke-linecap="round" stroke-linejoin="round"/>
<path d="M254.862 341.92C251.848 338.481 242.426 347.204 242.426 347.204C245.26 339.266 252.578 335.184 254.47 327.859C256.362 320.534 250.929 317.001 248.801 325.182C246.674 333.362 240.628 342.925 240.628 342.925C244.452 329.759 245.559 307.792 240.832 307.792C237.135 307.792 237.064 312.848 238.116 321.821C239.168 330.795 236.852 343.765 236.852 343.765C236.852 343.765 234.85 329.28 232.204 326.493C229.558 323.706 225.138 324.561 230.092 335.757C233.107 342.587 234.018 350.046 234.238 355H241.413C243.383 351.158 246.538 348.052 250.411 346.144C252.264 345.249 256.558 343.851 254.862 341.92Z" stroke="#263238" stroke-width="0.785106" stroke-linecap="round" stroke-linejoin="round"/>
<path d="M237.756 354.992C239.326 343.49 241.893 331.439 241.155 319.505" stroke="#263238" stroke-width="0.785106" stroke-linecap="round" stroke-linejoin="round"/>
<path d="M232.613 335.184C235.29 341.237 236.319 348.436 236.829 354.992" stroke="#263238" stroke-width="0.785106" stroke-linecap="round" stroke-linejoin="round"/>
<path d="M250.702 329.759C250.702 329.759 244.563 342.721 238.926 347.699" stroke="#263238" stroke-width="0.785106" stroke-linecap="round" stroke-linejoin="round"/>
<path d="M250.702 343.726C250.702 343.726 240.323 350.894 237.771 354.992" stroke="#263238" stroke-width="0.785106" stroke-linecap="round" stroke-linejoin="round"/>
<path d="M247.695 328.746C246.721 327.089 244.735 327.254 243.393 328.683" stroke="#263238" stroke-width="0.785106" stroke-linecap="round" stroke-linejoin="round"/>
<path d="M232.997 344.99C232.997 344.99 227.407 336.142 225.287 327.961C223.168 319.78 217.727 323.329 219.619 330.646C221.511 337.963 228.828 342.054 231.662 349.991C231.662 349.991 222.241 341.268 219.226 344.707C217.531 346.639 221.825 348.036 223.686 348.923C226.593 350.288 229.099 352.378 230.964 354.992H241.17" stroke="#263238" stroke-width="0.785106" stroke-linecap="round" stroke-linejoin="round"/>
<path d="M237.561 314.025C236.626 310.956 235.378 309.998 233.227 310.579C230.322 311.364 232.442 319.27 233.502 328.746" stroke="#263238" stroke-width="0.785106" stroke-linecap="round" stroke-linejoin="round"/>
<path d="M278.229 54.7361V72.7857L284.957 79.569" stroke="#263238" stroke-width="0.785106" stroke-linecap="round" stroke-linejoin="round"/>
<path d="M286.215 79.5689C286.217 79.8177 286.145 80.0613 286.008 80.2689C285.87 80.4765 285.675 80.6387 285.445 80.735C285.216 80.8313 284.963 80.8573 284.719 80.8097C284.475 80.7621 284.25 80.6431 284.074 80.4678C283.897 80.2924 283.777 80.0686 283.728 79.8247C283.679 79.5808 283.703 79.3278 283.798 79.0978C283.893 78.8679 284.054 78.6712 284.261 78.5328C284.467 78.3944 284.71 78.3206 284.959 78.3206C285.291 78.3206 285.609 78.4518 285.845 78.6857C286.08 78.9196 286.213 79.2371 286.215 79.5689Z" fill="white" stroke="#263238" stroke-width="0.785106" stroke-linecap="round" stroke-linejoin="round"/>
<path d="M299.529 1.19946H257.613C254.187 1.19946 251.41 3.97635 251.41 7.4018V49.3186C251.41 52.7441 254.187 55.521 257.613 55.521H299.529C302.955 55.521 305.732 52.7441 305.732 49.3186V7.4018C305.732 3.97635 302.955 1.19946 299.529 1.19946Z" fill="white" stroke="#263238" stroke-width="0.785106" stroke-linecap="round" stroke-linejoin="round"/>
<path d="M438.742 53.2522H396.825C393.4 53.2522 390.623 56.0291 390.623 59.4545V101.371C390.623 104.797 393.4 107.574 396.825 107.574H438.742C442.168 107.574 444.945 104.797 444.945 101.371V59.4545C444.945 56.0291 442.168 53.2522 438.742 53.2522Z" fill="white" stroke="#263238" stroke-width="0.785106" stroke-linecap="round" stroke-linejoin="round"/>
<path d="M390.626 80.4089H340.771L324.904 96.3466" stroke="#263238" stroke-width="0.785106" stroke-linecap="round" stroke-linejoin="round"/>
<path d="M326.151 96.3467C326.151 96.5936 326.078 96.8349 325.941 97.0402C325.803 97.2455 325.608 97.4055 325.38 97.5C325.152 97.5945 324.901 97.6192 324.659 97.571C324.417 97.5228 324.195 97.404 324.02 97.2294C323.845 97.0548 323.726 96.8324 323.678 96.5902C323.63 96.3481 323.655 96.0971 323.749 95.869C323.844 95.6409 324.004 95.4459 324.209 95.3087C324.414 95.1716 324.656 95.0984 324.903 95.0984C325.067 95.0984 325.229 95.1307 325.38 95.1934C325.532 95.2561 325.669 95.3481 325.785 95.464C325.901 95.5799 325.993 95.7175 326.056 95.869C326.119 96.0204 326.151 96.1828 326.151 96.3467Z" fill="white" stroke="#263238" stroke-width="0.785106" stroke-linecap="round" stroke-linejoin="round"/>
<path d="M458.953 200.177H417.036C413.611 200.177 410.834 202.954 410.834 206.379V248.296C410.834 251.721 413.611 254.498 417.036 254.498H458.953C462.379 254.498 465.155 251.721 465.155 248.296V206.379C465.155 202.954 462.379 200.177 458.953 200.177Z" fill="white" stroke="#263238" stroke-width="0.785106" stroke-linecap="round" stroke-linejoin="round"/>
<path d="M410.832 227.341H381.399L336.781 182.724" stroke="#263238" stroke-width="0.785106" stroke-linecap="round" stroke-linejoin="round"/>
<path d="M338.032 182.724C338.032 182.971 337.959 183.212 337.821 183.417C337.684 183.623 337.489 183.783 337.261 183.877C337.033 183.972 336.782 183.996 336.54 183.948C336.298 183.9 336.075 183.781 335.901 183.607C335.726 183.432 335.607 183.21 335.559 182.967C335.511 182.725 335.536 182.474 335.63 182.246C335.725 182.018 335.885 181.823 336.09 181.686C336.295 181.549 336.537 181.476 336.783 181.476C337.115 181.476 337.432 181.607 337.666 181.841C337.9 182.075 338.032 182.393 338.032 182.724Z" fill="white" stroke="#263238" stroke-width="0.785106" stroke-linecap="round" stroke-linejoin="round"/>
<path d="M213.582 247.425H171.665C168.24 247.425 165.463 250.202 165.463 253.627V295.544C165.463 298.969 168.24 301.746 171.665 301.746H213.582C217.007 301.746 219.784 298.969 219.784 295.544V253.627C219.784 250.202 217.007 247.425 213.582 247.425Z" fill="white" stroke="#263238" stroke-width="0.785106" stroke-linecap="round" stroke-linejoin="round"/>
<path d="M192.629 247.424V223.314L237.042 190.135" stroke="#263238" stroke-width="0.785106" stroke-linecap="round" stroke-linejoin="round"/>
<path d="M238.274 190.12C238.276 190.369 238.203 190.612 238.066 190.82C237.929 191.027 237.733 191.19 237.504 191.286C237.275 191.382 237.022 191.408 236.778 191.361C236.533 191.313 236.309 191.194 236.132 191.019C235.956 190.843 235.836 190.619 235.786 190.376C235.737 190.132 235.762 189.879 235.857 189.649C235.951 189.419 236.112 189.222 236.319 189.084C236.526 188.945 236.769 188.871 237.018 188.871C237.35 188.871 237.668 189.003 237.903 189.237C238.139 189.47 238.272 189.788 238.274 190.12Z" fill="white" stroke="#263238" stroke-width="0.785106" stroke-linecap="round" stroke-linejoin="round"/>
<path d="M196.217 93.7556H154.3C150.875 93.7556 148.098 96.5325 148.098 99.958V141.875C148.098 145.3 150.875 148.077 154.3 148.077H196.217C199.642 148.077 202.419 145.3 202.419 141.875V99.958C202.419 96.5325 199.642 93.7556 196.217 93.7556Z" fill="white" stroke="#263238" stroke-width="0.785106" stroke-linecap="round" stroke-linejoin="round"/>
<path d="M202.42 120.92H260.824" stroke="#263238" stroke-width="0.785106" stroke-linecap="round" stroke-linejoin="round"/>
<path d="M262.073 120.92C262.071 121.167 261.997 121.408 261.859 121.612C261.72 121.816 261.525 121.975 261.297 122.068C261.069 122.161 260.818 122.185 260.576 122.136C260.335 122.087 260.113 121.967 259.939 121.793C259.765 121.618 259.647 121.395 259.6 121.153C259.552 120.911 259.577 120.661 259.672 120.433C259.767 120.205 259.927 120.011 260.132 119.874C260.337 119.737 260.578 119.664 260.824 119.664C260.989 119.664 261.152 119.697 261.304 119.76C261.456 119.823 261.594 119.916 261.71 120.033C261.826 120.149 261.918 120.288 261.98 120.44C262.042 120.593 262.074 120.756 262.073 120.92Z" fill="white" stroke="#263238" stroke-width="0.785106" stroke-linecap="round" stroke-linejoin="round"/>
<path d="M195.257 108.108H155.264C153.729 108.108 152.484 109.352 152.484 110.887V130.42C152.484 131.955 153.729 133.2 155.264 133.2H195.257C196.792 133.2 198.036 131.955 198.036 130.42V110.887C198.036 109.352 196.792 108.108 195.257 108.108Z" fill="#A50833" stroke="#263238" stroke-width="0.785106" stroke-linecap="round" stroke-linejoin="round"/>
<path d="M189.134 108.108H161.381V133.2H189.134V108.108Z" fill="white"/>
<path d="M161.381 124.446V121.768" stroke="#263238" stroke-width="0.785106" stroke-linecap="round" stroke-linejoin="round"/>
<path d="M189.134 128.983V133.199H161.381V126.094" stroke="#263238" stroke-width="0.785106" stroke-linecap="round" stroke-linejoin="round"/>
<path d="M189.135 114.867V120.653" stroke="#263238" stroke-width="0.785106" stroke-linecap="round" stroke-linejoin="round"/>
<path d="M161.381 113.014V108.108H189.134V112.19" stroke="#263238" stroke-width="0.785106" stroke-linecap="round" stroke-linejoin="round"/>
<path d="M195.189 126.165C195.189 126.5 195.089 126.828 194.903 127.107C194.716 127.386 194.452 127.603 194.142 127.732C193.832 127.86 193.491 127.894 193.162 127.828C192.833 127.763 192.531 127.601 192.294 127.364C192.056 127.127 191.895 126.825 191.829 126.496C191.764 126.167 191.798 125.826 191.926 125.516C192.054 125.206 192.272 124.941 192.551 124.755C192.829 124.569 193.157 124.469 193.493 124.469C193.942 124.469 194.374 124.648 194.692 124.966C195.01 125.284 195.189 125.715 195.189 126.165Z" fill="#263238"/>
<path d="M194.309 114.294C194.309 114.462 194.259 114.626 194.166 114.765C194.073 114.905 193.941 115.013 193.786 115.078C193.631 115.142 193.46 115.159 193.296 115.126C193.131 115.093 192.98 115.012 192.862 114.894C192.743 114.775 192.662 114.624 192.63 114.46C192.597 114.295 192.614 114.125 192.678 113.97C192.742 113.815 192.851 113.682 192.99 113.589C193.13 113.496 193.293 113.446 193.461 113.446C193.573 113.446 193.683 113.468 193.786 113.511C193.889 113.553 193.982 113.616 194.061 113.695C194.14 113.773 194.202 113.867 194.245 113.97C194.287 114.073 194.309 114.183 194.309 114.294Z" fill="#263238"/>
<path d="M194.309 117.686C194.309 117.854 194.259 118.018 194.166 118.157C194.073 118.296 193.941 118.405 193.786 118.469C193.631 118.533 193.46 118.55 193.296 118.518C193.131 118.485 192.98 118.404 192.862 118.285C192.743 118.167 192.662 118.016 192.63 117.851C192.597 117.687 192.614 117.516 192.678 117.361C192.742 117.207 192.851 117.074 192.99 116.981C193.13 116.888 193.293 116.838 193.461 116.838C193.686 116.838 193.902 116.927 194.061 117.086C194.22 117.245 194.309 117.461 194.309 117.686Z" fill="#263238"/>
<path d="M195.19 116.838C194.965 116.838 194.749 116.748 194.59 116.589C194.431 116.43 194.342 116.215 194.342 115.99C194.342 115.765 194.431 115.549 194.59 115.39C194.749 115.231 194.965 115.142 195.19 115.142C195.415 115.142 195.63 115.231 195.789 115.39C195.948 115.549 196.038 115.765 196.038 115.99C196.038 116.215 195.948 116.43 195.789 116.589C195.63 116.748 195.415 116.838 195.19 116.838Z" fill="#263238"/>
<path d="M191.795 116.838C191.57 116.838 191.355 116.748 191.196 116.589C191.037 116.43 190.947 116.215 190.947 115.99C190.947 115.765 191.037 115.549 191.196 115.39C191.355 115.231 191.57 115.142 191.795 115.142C192.02 115.142 192.236 115.231 192.395 115.39C192.554 115.549 192.643 115.765 192.643 115.99C192.643 116.215 192.554 116.43 192.395 116.589C192.236 116.748 192.02 116.838 191.795 116.838Z" fill="#263238"/>
<path d="M157.026 116.838C157.962 116.838 158.722 116.079 158.722 115.142C158.722 114.206 157.962 113.446 157.026 113.446C156.089 113.446 155.33 114.206 155.33 115.142C155.33 116.079 156.089 116.838 157.026 116.838Z" fill="#263238"/>
<path d="M156.178 127.013C156.178 126.788 156.267 126.572 156.426 126.413C156.585 126.254 156.801 126.165 157.026 126.165C157.251 126.165 157.466 126.254 157.625 126.413C157.784 126.572 157.874 126.788 157.874 127.013C157.874 127.238 157.784 127.454 157.625 127.613C157.466 127.772 157.251 127.861 157.026 127.861C156.801 127.861 156.585 127.772 156.426 127.613C156.267 127.454 156.178 127.238 156.178 127.013Z" fill="#263238"/>
<path d="M156.178 123.621C156.178 123.396 156.267 123.181 156.426 123.022C156.585 122.863 156.801 122.773 157.026 122.773C157.251 122.773 157.466 122.863 157.625 123.022C157.784 123.181 157.874 123.396 157.874 123.621C157.874 123.846 157.784 124.062 157.625 124.221C157.466 124.38 157.251 124.469 157.026 124.469C156.801 124.469 156.585 124.38 156.426 124.221C156.267 124.062 156.178 123.846 156.178 123.621Z" fill="#263238"/>
<path d="M155.33 124.469C155.498 124.469 155.662 124.519 155.801 124.612C155.941 124.705 156.05 124.838 156.114 124.993C156.178 125.147 156.195 125.318 156.162 125.482C156.129 125.647 156.048 125.798 155.93 125.917C155.811 126.035 155.66 126.116 155.496 126.149C155.331 126.181 155.161 126.165 155.006 126.1C154.851 126.036 154.718 125.928 154.625 125.788C154.532 125.649 154.482 125.485 154.482 125.317C154.482 125.092 154.572 124.876 154.731 124.717C154.89 124.558 155.105 124.469 155.33 124.469Z" fill="#263238"/>
<path d="M158.719 124.469C158.887 124.469 159.051 124.519 159.19 124.612C159.33 124.705 159.438 124.838 159.502 124.993C159.567 125.147 159.583 125.318 159.551 125.482C159.518 125.647 159.437 125.798 159.319 125.917C159.2 126.035 159.049 126.116 158.884 126.149C158.72 126.181 158.549 126.165 158.395 126.1C158.24 126.036 158.107 125.928 158.014 125.788C157.921 125.649 157.871 125.485 157.871 125.317C157.871 125.092 157.96 124.876 158.119 124.717C158.278 124.558 158.494 124.469 158.719 124.469Z" fill="#263238"/>
<path d="M187 110.353H163.51V130.962H187V110.353Z" fill="#263238"/>
<path d="M412.426 73.924C412.426 73.924 409.098 68.2085 404.434 68.2242C399.771 68.2399 400.328 80.0007 411.155 80.0007L412.426 73.924Z" fill="#A50833" stroke="#263238" stroke-width="0.785106" stroke-linecap="round" stroke-linejoin="round"/>
<path d="M414.43 96.3465C414.43 96.3465 404.436 60.4907 416.652 60.4907C428.868 60.4907 421.316 95.7263 421.316 95.7263L414.43 96.3465Z" fill="#A50833" stroke="#263238" stroke-width="0.785106" stroke-linecap="round" stroke-linejoin="round"/>
<path d="M421.99 80.0557C421.99 80.0557 429.983 71.8121 434.206 74.4815C438.43 77.1508 429.323 85.3552 421.99 85.1354" fill="#A50833"/>
<path d="M421.99 80.0557C421.99 80.0557 429.983 71.8121 434.206 74.4815C438.43 77.1508 429.323 85.3552 421.99 85.1354" stroke="#263238" stroke-width="0.785106" stroke-linecap="round" stroke-linejoin="round"/>
<path d="M414.076 80.99C414.587 84.1066 414.886 87.2542 414.971 90.4112" stroke="#263238" stroke-width="0.785106" stroke-linecap="round" stroke-linejoin="round"/>
<path d="M414.225 65.2092C413.001 69.5823 413.189 74.1123 413.754 78.556" stroke="#263238" stroke-width="0.785106" stroke-linecap="round" stroke-linejoin="round"/>
<path d="M416.652 60.4907C416.051 61.349 415.526 62.2579 415.082 63.2072" stroke="#263238" stroke-width="0.785106" stroke-linecap="round" stroke-linejoin="round"/>
<path d="M418.637 84.468C418.77 87.4985 418.857 90.5369 418.88 93.5752" stroke="#263238" stroke-width="0.785106" stroke-linecap="round" stroke-linejoin="round"/>
<path d="M417.76 71.082C417.76 74.8191 418.294 78.517 418.545 82.2384" stroke="#263238" stroke-width="0.785106" stroke-linecap="round" stroke-linejoin="round"/>
<path d="M419.273 61.8491C417.609 63.5606 417.703 66.5597 417.75 68.7973" stroke="#263238" stroke-width="0.785106" stroke-linecap="round" stroke-linejoin="round"/>
<path d="M427.486 78.3598C429.347 77.1743 432.699 74.6463 435.07 75.4392" stroke="#263238" stroke-width="0.785106" stroke-linecap="round" stroke-linejoin="round"/>
<path d="M421.99 82.2381C423.176 81.3195 424.393 80.4402 425.625 79.5923" stroke="#263238" stroke-width="0.785106" stroke-linecap="round" stroke-linejoin="round"/>
<path d="M404.777 73.1389C406.291 75.0395 408.298 76.4872 410.579 77.3235" stroke="#263238" stroke-width="0.785106" stroke-linecap="round" stroke-linejoin="round"/>
<path d="M403.145 68.6089C403.142 69.5321 403.329 70.446 403.694 71.2939" stroke="#263238" stroke-width="0.785106" stroke-linecap="round" stroke-linejoin="round"/>
<path d="M428.522 101.819H407.646L406.076 92.7192H430.093L428.522 101.819Z" fill="#263238"/>
<path d="M283.112 11.7044C283.112 11.7044 283.504 9.6396 286.252 9.95365C289 10.2677 288.654 14.1461 285.467 14.8448C282.279 15.5436 281.227 15.2609 280.882 16.4622C280.798 16.7006 280.797 16.9601 280.878 17.1993C280.96 17.4385 281.119 17.6436 281.33 17.7819C281.542 17.9201 281.793 17.9836 282.045 17.9621C282.297 17.9406 282.534 17.8354 282.719 17.6634" stroke="#263238" stroke-width="0.785106" stroke-linecap="round" stroke-linejoin="round"/>
<path d="M273.198 11.7044C273.198 11.7044 272.805 9.6396 270.057 9.95365C267.309 10.2677 267.647 14.1461 270.842 14.8448C274.038 15.5436 275.082 15.2609 275.419 16.4622C275.494 16.6966 275.49 16.949 275.409 17.1811C275.327 17.4132 275.172 17.6123 274.967 17.7482C274.761 17.884 274.518 17.9493 274.272 17.934C274.026 17.9187 273.793 17.8237 273.606 17.6634" stroke="#263238" stroke-width="0.785106" stroke-linecap="round" stroke-linejoin="round"/>
<path d="M280.75 15.826C283.639 13.8946 283.411 9.49805 283.411 9.49805H272.899C272.899 9.49805 272.671 13.8946 275.56 15.826C278.449 17.7574 277.688 22.5073 275.56 23.4572H280.75C278.622 22.4916 277.853 17.7495 280.75 15.826Z" fill="#A50833" stroke="#263238" stroke-width="0.785106" stroke-linecap="round" stroke-linejoin="round"/>
<path d="M282.336 23.4417H273.975V26.6056H282.336V23.4417Z" fill="#757575" stroke="#263238" stroke-width="0.785106" stroke-linecap="round" stroke-linejoin="round"/>
<path d="M285.468 26.6057H270.842V48.5259H285.468V26.6057Z" fill="#A50833" stroke="#263238" stroke-width="0.785106" stroke-linecap="round" stroke-linejoin="round"/>
<path d="M300.097 33.8994H285.471V48.5259H300.097V33.8994Z" fill="#A50833" stroke="#263238" stroke-width="0.785106" stroke-linecap="round" stroke-linejoin="round"/>
<path d="M270.832 38.9004H256.205V48.5258H270.832V38.9004Z" fill="#A50833" stroke="#263238" stroke-width="0.785106" stroke-linecap="round" stroke-linejoin="round"/>
<path d="M277.027 34.7394C277.251 34.7692 277.478 34.7117 277.661 34.5787C277.844 34.4456 277.968 34.2473 278.009 34.0249H278.613V39.7012H277.718V35.3753H277.027V34.7394Z" fill="#263238"/>
<path d="M292.221 39.2459C291.939 39.2459 291.758 39.4029 291.758 39.8112V40.4157H290.918V39.8661C290.918 38.9554 291.373 38.4373 292.245 38.4373C293.116 38.4373 293.572 38.9554 293.572 39.8661C293.552 40.2957 293.444 40.7167 293.255 41.1029C293.066 41.4892 292.8 41.8325 292.473 42.1116C291.947 42.6768 291.797 42.9438 291.797 43.25C291.793 43.2891 291.793 43.3286 291.797 43.3677H293.485V44.1528H290.91V43.4541C290.922 43.1064 291.007 42.7651 291.16 42.4526C291.313 42.1401 291.53 41.8634 291.797 41.6405C292.064 41.4263 292.281 41.1566 292.433 40.8502C292.584 40.5438 292.668 40.208 292.677 39.8661C292.684 39.3794 292.504 39.2459 292.221 39.2459Z" fill="#263238"/>
<path d="M263.696 42.1664C263.696 41.6561 263.516 41.5226 263.233 41.5226C262.95 41.5226 262.77 41.6718 262.77 42.08V42.449H261.93V42.135C261.916 41.9516 261.94 41.7673 262 41.5937C262.061 41.42 262.156 41.2607 262.281 41.1258C262.406 40.9909 262.558 40.8832 262.726 40.8096C262.895 40.736 263.077 40.698 263.26 40.698C263.444 40.698 263.626 40.736 263.795 40.8096C263.963 40.8832 264.115 40.9909 264.24 41.1258C264.365 41.2607 264.46 41.42 264.521 41.5937C264.581 41.7673 264.605 41.9516 264.591 42.135V42.2841C264.627 42.5197 264.584 42.7604 264.471 42.97C264.358 43.1796 264.18 43.3466 263.963 43.4461C264.179 43.5527 264.356 43.7246 264.469 43.9374C264.581 44.1502 264.624 44.3931 264.591 44.6316V45.0713C264.591 45.982 264.136 46.5002 263.257 46.5002C262.377 46.5002 261.93 45.982 261.93 45.0713V44.6002H262.77V45.1341C262.77 45.5345 262.95 45.6915 263.233 45.6915C263.516 45.6915 263.696 45.5502 263.696 45.0477V44.6002C263.696 44.0742 263.516 43.8858 263.115 43.8858H262.809V43.1006H263.162C263.492 43.1006 263.696 42.9593 263.696 42.504V42.1664Z" fill="#263238"/>
<path d="M214.84 258.785H170.309V293.777H214.84V258.785Z" stroke="#263238" stroke-width="0.785106" stroke-linecap="round" stroke-linejoin="round"/>
<path d="M212.219 291.163V261.407H172.924V291.163H212.219Z" fill="#A50833"/>
<path opacity="0.5" d="M212.216 275.249V269.722L200.88 286.452L193.154 281.828L207.372 261.407H202.882L196.671 270.224L190.822 267.248V261.407H186.999V268.913L194.654 273.097L189.88 279.865L172.922 269.722V273.521L188.122 282.37L181.927 291.163H186.653L191.435 284.293L203.227 291.163H208.754L203.588 288.069L212.216 275.249Z" fill="white"/>
<path d="M212.219 291.163V261.407H172.924V291.163H212.219Z" stroke="#263238" stroke-width="0.785106" stroke-linecap="round" stroke-linejoin="round"/>
<path d="M209.13 254.004C208.378 253.251 207.485 252.654 206.503 252.246C205.52 251.839 204.467 251.629 203.403 251.629C202.339 251.629 201.285 251.839 200.303 252.246C199.32 252.654 198.427 253.251 197.675 254.004C196.923 254.756 196.325 255.648 195.918 256.631C195.51 257.614 195.301 258.667 195.301 259.731C195.301 260.795 195.51 261.848 195.918 262.831C196.325 263.814 196.923 264.707 197.675 265.458L203.407 271.182L209.13 265.458C209.883 264.707 210.48 263.814 210.887 262.831C211.295 261.848 211.505 260.795 211.505 259.731C211.505 258.667 211.295 257.614 210.887 256.631C210.48 255.648 209.883 254.756 209.13 254.004ZM205.762 262.083C205.296 262.55 204.701 262.869 204.054 262.999C203.406 263.129 202.735 263.063 202.124 262.811C201.514 262.559 200.992 262.131 200.625 261.582C200.258 261.033 200.062 260.388 200.062 259.727C200.062 259.067 200.258 258.421 200.625 257.872C200.992 257.323 201.514 256.896 202.124 256.643C202.735 256.391 203.406 256.326 204.054 256.455C204.701 256.585 205.296 256.904 205.762 257.372C206.071 257.681 206.317 258.048 206.485 258.452C206.652 258.856 206.738 259.29 206.738 259.727C206.738 260.165 206.652 260.598 206.485 261.002C206.317 261.406 206.071 261.773 205.762 262.083Z" fill="#263238"/>
<path d="M438.271 210.47C427.17 219.545 427.17 234.266 438.271 243.342C449.365 234.266 449.365 219.545 438.271 210.47Z" fill="#A50833" stroke="#263238" stroke-width="0.785106" stroke-linecap="round" stroke-linejoin="round"/>
<path d="M438.273 243.342V214.788" stroke="#263238" stroke-width="0.785106" stroke-linecap="round" stroke-linejoin="round"/>
<path d="M441.564 219.224L438.274 222.513L434.977 219.224" stroke="#263238" stroke-width="0.785106" stroke-linecap="round" stroke-linejoin="round"/>
<path d="M441.564 225.693L438.274 228.99L434.977 225.693" stroke="#263238" stroke-width="0.785106" stroke-linecap="round" stroke-linejoin="round"/>
<path d="M441.564 232.17L438.274 235.46L434.977 232.17" stroke="#263238" stroke-width="0.785106" stroke-linecap="round" stroke-linejoin="round"/>
<path d="M457.447 215.691C457.447 212.966 455.877 209.975 453.906 209.975C451.935 209.975 450.357 212.966 450.357 215.691C450.357 217.96 451.472 219.31 452.972 219.703V242.408C452.96 242.537 452.975 242.668 453.016 242.791C453.058 242.914 453.124 243.027 453.212 243.123C453.3 243.219 453.406 243.296 453.525 243.348C453.644 243.401 453.772 243.428 453.902 243.428C454.032 243.428 454.161 243.401 454.279 243.348C454.398 243.296 454.505 243.219 454.592 243.123C454.68 243.027 454.747 242.914 454.788 242.791C454.829 242.668 454.844 242.537 454.833 242.408V219.703C456.34 219.31 457.447 217.96 457.447 215.691Z" stroke="#263238" stroke-width="0.785106" stroke-linecap="round" stroke-linejoin="round"/>
<path d="M425.607 210.595C425.593 210.426 425.516 210.268 425.391 210.153C425.266 210.038 425.102 209.975 424.932 209.975H424.445V214.906H423.283V210.65C423.265 210.483 423.186 210.328 423.061 210.215C422.935 210.103 422.773 210.04 422.604 210.04C422.436 210.04 422.273 210.103 422.148 210.215C422.022 210.328 421.943 210.483 421.925 210.65V214.906H420.755V209.975H420.276C420.106 209.975 419.942 210.038 419.817 210.153C419.692 210.268 419.615 210.426 419.601 210.595L419.099 216.468C419.069 216.818 419.113 217.17 419.227 217.503C419.34 217.835 419.522 218.141 419.759 218.4C419.997 218.658 420.285 218.865 420.607 219.007C420.928 219.149 421.275 219.223 421.627 219.224H421.674V242.408C421.662 242.537 421.677 242.668 421.719 242.791C421.76 242.914 421.826 243.027 421.914 243.123C422.002 243.219 422.108 243.296 422.227 243.348C422.346 243.401 422.474 243.428 422.604 243.428C422.734 243.428 422.863 243.401 422.981 243.348C423.1 243.296 423.207 243.219 423.294 243.123C423.382 243.027 423.449 242.914 423.49 242.791C423.531 242.668 423.546 242.537 423.535 242.408V219.224C423.886 219.223 424.233 219.149 424.555 219.007C424.876 218.865 425.165 218.658 425.402 218.4C425.64 218.141 425.821 217.835 425.935 217.503C426.048 217.17 426.092 216.818 426.063 216.468L425.607 210.595Z" stroke="#263238" stroke-width="0.785106" stroke-linecap="round" stroke-linejoin="round"/>
<path d="M322.352 335.946L321.566 338.246C322.755 340.213 324.088 342.089 325.555 343.859C325.555 343.859 326.34 343.6 327.635 344.739C328.425 345.532 328.914 346.576 329.017 347.691C329.017 347.691 335.007 354.89 342.623 354.992C350.238 355.094 347.938 351.263 347.938 351.263L322.352 335.946Z" fill="#A50833" stroke="#263238" stroke-width="0.785106" stroke-linecap="round" stroke-linejoin="round"/>
<path d="M329.505 317.645C329.505 317.645 339.711 313.884 341.713 321.405C341.713 321.405 339.892 329.688 340.983 334.21C342.074 338.733 347.562 347.392 347.908 349.041C348.567 352.252 348.065 352.472 348.065 352.472C348.065 352.472 344.068 354.78 338.706 352.307C333.344 349.834 324.04 339.196 322.588 337.005C321.135 334.815 327.141 326.147 327.141 326.147L329.505 317.645Z" fill="white"/>
<path opacity="0.4" d="M329.505 317.645C329.505 317.645 339.711 313.884 341.713 321.405C341.713 321.405 339.892 329.688 340.983 334.21C342.074 338.733 347.562 347.392 347.908 349.041C348.567 352.252 348.065 352.472 348.065 352.472C348.065 352.472 344.068 354.78 338.706 352.307C333.344 349.834 324.04 339.196 322.588 337.005C321.135 334.815 327.141 326.147 327.141 326.147L329.505 317.645Z" fill="#A50833"/>
<path d="M329.505 317.645C329.505 317.645 339.711 313.884 341.713 321.405C341.713 321.405 339.892 329.688 340.983 334.21C342.074 338.733 347.562 347.392 347.908 349.041C348.567 352.252 348.065 352.472 348.065 352.472C348.065 352.472 344.068 354.78 338.706 352.307C333.344 349.834 324.04 339.196 322.588 337.005C321.135 334.815 327.141 326.147 327.141 326.147L329.505 317.645Z" stroke="#263238" stroke-width="0.785106" stroke-linecap="round" stroke-linejoin="round"/>
<path d="M327.142 326.147C327.142 326.147 327.416 336.88 329.497 339.062C331.577 341.245 333.14 339.062 333.14 339.062C333.14 339.062 332.959 342.336 329.709 341.677C326.458 341.017 326.325 333.245 326.16 327.655L327.142 326.147Z" fill="#A50833" stroke="#263238" stroke-width="0.785106" stroke-linecap="round" stroke-linejoin="round"/>
<path d="M334.723 328.299C333.835 333.369 334.74 338.59 337.282 343.066" stroke="#263238" stroke-width="0.785106" stroke-linecap="round" stroke-linejoin="round"/>
<path d="M337.283 345.006C337.663 345.962 338.252 346.821 339.007 347.519C339.763 348.218 340.665 348.738 341.648 349.041C343.706 349.592 345.872 349.592 347.929 349.041L345.48 344.071C342.881 345.112 340.05 345.435 337.283 345.006Z" fill="#A50833" stroke="#263238" stroke-width="0.785106" stroke-linecap="round" stroke-linejoin="round"/>
<path d="M335.84 342.014C335.84 342.014 341.179 342.328 343.966 341.229" stroke="#263238" stroke-width="0.785106" stroke-linecap="round" stroke-linejoin="round"/>
<path d="M334.842 339.062C334.842 339.062 339.827 339.847 342.614 338.277" stroke="#263238" stroke-width="0.785106" stroke-linecap="round" stroke-linejoin="round"/>
<path d="M334.004 335.796C334.004 335.796 338.377 336.432 341.227 335.074" stroke="#263238" stroke-width="0.785106" stroke-linecap="round" stroke-linejoin="round"/>
<path d="M333.516 332.083C333.516 332.083 338.375 333.614 340.684 332.083" stroke="#263238" stroke-width="0.785106" stroke-linecap="round" stroke-linejoin="round"/>
<path d="M332.783 322.928L331.936 328.298C331.936 328.298 338.366 332.546 342.621 327.246V321.664C342.621 321.664 341.027 325.401 332.783 322.928Z" fill="#A50833" stroke="#263238" stroke-width="0.785106" stroke-linecap="round" stroke-linejoin="round"/>
<path d="M291.12 187.89C291.12 187.89 281.698 215.314 285.867 233.285C290.036 251.256 291.363 258.628 291.12 268.395C290.876 278.162 301.083 328.935 301.083 328.935H310.394C310.394 328.935 309.012 284.969 309.075 274.315C309.138 263.661 307.151 266.574 309.601 256.257C312.051 245.941 310.229 235.546 313.621 224.366C313.621 224.366 331.922 255.841 335.235 260.395C335.235 260.395 331.553 274.22 331.969 285.974C332.448 299.736 331.231 320.455 331.231 320.455C331.231 320.455 333.311 324.342 339.003 322.811C339.003 322.811 353.873 261.486 353.041 258.432C352.209 255.378 346.415 222.207 330.501 200.185C330.501 200.185 327.784 190.811 325.915 184.813L291.12 187.89Z" fill="white" stroke="#263238" stroke-width="0.785106" stroke-linecap="round" stroke-linejoin="round"/>
<path d="M291.119 187.89C291.119 187.89 278.439 206.105 284.791 235.672C284.791 235.672 286.125 237.242 287.837 232.304C287.837 232.304 290.553 241.78 312.842 235.672L314.122 228.888L318.911 235.672C318.911 235.672 328.435 221.124 342.064 218.643C342.064 218.643 335.987 205.979 330.468 198.489L325.883 184.789L291.119 187.89Z" fill="#263238"/>
<path d="M314.477 226.902C314.477 226.902 314.477 225.677 315.945 222.058C317.35 218.557 321.331 210.666 325.06 210.046" stroke="white" stroke-width="0.785106" stroke-linecap="round" stroke-linejoin="round"/>
<path d="M317.813 212.433C317.813 212.433 314.083 220.818 307.041 223.503" stroke="white" stroke-width="0.785106" stroke-linecap="round" stroke-linejoin="round"/>
<path d="M313.155 234.008L312.857 235.656C290.568 241.764 287.852 232.296 287.852 232.296C286.164 237.226 284.79 235.656 284.79 235.656C284.75 235.476 284.711 235.287 284.68 235.107C286.376 232.877 286.909 228.881 286.909 228.881C286.124 203.255 290.631 194.422 290.631 194.422H293.12C289.547 200.499 289.39 228.881 289.39 228.881C289.39 228.881 290.175 233.536 298.553 235.397C303.561 236.528 309.834 235.02 313.155 234.008Z" fill="#A50833"/>
<path d="M342.074 218.643C328.437 221.132 318.921 235.656 318.921 235.656L318.293 234.777C320.24 231.157 327.903 218.234 339.24 216.774C339.639 216.101 339.906 215.357 340.025 214.584C341.297 217.018 342.074 218.643 342.074 218.643Z" fill="#A50833"/>
<path opacity="0.2" d="M319.594 215.361C319.594 215.361 321.337 223.369 322.185 231.472C321.01 232.802 319.919 234.205 318.919 235.672L314.381 229.25C314.852 225.725 316.147 219.342 319.594 215.361Z" fill="black"/>
<path opacity="0.2" d="M330.995 199.204C325.248 201.661 311.234 208.02 303.941 214.592C296.647 221.163 289.291 225.662 283.245 225.183C281.4 201.857 291.096 187.898 291.096 187.898L325.861 184.758L330.454 198.458L330.995 199.204Z" fill="black"/>
<path d="M291.119 187.89C291.119 187.89 278.439 206.105 284.791 235.672C284.791 235.672 286.125 237.242 287.837 232.304C287.837 232.304 290.553 241.78 312.842 235.672L314.122 228.888L318.911 235.672C318.911 235.672 328.435 221.124 342.064 218.643C342.064 218.643 335.987 205.979 330.468 198.489L325.883 184.789L291.119 187.89Z" stroke="#263238" stroke-width="0.785106" stroke-miterlimit="10"/>
<path d="M298.725 327.812C298.725 327.812 303.074 324.711 312.072 325.331C312.072 325.331 312.723 336.126 313.948 339.267C315.173 342.407 321.626 347.848 322.828 348.782C324.029 349.716 324.029 352.974 324.029 352.974H296.691C297.037 348.302 297.762 343.665 298.858 339.11L298.725 327.812Z" fill="white"/>
<path opacity="0.4" d="M298.727 327.812C298.727 327.812 303.076 324.711 312.074 325.331C312.074 325.331 312.725 336.126 313.95 339.266C315.175 342.407 321.628 347.848 322.83 348.782C324.031 349.716 324.031 352.974 324.031 352.974H296.693C297.039 348.302 297.764 343.665 298.86 339.109L298.727 327.812Z" fill="#A50833"/>
<path d="M298.725 327.812C298.725 327.812 303.074 324.711 312.072 325.331C312.072 325.331 312.723 336.126 313.948 339.267C315.173 342.407 321.626 347.848 322.828 348.782C324.029 349.716 324.029 352.974 324.029 352.974H296.691C297.037 348.302 297.762 343.665 298.858 339.11L298.725 327.812Z" stroke="#263238" stroke-width="0.785106" stroke-linecap="round" stroke-linejoin="round"/>
<path d="M298.86 339.109C298.86 339.109 301.553 344.534 303.421 345.257C305.29 345.979 305.486 343.498 305.486 343.498C305.486 343.498 306.004 347.125 304.662 347.636C303.319 348.146 299.88 344.817 298.381 341.104L298.86 339.109Z" fill="#A50833" stroke="#263238" stroke-width="0.785106" stroke-linecap="round" stroke-linejoin="round"/>
<path d="M304.348 329.209C304.348 329.209 304.999 339.149 306.538 341.771C307.364 343.212 308.384 344.533 309.569 345.697" stroke="#263238" stroke-width="0.785106" stroke-linecap="round" stroke-linejoin="round"/>
<path d="M310.355 347.07C310.355 347.07 311.729 348.782 313.253 349.01C314.776 349.237 322.823 348.782 322.823 348.782L319.541 345.94C319.541 345.94 312.86 344.786 310.355 347.07Z" fill="#A50833" stroke="#263238" stroke-width="0.785106" stroke-linecap="round" stroke-linejoin="round"/>
<path d="M307.48 344.739C307.48 344.739 313.314 341.394 317.459 343.953" stroke="#263238" stroke-width="0.785106" stroke-linecap="round" stroke-linejoin="round"/>
<path d="M306.074 342.47C306.074 342.47 310.141 339.29 314.946 341.033" stroke="#263238" stroke-width="0.785106" stroke-linecap="round" stroke-linejoin="round"/>
<path d="M304.348 339C304.348 339 308.729 335.6 313.345 337.767" stroke="#263238" stroke-width="0.785106" stroke-linecap="round" stroke-linejoin="round"/>
<path d="M303.76 334.681C303.76 334.681 309.067 331.824 312.93 333.991" stroke="#263238" stroke-width="0.785106" stroke-linecap="round" stroke-linejoin="round"/>
<path d="M296.691 352.974V354.992H299.832C300.639 354.552 301.543 354.322 302.462 354.322C303.381 354.322 304.285 354.552 305.092 354.992H319.844C321.4 354.986 322.935 354.641 324.343 353.979L324.037 352.974H296.691Z" fill="#A50833" stroke="#263238" stroke-width="0.785106" stroke-linecap="round" stroke-linejoin="round"/>
<path d="M300.604 327.192L301.302 331.596C301.302 331.596 309.506 328.935 314.036 330.662V325.245C314.036 325.245 305.597 322.277 300.604 327.192Z" fill="#A50833" stroke="#263238" stroke-width="0.785106" stroke-linecap="round" stroke-linejoin="round"/>
<path d="M276.634 135.163C272.827 132.022 236.28 169.747 237.057 172.848C237.834 175.949 255.696 210.894 258.648 212.448C261.6 214.003 273.054 217.426 273.949 213.689L262.699 207.651C262.699 207.651 258.687 200.107 255.013 186.98C252.924 179.411 250.569 173.146 250.569 173.146C250.569 173.146 267.339 156.282 272.308 154.696C274.811 153.858 277.362 153.171 279.947 152.639C279.947 152.639 281.738 139.386 276.634 135.163Z" fill="white" stroke="#263238" stroke-width="0.785106" stroke-linecap="round" stroke-linejoin="round"/>
<path d="M322.004 129.447C328.913 127.005 334.903 134.205 342.205 138.947C348.76 143.202 354.185 146.539 354.185 146.539C347.402 138.075 347.583 127.892 339.19 111.9L344.544 109.215C344.544 109.215 359.328 129.675 365.593 143.924C367.532 148.274 368.43 153.016 368.215 157.774C368.215 157.774 365.617 161.84 358.574 160.003C347.402 157.106 334.966 148.635 328.74 147.253L322.004 129.447Z" fill="white" stroke="#263238" stroke-width="0.785106" stroke-linecap="round" stroke-linejoin="round"/>
<path d="M322.005 129.188C322.005 129.188 331.293 142.535 332.313 147.677C333.334 152.819 325.883 169.44 328.678 188.385C328.678 188.385 333.734 198.246 330.468 198.489C330.468 198.489 324.973 197.311 319.1 201.763C309.278 209.182 294.275 219.883 282.985 219.883C282.985 219.883 278.526 218.313 279.845 215.534C280.769 213.604 281.818 211.737 282.985 209.944C282.985 209.944 285.764 172.361 282.985 164.596C282.012 161.88 279.915 152.631 279.915 152.631C279.484 139.543 276.477 134.346 276.477 134.346C276.477 134.346 284.218 132.352 300.689 132.32C300.713 132.32 319.037 128.638 322.005 129.188Z" fill="#A50833"/>
<path opacity="0.2" d="M316.258 180.926C316.258 180.926 313.494 196.173 303.131 203.836C292.768 211.498 284.987 212.598 284.288 215.361C284.119 216.199 284.233 217.07 284.613 217.836C284.992 218.602 285.615 219.22 286.385 219.593C285.264 219.78 284.129 219.878 282.993 219.883C282.993 219.883 278.534 218.313 279.853 215.534C280.78 213.606 281.829 211.739 282.993 209.944C282.993 209.944 285.78 172.369 282.993 164.604C282.019 161.88 279.931 152.639 279.931 152.639C279.852 149.946 279.626 147.26 279.256 144.592C280.573 143.934 281.989 143.496 283.448 143.296C283.448 143.296 290.514 152.325 290.695 160.482C290.875 168.639 309.325 165.538 312.521 163.05C315.716 160.561 318.904 164.29 318.904 164.29C318.904 164.29 309.31 177.354 298.334 182.002C287.358 186.65 289.235 200.727 295.39 199.274C301.545 197.822 312.921 186.304 316.258 180.926Z" fill="black"/>
<path d="M322.005 129.188C322.005 129.188 331.293 142.535 332.313 147.677C333.334 152.819 325.883 169.44 328.678 188.385C328.678 188.385 333.734 198.246 330.468 198.489C330.468 198.489 324.973 197.311 319.1 201.763C309.278 209.182 294.275 219.883 282.985 219.883C282.985 219.883 278.526 218.313 279.845 215.534C280.769 213.604 281.818 211.737 282.985 209.944C282.985 209.944 285.764 172.361 282.985 164.596C282.012 161.88 279.915 152.631 279.915 152.631C279.484 139.543 276.477 134.346 276.477 134.346C276.477 134.346 284.218 132.352 300.689 132.32C300.713 132.32 319.037 128.638 322.005 129.188Z" stroke="#263238" stroke-width="0.785106" stroke-linecap="round" stroke-linejoin="round"/>
<path d="M319.143 129.392C319.143 129.392 318.719 126.707 322.864 127.037C327.01 127.366 330.716 136.756 330.653 143.312C330.613 143.288 323.194 131.614 319.143 129.392Z" fill="#A50833"/>
<path opacity="0.4" d="M319.139 129.392C319.139 129.392 318.715 126.707 322.861 127.037C327.006 127.366 330.712 136.756 330.649 143.312C330.61 143.288 323.19 131.614 319.139 129.392Z" fill="white"/>
<path d="M319.143 129.392C319.143 129.392 318.719 126.707 322.864 127.037C327.01 127.366 330.716 136.756 330.653 143.312C330.613 143.288 323.194 131.614 319.143 129.392Z" stroke="#263238" stroke-width="0.785106" stroke-linecap="round" stroke-linejoin="round"/>
<path d="M279.947 152.631C279.947 152.631 281.957 151.343 283.009 147.308C284.791 140.478 280.826 133.561 280.826 133.561C278.942 130.844 273.705 132.391 274.946 135.131C276.186 137.871 279.327 140.242 279.947 152.631Z" fill="#A50833"/>
<path opacity="0.4" d="M279.951 152.631C279.951 152.631 281.961 151.343 283.013 147.308C284.795 140.478 280.83 133.561 280.83 133.561C278.946 130.844 273.709 132.391 274.95 135.131C276.19 137.871 279.331 140.242 279.951 152.631Z" fill="white"/>
<path d="M279.947 152.631C279.947 152.631 281.957 151.343 283.009 147.308C284.791 140.478 280.826 133.561 280.826 133.561C278.942 130.844 273.705 132.391 274.946 135.131C276.186 137.871 279.327 140.242 279.947 152.631Z" stroke="#263238" stroke-width="0.785106" stroke-linecap="round" stroke-linejoin="round"/>
<path d="M325.068 165.122C319.925 175.988 313.33 186.728 304.576 195.129C301.811 197.84 298.733 200.212 295.406 202.195" stroke="#263238" stroke-width="0.785106" stroke-linecap="round" stroke-linejoin="round"/>
<path d="M327.127 160.482C326.781 161.346 326.404 162.201 326.027 163.049" stroke="#263238" stroke-width="0.785106" stroke-linecap="round" stroke-linejoin="round"/>
<path d="M292.84 166.669C298.877 168.867 305.606 168.616 311.117 165.099" stroke="#263238" stroke-width="0.785106" stroke-linecap="round" stroke-linejoin="round"/>
<path d="M288.15 164.29C288.954 164.878 289.817 165.381 290.726 165.789" stroke="#263238" stroke-width="0.785106" stroke-linecap="round" stroke-linejoin="round"/>
<path d="M313.01 140.478C313.01 140.478 312.225 148.965 299.389 148.329" stroke="#263238" stroke-width="0.785106" stroke-linecap="round" stroke-linejoin="round"/>
<path d="M280.255 135.948C280.255 135.948 277.939 139.441 278.732 143.32" stroke="#263238" stroke-width="0.785106" stroke-linecap="round" stroke-linejoin="round"/>
<path d="M323.396 131.237C323.396 131.237 326.537 129.211 329.096 134.841" stroke="#263238" stroke-width="0.785106" stroke-linecap="round" stroke-linejoin="round"/>
<path d="M273.95 213.673C283.87 213.673 291.913 205.631 291.913 195.71C291.913 185.789 283.87 177.747 273.95 177.747C264.029 177.747 255.986 185.789 255.986 195.71C255.986 205.631 264.029 213.673 273.95 213.673Z" fill="#A50833" stroke="#263238" stroke-width="0.785106" stroke-linecap="round" stroke-linejoin="round"/>
<path opacity="0.4" d="M279.947 203.447C285.617 198.629 286.307 190.126 281.489 184.457C276.67 178.787 268.168 178.097 262.498 182.915C256.829 187.734 256.139 196.236 260.957 201.906C265.775 207.575 274.278 208.265 279.947 203.447Z" fill="white"/>
<path d="M256.959 189.869C256.959 189.869 263.303 204.66 276.5 206.215C289.698 207.769 291.496 199.557 291.496 199.557" stroke="#263238" stroke-width="0.785106" stroke-linecap="round" stroke-linejoin="round"/>
<path d="M280.253 178.885C286.094 182.473 288.104 216.256 267.385 212.433" stroke="#263238" stroke-width="0.785106" stroke-linecap="round" stroke-linejoin="round"/>
<path d="M265.753 179.717C266.224 182.724 267.499 185.548 269.443 187.89C273.69 192.86 275.645 200.452 272.787 205.398C270.589 209.229 265.949 210.211 260.807 207.973" stroke="#263238" stroke-width="0.785106" stroke-linecap="round" stroke-linejoin="round"/>
<path d="M291.244 190.85C291.911 198.136 289.061 198.379 286.117 205.233C285.442 206.754 285.048 208.385 284.955 210.046" stroke="#263238" stroke-width="0.785106" stroke-linecap="round" stroke-linejoin="round"/>
<path d="M306.005 143.893C296.953 144.615 288.262 133.953 288.262 133.953C288.262 133.953 293.169 133.749 293.757 131.504C295.736 124.438 290.853 115.079 290.853 115.079C290.853 115.079 312.498 117.435 308.305 122.043C307.528 122.883 306.87 123.826 306.351 124.846C304.78 127.986 305.487 130.483 306.139 131.127C306.184 131.171 306.234 131.21 306.288 131.245C307.552 131.951 313.016 131.496 313.016 131.496C313.016 131.496 314.264 143.233 306.005 143.893Z" fill="white" stroke="#263238" stroke-width="0.785106" stroke-linecap="round" stroke-linejoin="round"/>
<path d="M291.113 136.937C294.29 138.302 297.721 138.979 301.178 138.923L303.785 140.493" stroke="#263238" stroke-width="0.785106" stroke-linecap="round" stroke-linejoin="round"/>
<path d="M306.508 140.478L306.853 138.703C306.853 138.703 311.415 137.675 313.008 135.139" stroke="#263238" stroke-width="0.785106" stroke-linecap="round" stroke-linejoin="round"/>
<path d="M306.17 131.135C299.387 132.328 296.953 123.559 296.953 123.559C296.953 123.559 302.402 122.404 306.374 124.846C304.804 127.971 305.519 130.452 306.17 131.135Z" fill="#263238"/>
<path d="M295.288 91.6048C295.288 91.6048 297 87.1061 287.06 85.5516C277.121 83.9971 270.133 94.9729 274.946 105.022C279.759 115.072 273.376 123.135 277.435 126.864C281.494 130.593 284.312 127.484 284.312 127.484C284.312 127.484 283.527 128.159 281.007 124.713C278.487 121.266 285.043 121.109 285.506 108.532C285.969 95.9542 291.983 99.3695 291.983 99.3695L295.288 91.6048Z" fill="#263238"/>
<path d="M295.406 90.8511C295.406 90.8511 295.453 88.9983 290.695 88.9983C285.937 88.9983 283.166 96.2448 287.405 99.1419C291.645 102.039 295.406 90.8511 295.406 90.8511Z" fill="#A50833" stroke="#263238" stroke-width="0.785106" stroke-linecap="round" stroke-linejoin="round"/>
<path d="M313.307 92.4528C315.418 94.0736 317.053 96.2337 318.039 98.7055C319.026 101.177 319.328 103.869 318.913 106.498C317.499 115.676 312.027 123.912 301.177 122.821C290.327 121.729 282.24 114.357 284.792 101.552C288.262 84.1307 313.307 86.6509 313.307 92.4528Z" fill="#263238"/>
<path d="M306.398 92.6411C321.19 94.8237 314.053 116.61 312.522 122.02C311.957 124.022 305.731 129.871 302.944 129.353C300.769 128.937 293.02 122.404 292.628 119.696C291.576 112.489 289.762 90.1916 306.398 92.6411Z" fill="white" stroke="#263238" stroke-width="0.785106" stroke-linecap="round" stroke-linejoin="round"/>
<path d="M308.432 108.532C308.432 109.552 307.584 112.457 309.586 114.506C310.881 115.825 307.584 116.414 307.584 116.414" stroke="#263238" stroke-width="0.785106" stroke-linecap="round" stroke-linejoin="round"/>
<path d="M309.098 105.54C309.098 105.54 312.238 103.884 314.122 106.498" stroke="#263238" stroke-width="0.785106" stroke-linecap="round" stroke-linejoin="round"/>
<path d="M304.004 106.852C304.004 106.852 300.919 103.578 298.352 104.174" stroke="#263238" stroke-width="0.785106" stroke-linecap="round" stroke-linejoin="round"/>
<path d="M311.9 110.942C311.782 111.539 311.335 111.963 310.903 111.884C310.471 111.806 310.212 111.24 310.322 110.636C310.432 110.031 310.887 109.615 311.319 109.702C311.751 109.788 312.018 110.337 311.9 110.942Z" fill="#263238"/>
<path d="M302.301 110.235C301.373 109.871 300.386 109.682 299.389 109.678" stroke="#263238" stroke-width="0.785106" stroke-linecap="round" stroke-linejoin="round"/>
<path d="M301.529 117.38C302.988 118.859 304.832 119.901 306.852 120.387" stroke="#263238" stroke-width="0.785106" stroke-linecap="round" stroke-linejoin="round"/>
<path d="M302.427 118.189C302.427 118.189 302.348 120.41 303.761 121.125C305.174 121.839 306.509 120.34 306.509 120.34" stroke="#263238" stroke-width="0.785106" stroke-linecap="round" stroke-linejoin="round"/>
<path d="M317.16 97.8306C317.16 97.8306 317.427 99.2595 307.928 101.874C298.734 104.394 293.592 105.902 292.28 112.253C292.28 112.253 288.975 107.417 289.093 102.149C289.211 96.8807 294.589 89.8304 305.981 90.9767C317.372 92.1229 317.16 97.8306 317.16 97.8306Z" fill="#263238"/>
<path d="M293.154 110.259C293.382 109.058 290.579 105.737 289.378 107.621C287.345 110.848 288.389 113.902 290.124 115.181C290.909 115.762 291.851 116.815 292.652 115.967" fill="white"/>
<path d="M293.154 110.259C293.382 109.058 290.579 105.737 289.378 107.621C287.345 110.848 288.389 113.902 290.124 115.181C290.909 115.762 291.851 116.815 292.652 115.967" stroke="#263238" stroke-width="0.785106" stroke-linecap="round" stroke-linejoin="round"/>
<path opacity="0.2" d="M311.116 90.8511C311.116 90.8511 315.042 93.8737 309.884 97.5951C304.725 101.317 288.262 104.096 288.262 104.096" stroke="white" stroke-width="0.785106" stroke-linecap="round" stroke-linejoin="round"/>
<path opacity="0.2" d="M307.581 93.4497C302.031 96.7952 295.53 98.2113 289.092 97.4773" stroke="white" stroke-width="0.785106" stroke-linecap="round" stroke-linejoin="round"/>
<path opacity="0.2" d="M284.399 90.2388C284.399 90.2388 278.518 89.3752 276.501 94.3056C274.483 99.2361 278.636 106.867 279.405 112.253C280.175 117.639 278.565 119.664 278.565 119.664" stroke="white" stroke-width="0.785106" stroke-linecap="round" stroke-linejoin="round"/>
<path d="M341.515 116.32C341.515 116.32 339.654 116.453 336.804 114.75C333.955 113.046 327.721 112.481 327.721 112.481C327.721 112.481 327.674 110.597 330.013 110.738C332.046 110.773 334.079 110.67 336.098 110.432C336.098 110.432 335.171 103.892 335.815 103.122C336.459 102.353 344.114 101.599 345.182 102.549C346.249 103.499 350.764 115.017 346.351 115.755" fill="white"/>
<path d="M341.515 116.32C341.515 116.32 339.654 116.453 336.804 114.75C333.955 113.046 327.721 112.481 327.721 112.481C327.721 112.481 327.674 110.597 330.013 110.738C332.046 110.773 334.079 110.67 336.098 110.432C336.098 110.432 335.171 103.892 335.815 103.122C336.459 102.353 344.114 101.599 345.182 102.549C346.249 103.499 350.764 115.017 346.351 115.755" stroke="#263238" stroke-width="0.785106" stroke-linecap="round" stroke-linejoin="round"/>
<path d="M335.792 103.13C335.007 103.13 334.496 108.626 334.653 108.532C334.81 108.438 336.357 109.827 337.009 109.961C337.47 110.006 337.933 109.907 338.336 109.678C340.263 109.785 342.195 109.785 344.122 109.678C344.907 109.466 345.401 108.108 344.773 106.852" fill="white"/>
<path d="M335.792 103.13C335.007 103.13 334.496 108.626 334.653 108.532C334.81 108.438 336.357 109.827 337.009 109.961C337.47 110.006 337.933 109.907 338.336 109.678C340.263 109.785 342.195 109.785 344.122 109.678C344.907 109.466 345.401 108.108 344.773 106.852" stroke="#263238" stroke-width="0.785106" stroke-linecap="round" stroke-linejoin="round"/>
<path d="M344.679 104.496C344.802 105.631 344.56 106.775 343.988 107.762" stroke="#263238" stroke-width="0.785106" stroke-linecap="round" stroke-linejoin="round"/>
<path d="M338.304 109.678C338.304 109.678 336.514 107.747 336.592 107.056C336.772 106.189 337.005 105.334 337.291 104.496" stroke="#263238" stroke-width="0.785106" stroke-linecap="round" stroke-linejoin="round"/>
<path d="M340.339 109.678C340.339 109.678 339.02 107.817 339.091 107.087C339.161 106.357 339.711 104.096 339.711 104.096" stroke="#263238" stroke-width="0.785106" stroke-linecap="round" stroke-linejoin="round"/>
<path d="M342.695 109.764C342.114 108.926 341.86 107.904 341.98 106.891C342.16 106.076 342.399 105.276 342.695 104.496" stroke="#263238" stroke-width="0.785106" stroke-linecap="round" stroke-linejoin="round"/>
<path d="M336.076 110.439C336.833 110.324 337.606 110.377 338.34 110.594C339.074 110.811 339.751 111.187 340.324 111.696" stroke="#263238" stroke-width="0.785106" stroke-linecap="round" stroke-linejoin="round"/>
</svg>
