<!--?xml version="1.0" standalone="no"?-->
              <svg id="sw-js-blob-svg" viewBox="0 0 100 100" xmlns="http://www.w3.org/2000/svg" version="1.1">
                    <defs> 
                        <linearGradient id="sw-gradient" x1="0" x2="1" y1="1" y2="0">
                            <stop id="stop1" stop-color="rgba(255, 176, 59, 1)" offset="0%"></stop>
                            <stop id="stop2" stop-color="rgba(36, 135, 206, 1)" offset="100%"></stop>
                        </linearGradient>
                    </defs>
                <path fill="url(#sw-gradient)" d="M25.5,-32.6C33,-29.6,39,-22.1,39.7,-14.2C40.5,-6.3,36,1.9,29.5,5.8C23,9.6,14.5,8.9,9.2,12.4C4,16,2,23.7,-3.2,28C-8.3,32.3,-16.6,33.3,-20.8,29.5C-24.9,25.6,-24.9,16.8,-28.6,8.6C-32.2,0.3,-39.5,-7.4,-40.2,-15.5C-40.9,-23.5,-35,-31.8,-27.2,-34.7C-19.4,-37.5,-9.7,-34.9,-0.4,-34.4C9,-33.9,18,-35.5,25.5,-32.6Z" width="100%" height="100%" transform="translate(50 50)" stroke-width="0" style="transition: all 0.3s ease 0s;" stroke="url(#sw-gradient)"></path>
              </svg>