<!--?xml version="1.0" standalone="no"?-->
              <svg id="sw-js-blob-svg" viewBox="0 0 100 100" xmlns="http://www.w3.org/2000/svg" version="1.1">
                    <defs> 
                        <linearGradient id="sw-gradient" x1="0" x2="1" y1="1" y2="0">
                            <stop id="stop1" stop-color="rgba(255, 176, 59, 1)" offset="0%"></stop>
                            <stop id="stop2" stop-color="rgba(36, 135, 206, 1)" offset="100%"></stop>
                        </linearGradient>
                    </defs>
                <path fill="url(#sw-gradient)" d="M22.9,-35.8C29.4,-31.5,34.1,-24.6,38.2,-17C42.3,-9.4,45.8,-1.2,44.6,6.3C43.4,13.8,37.4,20.5,31.3,26.4C25.1,32.3,18.8,37.4,11.6,39.4C4.5,41.3,-3.5,40.2,-10.9,37.7C-18.3,35.3,-25.2,31.5,-30.7,26.1C-36.2,20.7,-40.3,13.5,-41.1,6.1C-42,-1.4,-39.5,-9.1,-36.2,-16.7C-33,-24.2,-29,-31.5,-22.8,-35.9C-16.7,-40.4,-8.3,-41.8,-0.1,-41.7C8.2,-41.7,16.4,-40,22.9,-35.8Z" width="100%" height="100%" transform="translate(50 50)" stroke-width="0" style="transition: all 0.3s ease 0s;" stroke="url(#sw-gradient)"></path>
              </svg>