<!--?xml version="1.0" standalone="no"?-->
              <svg id="sw-js-blob-svg" viewBox="0 0 100 100" xmlns="http://www.w3.org/2000/svg" version="1.1">
                    <defs> 
                        <linearGradient id="sw-gradient" x1="0" x2="1" y1="1" y2="0">
                            <stop id="stop1" stop-color="rgba(255, 176, 59, 1)" offset="0%"></stop>
                            <stop id="stop2" stop-color="rgba(36, 135, 206, 1)" offset="100%"></stop>
                        </linearGradient>
                    </defs>
                <path fill="url(#sw-gradient)" d="M27.4,-30.4C35.5,-25.8,42,-17.2,44.1,-7.5C46.2,2.3,43.8,13.1,38,20.8C32.2,28.4,22.9,32.9,14.1,34.1C5.3,35.3,-3,33.2,-10.3,29.9C-17.5,26.5,-23.6,21.9,-29.9,15.2C-36.2,8.6,-42.7,0,-41,-6.9C-39.4,-13.7,-29.6,-18.7,-21.4,-23.2C-13.2,-27.7,-6.6,-31.8,1.5,-33.6C9.6,-35.4,19.3,-34.9,27.4,-30.4Z" width="100%" height="100%" transform="translate(50 50)" stroke-width="0" style="transition: all 0.3s ease 0s;" stroke="url(#sw-gradient)"></path>
              </svg>