<svg width="160" height="180" viewBox="0 0 160 180" fill="none" xmlns="http://www.w3.org/2000/svg">
<g clip-path="url(#clip0_33_408)">
<path d="M85.501 172.25L72.0448 170.625L71.8755 147.406L85.3403 149.033L85.501 172.25Z" fill="#A50833"/>
<path d="M85.3393 149.033L71.8745 147.406L89.1759 145.456L102.629 147.089L85.3393 149.033Z" fill="#A50833"/>
<path d="M102.629 147.088L102.801 170.299L85.4994 172.249L85.3388 149.032L102.629 147.088Z" fill="#D51746"/>
<path d="M92.8595 93.4111C90.44 97.5561 88.5651 101.996 87.2812 106.62C85.6651 112.905 84.9037 119.38 85.0176 125.869C84.9603 128.583 85.0225 131.517 85.2133 134.729L71.7599 133.096C70.8983 117.691 72.0534 102.243 81.1395 88.9857C86.8464 79.595 95.9339 71.643 98.8941 60.7898C101.075 52.1817 97.8784 40.7617 90.3837 35.7692C88.5249 34.514 86.4018 33.7043 84.1792 33.4029L97.1606 34.9696L97.6898 35.0354C99.7941 35.3686 101.812 36.1144 103.627 37.2302L103.713 37.2578C105.109 38.215 106.366 39.3603 107.448 40.6613C111.173 45.0677 113.157 50.6849 113.025 56.4533C113.076 59.6974 112.485 62.9195 111.284 65.9338C110.034 69.0525 107.156 73.5738 102.745 79.3197C99.1792 83.8208 95.8783 88.526 92.8595 93.4111Z" fill="#A50833"/>
<path d="M102.415 14.2442C99.4525 13.8844 96.4575 13.8764 93.4928 14.2206C88.399 14.7174 83.4662 16.2781 79.0137 18.8018C74.5612 21.3254 70.6882 24.7558 67.6452 28.8709C61.123 37.3445 57.2518 49.0529 56.0358 63.5991L55.7958 66.5871L42.3564 64.9396C44.4019 27.8747 63.6954 5.57369 102.415 14.2442Z" fill="#A50833"/>
<path d="M93.4783 14.2639C104.73 13.0059 113.9 16.1839 120.742 23.7374C127.583 31.2909 131.171 41.2612 131.253 53.1882C131.353 59.8982 130.174 66.5658 127.779 72.8348C125.426 78.882 121.016 86.0992 114.283 94.9322C110.064 100.465 107.301 104.511 106.07 106.952C104.843 109.437 103.969 112.082 103.475 114.81C102.896 117.85 102.577 122.91 102.527 129.879L102.535 132.805L85.2165 134.72L85.1263 131.844C85.0612 129.451 85.019 127.606 84.9972 126.346C84.8508 119.696 85.6136 113.058 87.2644 106.615C88.5483 101.99 90.4231 97.5506 92.8427 93.4057C95.8466 88.5336 99.1364 83.8436 102.695 79.3604C107.108 73.5773 109.986 69.056 111.239 65.9287C112.434 62.9128 113.025 59.6918 112.98 56.4482C113.106 50.6783 111.12 45.0609 107.394 40.6534C103.663 36.2643 99.2265 34.4195 93.8389 35.0302C88.6311 35.6134 84.4327 38.1916 81.0167 42.91C77.6006 47.6284 75.3201 54.9233 74.2729 64.5794L73.9601 67.4396L55.7779 66.5818L56.0266 63.5965C57.2339 49.0476 61.1454 37.3616 67.6445 28.8711C70.6881 24.7635 74.5603 21.3409 79.0105 18.8246C83.4607 16.3084 88.3896 14.7546 93.4783 14.2639Z" fill="#D51746"/>
</g>
<defs>
<clipPath id="clip0_33_408">
<rect width="160" height="180" fill="white"/>
</clipPath>
</defs>
</svg>
