<svg width="470" height="427" viewBox="0 0 470 427" fill="none" xmlns="http://www.w3.org/2000/svg">
<g clip-path="url(#clip0_12_10245)">
<path d="M234.65 36.1299C235.3 31.4499 228.65 27.5999 223.73 27.1999C221.36 27.0099 218.9 27.3699 216.66 26.5899C211.8 24.8999 209.86 18.5899 205.12 16.5899C201.58 15.0899 197.49 16.4199 194.06 18.1499C190.63 19.8799 187.23 22.0599 183.39 22.3099C180.05 22.5199 176.39 21.3099 173.5 22.9099C171.32 24.1299 170.18 26.6399 168.18 28.1199C166.18 29.5999 163.65 29.8699 161.18 29.9999C158.71 30.1299 156.18 30.1599 154 31.1799C151.82 32.1999 150 34.5399 150.41 36.9299L234.65 36.1299Z" fill="#EBEBEB"/>
<path d="M430 121.84C430.65 117.16 424 113.3 419.08 112.9C416.71 112.71 414.25 113.08 412.01 112.29C407.15 110.6 405.21 104.29 400.47 102.29C396.92 100.8 392.84 102.13 389.41 103.86C385.98 105.59 382.58 107.77 378.74 108.01C375.4 108.22 371.74 107.01 368.85 108.62C366.67 109.83 365.53 112.34 363.53 113.82C361.53 115.3 359 115.58 356.53 115.71C354.06 115.84 351.53 115.87 349.35 116.88C347.17 117.89 345.3 120.24 345.76 122.64L430 121.84Z" fill="#EBEBEB"/>
<path d="M28.7098 4.32983H19.5798V193.91H28.7098V4.32983Z" fill="#FAFAFA"/>
<path d="M168.84 4.32983H159.71V193.91H168.84V4.32983Z" fill="#FAFAFA"/>
<path d="M308.98 4.32983H299.85V193.91H308.98V4.32983Z" fill="#FAFAFA"/>
<path d="M449.12 4.32983H439.99V193.91H449.12V4.32983Z" fill="#FAFAFA"/>
<path d="M0.719971 369.66H466.79V189.96H0.719971V369.66Z" fill="#FAFAFA"/>
<path d="M446 4.93993C446 5.08993 350.63 5.19993 233 5.19993C115.37 5.19993 20 5.08993 20 4.93993C20 4.78993 115.35 4.67993 233 4.67993C350.65 4.67993 446 4.79993 446 4.93993Z" fill="#F5F5F5"/>
<path d="M365.39 369.51H353.8V214.86C353.8 214.098 353.95 213.344 354.241 212.64C354.533 211.937 354.96 211.297 355.499 210.759C356.037 210.22 356.677 209.793 357.38 209.501C358.084 209.21 358.838 209.06 359.6 209.06C361.137 209.063 362.609 209.675 363.695 210.762C364.78 211.85 365.39 213.323 365.39 214.86V369.51Z" fill="#E0E0E0"/>
<path d="M397 369.51H385.41V214.86C385.41 213.323 386.02 211.85 387.105 210.762C388.191 209.675 389.663 209.063 391.2 209.06C391.962 209.06 392.716 209.21 393.42 209.501C394.123 209.793 394.763 210.22 395.301 210.759C395.84 211.297 396.267 211.937 396.559 212.64C396.85 213.344 397 214.098 397 214.86V369.51Z" fill="#E0E0E0"/>
<path d="M389.12 209.63H361.34C360.786 209.63 360.254 209.41 359.862 209.018C359.47 208.626 359.25 208.094 359.25 207.54C359.253 206.987 359.474 206.458 359.866 206.069C360.257 205.679 360.787 205.46 361.34 205.46H389.12C389.393 205.46 389.664 205.514 389.916 205.618C390.168 205.723 390.398 205.876 390.591 206.069C390.784 206.262 390.937 206.492 391.042 206.744C391.146 206.996 391.2 207.267 391.2 207.54C391.201 207.814 391.148 208.086 391.045 208.339C390.941 208.593 390.788 208.823 390.594 209.017C390.401 209.211 390.171 209.366 389.918 209.471C389.665 209.576 389.394 209.63 389.12 209.63Z" fill="#E0E0E0"/>
<path d="M367.66 212.33C366.909 212.327 366.189 212.027 365.658 211.495C365.128 210.962 364.83 210.241 364.83 209.49V204.84C364.83 204.089 365.128 203.37 365.659 202.839C366.19 202.308 366.909 202.01 367.66 202.01C368.411 202.01 369.13 202.308 369.661 202.839C370.192 203.37 370.49 204.089 370.49 204.84V209.49C370.49 210.241 370.192 210.962 369.662 211.495C369.131 212.027 368.411 212.327 367.66 212.33Z" fill="#E0E0E0"/>
<path d="M372.86 212.33C372.109 212.327 371.389 212.027 370.858 211.495C370.328 210.962 370.03 210.241 370.03 209.49V204.84C370.03 204.089 370.328 203.37 370.859 202.839C371.39 202.308 372.109 202.01 372.86 202.01C373.611 202.01 374.33 202.308 374.861 202.839C375.392 203.37 375.69 204.089 375.69 204.84V209.49C375.691 209.862 375.619 210.232 375.477 210.576C375.336 210.921 375.128 211.234 374.865 211.498C374.602 211.761 374.289 211.971 373.945 212.114C373.601 212.256 373.232 212.33 372.86 212.33Z" fill="#E0E0E0"/>
<path d="M378.06 212.33C377.309 212.327 376.589 212.027 376.058 211.495C375.528 210.962 375.23 210.241 375.23 209.49V204.84C375.23 204.089 375.528 203.37 376.059 202.839C376.59 202.308 377.309 202.01 378.06 202.01C378.811 202.01 379.532 202.308 380.065 202.838C380.597 203.369 380.897 204.089 380.9 204.84V209.49C380.9 210.243 380.601 210.966 380.068 211.498C379.536 212.031 378.813 212.33 378.06 212.33Z" fill="#E0E0E0"/>
<path d="M383.27 202.01H383.26C381.697 202.01 380.43 203.277 380.43 204.84V209.5C380.43 211.063 381.697 212.33 383.26 212.33H383.27C384.833 212.33 386.1 211.063 386.1 209.5V204.84C386.1 203.277 384.833 202.01 383.27 202.01Z" fill="#E0E0E0"/>
<path d="M427.11 369.51H415.52V214.86C415.52 213.323 416.13 211.85 417.215 210.762C418.301 209.675 419.773 209.063 421.31 209.06C422.072 209.06 422.826 209.21 423.53 209.501C424.233 209.793 424.873 210.22 425.411 210.759C425.95 211.297 426.377 211.937 426.668 212.64C426.96 213.344 427.11 214.098 427.11 214.86V369.51Z" fill="#E0E0E0"/>
<path d="M419.22 209.63H391.45C391.175 209.631 390.903 209.578 390.649 209.474C390.394 209.369 390.164 209.215 389.969 209.021C389.775 208.826 389.621 208.596 389.516 208.341C389.412 208.087 389.359 207.815 389.36 207.54C389.36 207.266 389.414 206.995 389.519 206.742C389.624 206.489 389.779 206.259 389.973 206.066C390.167 205.872 390.397 205.719 390.651 205.615C390.904 205.512 391.176 205.459 391.45 205.46H419.22C419.494 205.459 419.766 205.512 420.019 205.615C420.273 205.719 420.503 205.872 420.697 206.066C420.891 206.259 421.046 206.489 421.151 206.742C421.256 206.995 421.31 207.266 421.31 207.54C421.311 207.815 421.258 208.087 421.154 208.341C421.049 208.596 420.895 208.826 420.701 209.021C420.506 209.215 420.276 209.369 420.021 209.474C419.767 209.578 419.495 209.631 419.22 209.63Z" fill="#E0E0E0"/>
<path d="M397.77 212.33C397.017 212.33 396.294 212.031 395.762 211.498C395.229 210.966 394.93 210.243 394.93 209.49V204.84C394.933 204.089 395.233 203.369 395.765 202.838C396.298 202.308 397.019 202.01 397.77 202.01C398.521 202.01 399.24 202.308 399.771 202.839C400.302 203.37 400.6 204.089 400.6 204.84V209.49C400.6 210.241 400.302 210.962 399.772 211.495C399.241 212.027 398.521 212.327 397.77 212.33Z" fill="#E0E0E0"/>
<path d="M403 212.33C402.247 212.33 401.524 212.031 400.992 211.498C400.459 210.966 400.16 210.243 400.16 209.49V204.84C400.16 204.087 400.459 203.364 400.992 202.832C401.524 202.299 402.247 202 403 202C403.751 202 404.47 202.298 405.001 202.829C405.532 203.36 405.83 204.079 405.83 204.83V209.48C405.831 209.853 405.759 210.223 405.618 210.568C405.476 210.913 405.268 211.226 405.005 211.491C404.742 211.756 404.43 211.966 404.086 212.11C403.742 212.254 403.373 212.329 403 212.33Z" fill="#E0E0E0"/>
<path d="M408.17 212.33C407.798 212.33 407.429 212.256 407.085 212.114C406.741 211.971 406.428 211.761 406.165 211.498C405.902 211.234 405.694 210.921 405.553 210.576C405.411 210.232 405.339 209.862 405.34 209.49V204.84C405.34 204.089 405.638 203.37 406.169 202.839C406.7 202.308 407.419 202.01 408.17 202.01C408.921 202.01 409.64 202.308 410.171 202.839C410.702 203.37 411 204.089 411 204.84V209.49C411 210.241 410.702 210.962 410.172 211.495C409.641 212.027 408.921 212.327 408.17 212.33Z" fill="#E0E0E0"/>
<path d="M413.37 212.33C412.997 212.33 412.629 212.256 412.285 212.114C411.941 211.971 411.628 211.761 411.365 211.498C411.102 211.234 410.894 210.921 410.753 210.576C410.611 210.232 410.539 209.862 410.54 209.49V204.84C410.54 204.089 410.838 203.37 411.369 202.839C411.9 202.308 412.619 202.01 413.37 202.01C414.121 202.01 414.84 202.308 415.371 202.839C415.902 203.37 416.2 204.089 416.2 204.84V209.49C416.2 210.241 415.902 210.962 415.372 211.495C414.841 212.027 414.121 212.327 413.37 212.33Z" fill="#E0E0E0"/>
<path d="M125.17 111.53C125.82 106.85 119.17 103 114.25 102.6C111.88 102.41 109.42 102.77 107.18 101.99C102.32 100.29 100.38 93.9898 95.64 91.9898C92.1 90.4898 88.02 91.8198 84.58 93.5498C81.14 95.2798 77.75 97.4598 73.91 97.6998C70.57 97.9198 66.91 96.6998 64.02 98.3098C61.85 99.5198 60.71 102.03 58.7 103.51C56.69 104.99 54.18 105.27 51.7 105.4C49.22 105.53 46.7 105.56 44.52 106.57C42.34 107.58 40.51 110 41 112.36L125.17 111.53Z" fill="#EBEBEB"/>
<path d="M469.81 369.58C469.81 369.73 364.67 369.84 235.01 369.84C105.35 369.84 0.189941 369.73 0.189941 369.58C0.189941 369.43 105.31 369.32 235.01 369.32C364.71 369.32 469.81 369.44 469.81 369.58Z" fill="#263238"/>
<path d="M93.55 353.82C94.3377 354.349 95.0565 354.974 95.69 355.68C97.2837 357.312 98.7076 359.101 99.94 361.02C101.172 362.942 102.2 364.986 103.01 367.12C103.389 367.986 103.654 368.896 103.8 369.83C103.374 368.996 102.997 368.138 102.67 367.26C100.878 363.118 98.4297 359.293 95.42 355.93C94.7583 355.262 94.134 354.557 93.55 353.82Z" fill="#263238"/>
<path d="M106.3 352.69C106.435 353.509 106.492 354.34 106.47 355.17C106.53 356.7 106.63 358.81 106.84 361.17C107.05 363.53 107.32 365.59 107.53 367.1C107.698 367.913 107.791 368.74 107.81 369.57C107.499 368.796 107.284 367.987 107.17 367.16C106.394 363.225 106.035 359.22 106.1 355.21C106.06 354.365 106.127 353.518 106.3 352.69Z" fill="#263238"/>
<path d="M119.72 355.38C115.948 359.627 113.21 364.689 111.72 370.17C111.752 369.33 111.9 368.499 112.16 367.7C112.689 365.739 113.444 363.847 114.41 362.06C115.38 360.266 116.551 358.589 117.9 357.06C118.428 356.42 119.04 355.855 119.72 355.38Z" fill="#263238"/>
<path d="M56.8899 409.07C57.666 409.602 58.3745 410.227 58.9999 410.93C62.2019 414.198 64.694 418.093 66.3199 422.37C66.6985 423.236 66.9641 424.146 67.1099 425.08C66.696 424.243 66.3255 423.385 65.9999 422.51C64.2076 418.368 61.7596 414.543 58.7499 411.18C58.0857 410.517 57.4645 409.812 56.8899 409.07Z" fill="#263238"/>
<path d="M69.6299 407.94C69.7652 408.759 69.8222 409.59 69.7999 410.42C69.8599 411.95 69.9599 414.06 70.1699 416.42C70.3799 418.78 70.6499 420.84 70.8699 422.35C71.0382 423.163 71.1286 423.99 71.1399 424.82C70.8285 424.046 70.6136 423.237 70.4999 422.41C70.1128 420.443 69.8291 418.457 69.6499 416.46C69.4702 414.465 69.3968 412.462 69.4299 410.46C69.3949 409.615 69.4621 408.769 69.6299 407.94Z" fill="#263238"/>
<path d="M83.06 410.63C81.2474 412.801 79.6184 415.119 78.19 417.56C76.9251 420.087 75.8747 422.717 75.05 425.42C75.0752 424.58 75.22 423.749 75.48 422.95C76.0161 420.99 76.7743 419.098 77.74 417.31C78.7007 415.513 79.8686 413.835 81.22 412.31C81.7525 411.667 82.3718 411.102 83.06 410.63Z" fill="#263238"/>
<path d="M381 410.42C381.783 410.951 382.498 411.576 383.13 412.28C384.727 413.909 386.151 415.699 387.38 417.62C388.615 419.54 389.644 421.584 390.45 423.72C390.829 424.586 391.098 425.497 391.25 426.43C390.817 425.595 390.436 424.733 390.11 423.85C389.21 421.773 388.154 419.767 386.95 417.85C385.726 415.958 384.358 414.163 382.86 412.48C382.197 411.833 381.576 411.145 381 410.42Z" fill="#263238"/>
<path d="M393.72 409.29C393.855 410.109 393.912 410.94 393.89 411.77C393.95 413.29 394.06 415.4 394.26 417.77C394.46 420.14 394.74 422.19 394.96 423.7C395.128 424.513 395.219 425.34 395.23 426.17C394.924 425.394 394.71 424.585 394.59 423.76C394.201 421.776 393.917 419.774 393.74 417.76C393.565 415.765 393.492 413.762 393.52 411.76C393.495 410.932 393.562 410.103 393.72 409.29Z" fill="#263238"/>
<path d="M407.15 412C405.343 414.173 403.717 416.491 402.29 418.93C401.018 421.455 399.964 424.085 399.14 426.79C399.166 425.95 399.314 425.118 399.58 424.32C400.64 420.389 402.602 416.76 405.31 413.72C405.84 413.063 406.459 412.484 407.15 412Z" fill="#263238"/>
<path d="M231.23 403.67C232.018 404.191 232.734 404.813 233.36 405.52C236.567 408.8 239.059 412.709 240.68 417C241.059 417.866 241.324 418.776 241.47 419.71C241.047 418.875 240.67 418.017 240.34 417.14C238.548 412.998 236.1 409.173 233.09 405.81C232.426 405.136 231.805 404.421 231.23 403.67Z" fill="#263238"/>
<path d="M244 402.53C244.135 403.349 244.192 404.18 244.17 405.01C244.23 406.54 244.33 408.65 244.54 411.01C244.75 413.37 245.02 415.43 245.24 416.95C245.409 417.763 245.5 418.59 245.51 419.42C245.202 418.645 244.988 417.836 244.87 417.01C244.482 415.026 244.198 413.024 244.02 411.01C243.841 409.015 243.767 407.013 243.8 405.01C243.77 404.178 243.837 403.346 244 402.53Z" fill="#263238"/>
<path d="M257.39 405.23C255.581 407.401 253.955 409.719 252.53 412.16C251.264 414.684 250.214 417.31 249.39 420.01C249.415 419.17 249.56 418.339 249.82 417.54C250.356 415.583 251.115 413.694 252.08 411.91C253.041 410.114 254.209 408.436 255.56 406.91C256.087 406.266 256.704 405.701 257.39 405.23Z" fill="#263238"/>
<path d="M49.36 329.42C50.2951 329.857 51.1318 330.48 51.8194 331.25C52.5069 332.02 53.031 332.922 53.36 333.9C53.9926 335.858 54.1704 337.933 53.88 339.97C53.44 343.91 51.2 347.88 48.79 351.03C45.48 348.13 44.71 343.09 44.49 340.5C44.13 336.41 45.96 328.81 49.4 329.42" fill="#006DB7"/>
<path d="M52.61 357.53C52.3821 356.405 52.4564 355.239 52.8253 354.152C53.1942 353.065 53.8444 352.094 54.71 351.34C55.5869 350.599 56.6029 350.04 57.6984 349.697C58.7939 349.354 59.947 349.232 61.09 349.34C61.6182 349.332 62.1418 349.439 62.6238 349.655C63.1059 349.871 63.5347 350.19 63.88 350.59C64.1401 351.012 64.282 351.497 64.2908 351.993C64.2996 352.489 64.175 352.979 63.93 353.41C63.4292 354.271 62.7077 354.982 61.84 355.47C58.97 357.27 55.84 358.47 52.61 357.47" fill="#006DB7"/>
<path d="M48.3499 369.6C48.3688 369.327 48.4089 369.056 48.4699 368.79C48.5799 368.22 48.7099 367.49 48.8699 366.61C49.2429 364.171 50.0059 361.807 51.1299 359.61C52.2977 357.424 54.0226 355.585 56.1299 354.28C56.7607 353.906 57.4316 353.604 58.1299 353.38C58.3224 353.315 58.5197 353.265 58.7199 353.23C58.7893 353.216 58.8606 353.216 58.9299 353.23C57.9737 353.55 57.0549 353.972 56.1899 354.49C54.1448 355.812 52.4691 357.633 51.3199 359.78C50.2159 361.951 49.4376 364.272 49.0099 366.67C48.8099 367.58 48.6499 368.32 48.5199 368.83C48.4866 369.091 48.4297 369.349 48.3499 369.6Z" fill="#263238"/>
<path d="M48.48 335.33C48.4899 335.45 48.4899 335.57 48.48 335.69C48.48 335.95 48.48 336.29 48.54 336.69C48.59 337.57 48.64 338.85 48.69 340.43C48.79 343.58 48.87 347.94 48.85 352.76C48.83 357.58 48.71 361.94 48.58 365.09C48.52 366.67 48.45 367.95 48.4 368.83C48.4 369.24 48.4 369.58 48.33 369.83C48.3402 369.946 48.3402 370.064 48.33 370.18C48.3148 370.064 48.3148 369.946 48.33 369.83V368.83C48.33 367.91 48.38 366.65 48.42 365.1C48.5 361.94 48.58 357.58 48.6 352.77C48.62 347.96 48.6 343.6 48.53 340.44C48.53 338.89 48.48 337.62 48.47 336.71C48.47 336.29 48.47 335.95 48.47 335.71C48.457 335.583 48.4603 335.456 48.48 335.33Z" fill="#263238"/>
<path d="M46.87 359.92C46.4677 357.535 45.5033 355.279 44.0565 353.34C42.6098 351.401 40.7222 349.835 38.55 348.77C37.45 348.24 36 347.89 35.09 348.77C34.18 349.65 34.38 351.07 34.83 352.22C35.8048 354.604 37.4658 356.645 39.6023 358.083C41.7387 359.522 44.2544 360.293 46.83 360.3" fill="#006DB7"/>
<path d="M39.09 352.5C39.3301 352.587 39.564 352.691 39.79 352.81C40.02 352.92 40.29 353.05 40.59 353.23C40.934 353.426 41.2678 353.64 41.59 353.87C41.9926 354.138 42.3798 354.429 42.75 354.74C43.1867 355.09 43.604 355.464 44 355.86C44.8919 356.767 45.677 357.774 46.34 358.86C46.992 359.958 47.5122 361.13 47.89 362.35C48.0485 362.883 48.1787 363.424 48.28 363.97C48.3732 364.442 48.4366 364.92 48.47 365.4C48.5178 365.798 48.5378 366.199 48.53 366.6C48.5518 366.9 48.5518 367.2 48.53 367.5C48.5301 367.755 48.5033 368.01 48.45 368.26C48.38 368.26 48.5 367.16 48.3 365.42C48.2293 364.941 48.1292 364.467 48 364C47.8937 363.463 47.7569 362.932 47.59 362.41C47.2194 361.221 46.7162 360.077 46.09 359C45.4373 357.92 44.6694 356.914 43.8 356C43.39 355.6 43.01 355.21 42.61 354.88C42.21 354.55 41.83 354.26 41.48 353.99C40.06 353 39.06 352.56 39.09 352.5Z" fill="#263238"/>
<path d="M404.689 50.93C406.136 44.7686 402.315 38.6004 396.153 37.153C389.992 35.7055 383.824 39.527 382.376 45.6885C380.929 51.8499 384.75 58.0181 390.912 59.4656C397.073 60.913 403.241 57.0915 404.689 50.93Z" fill="#006DB7"/>
<path d="M391.88 73.93C391.758 72.3565 391.718 70.7777 391.76 69.2C391.718 67.6223 391.758 66.0435 391.88 64.47C392.002 66.0435 392.042 67.6223 392 69.2C392.042 70.7777 392.002 72.3565 391.88 73.93Z" fill="#006DB7"/>
<path d="M385.27 61.8099C385.33 61.8099 384.27 63.8099 382.87 66.2199C381.47 68.6299 380.31 70.5399 380.25 70.5099C380.19 70.4799 381.25 68.5099 382.66 66.0999C384.07 63.6899 385.22 61.7799 385.27 61.8099Z" fill="#006DB7"/>
<path d="M378.49 57.5898C377.655 58.412 376.763 59.1739 375.82 59.8698C374.93 60.6442 373.988 61.3559 373 61.9998C373.843 61.1821 374.738 60.4205 375.68 59.7198C376.564 58.9431 377.503 58.2313 378.49 57.5898Z" fill="#006DB7"/>
<path d="M403.32 69.2699C403.178 68.8946 403.074 68.506 403.01 68.1099C402.85 67.3899 402.61 66.3899 402.32 65.2999C402.03 64.2099 401.73 63.2399 401.51 62.5299C401.37 62.1532 401.263 61.7651 401.19 61.3699C401.39 61.718 401.551 62.0868 401.67 62.4699C402.012 63.377 402.306 64.3016 402.55 65.2399C402.808 66.1753 403.018 67.1232 403.18 68.0799C403.267 68.4708 403.314 68.8695 403.32 69.2699Z" fill="#006DB7"/>
<path d="M414.94 61C413.76 60.1289 412.628 59.1942 411.55 58.2C410.424 57.2548 409.346 56.2536 408.32 55.2C409.502 56.0681 410.634 57.003 411.71 58C412.842 58.9388 413.92 59.9404 414.94 61Z" fill="#006DB7"/>
<path d="M419.4 49.6799C418.932 49.6574 418.467 49.5938 418.01 49.4899C417.16 49.3399 416.01 49.1599 414.69 49.0099C413.37 48.8599 412.2 48.7699 411.34 48.7199C410.891 48.7176 410.443 48.6775 410 48.5999C410.462 48.5549 410.928 48.5549 411.39 48.5999C412.26 48.5999 413.45 48.6699 414.76 48.8199C415.879 48.9453 416.99 49.1288 418.09 49.3699C418.535 49.4322 418.974 49.5359 419.4 49.6799Z" fill="#006DB7"/>
<path d="M419.41 38.5399C419.41 38.5999 416.94 39.2599 413.87 40.0099C410.8 40.7599 408.28 41.3099 408.27 41.2499C408.26 41.1899 410.73 40.5199 413.81 39.7699C416.89 39.0199 419.39 38.4699 419.41 38.5399Z" fill="#006DB7"/>
<path d="M406.46 25.5498C406.51 25.5498 405.32 27.4798 403.8 29.7798C402.936 31.1894 402.002 32.5545 401 33.8698C400.95 33.8698 402.13 31.9398 403.65 29.6398C404.515 28.2286 405.453 26.8634 406.46 25.5498Z" fill="#006DB7"/>
<path d="M393.6 22.8298C393.64 23.3557 393.64 23.8839 393.6 24.4098C393.6 25.4098 393.6 26.7198 393.6 28.1998C393.6 29.6798 393.6 31.0198 393.6 31.9898C393.64 32.5124 393.64 33.0372 393.6 33.5598C393.51 33.0411 393.46 32.5162 393.45 31.9898C393.39 30.9898 393.34 29.6798 393.34 28.1998C393.34 26.7198 393.34 25.3698 393.44 24.3998C393.454 23.8732 393.507 23.3484 393.6 22.8298Z" fill="#006DB7"/>
<path d="M383.87 35C383.81 35 382.6 33.16 381.17 30.81C379.74 28.46 378.62 26.54 378.68 26.51C379.649 27.8574 380.55 29.2524 381.38 30.69C382.81 33 383.92 34.92 383.87 35Z" fill="#006DB7"/>
<path d="M378.05 39.9C377.637 39.876 377.229 39.809 376.83 39.7C376.09 39.55 375.06 39.3 373.95 38.97C372.84 38.64 371.84 38.3 371.13 37.97C370.736 37.8455 370.357 37.6778 370 37.47C370.405 37.5512 370.803 37.6649 371.19 37.81C371.91 38.04 372.91 38.36 374.02 38.69C375.13 39.02 376.14 39.29 376.87 39.49C377.276 39.5857 377.672 39.7231 378.05 39.9Z" fill="#006DB7"/>
<path d="M375.51 48.7C374.302 48.9414 373.079 49.1018 371.85 49.18C370.63 49.3371 369.4 49.414 368.17 49.41C369.378 49.1701 370.601 49.0128 371.83 48.9398C373.05 48.7829 374.28 48.7029 375.51 48.7Z" fill="#006DB7"/>
<path d="M98.2299 50.9999C98.2299 50.9999 97.6699 50.8099 96.6399 50.5799C95.1786 50.2578 93.6715 50.2002 92.1899 50.4099C89.9898 50.6986 87.9129 51.5917 86.1899 52.9899C84.1044 54.7104 82.634 57.0617 81.9999 59.6899V59.7599L81.8799 60.2399L81.6999 59.7899C80.6676 57.2841 78.8999 55.1503 76.6299 53.6699C74.7781 52.4699 72.6513 51.7609 70.4499 51.6099C68.9552 51.4934 67.4515 51.6251 65.9999 51.9999C64.9999 52.2599 64.4399 52.4999 64.4299 52.4699L64.8199 52.2899C65.2022 52.1261 65.5968 51.9924 65.9999 51.8899C67.4501 51.4673 68.9617 51.2948 70.4699 51.3799C72.7169 51.4907 74.8972 52.1796 76.7999 53.3799C79.1376 54.8933 80.953 57.0893 81.9999 59.6699H81.6899V59.5899C82.337 56.8959 83.8513 54.4892 85.9999 52.7399C87.4784 51.5629 89.2086 50.743 91.0558 50.3441C92.9031 49.9452 94.8174 49.9779 96.6499 50.4399C97.0485 50.5341 97.4396 50.6578 97.8199 50.8099C97.964 50.8557 98.1018 50.9195 98.2299 50.9999Z" fill="#263238"/>
<path d="M127.68 60.7899C127.68 60.7899 127.37 60.6999 126.8 60.5799C125.999 60.4226 125.178 60.3989 124.37 60.5099C123.173 60.68 122.046 61.1745 121.11 61.9399C119.965 62.8727 119.157 64.1547 118.81 65.5899L118.69 66.0699L118.5 65.62C117.946 64.2548 116.986 63.0924 115.75 62.2899C114.744 61.626 113.583 61.2333 112.38 61.1499C111.568 61.0882 110.752 61.1523 109.96 61.3399C109.4 61.4799 109.1 61.5999 109.09 61.5799C109.154 61.5304 109.225 61.49 109.3 61.4599C109.44 61.3999 109.65 61.3099 109.93 61.2199C110.73 60.9795 111.566 60.878 112.4 60.9199C113.648 60.9788 114.859 61.3651 115.91 62.0399C117.211 62.8636 118.221 64.0734 118.8 65.4999H118.5C118.862 63.9939 119.713 62.6504 120.92 61.6799C121.903 60.8949 123.089 60.4059 124.34 60.2699C125.173 60.172 126.018 60.2296 126.83 60.4399C127.048 60.4987 127.262 60.5722 127.47 60.6599C127.62 60.7399 127.69 60.7799 127.68 60.7899Z" fill="#263238"/>
<path d="M111.29 11.31C111.29 11.31 110.98 11.66 110.43 12.31C107.089 16.1231 105.248 21.0204 105.25 26.09V26.23H104.92C104.607 24.1511 103.93 22.1437 102.92 20.3C102.115 18.792 101.105 17.4023 99.92 16.17C99.1074 15.3434 98.2203 14.5936 97.27 13.93C96.6 13.46 96.21 13.23 96.27 13.2C96.3772 13.2341 96.4784 13.2847 96.57 13.35C96.8525 13.4938 97.1263 13.6541 97.39 13.83C98.3328 14.4609 99.2075 15.1882 100 16C101.241 17.2235 102.302 18.6175 103.15 20.14C104.186 22.0023 104.884 24.0338 105.21 26.14H104.89V26C104.894 22.0958 106.026 18.276 108.15 15C108.79 14.0088 109.523 13.0813 110.34 12.23C110.62 11.92 110.87 11.71 111.03 11.56C111.19 11.41 111.28 11.3 111.29 11.31Z" fill="#263238"/>
<path d="M40.78 215.78C47.2638 215.78 52.52 210.524 52.52 204.04C52.52 197.556 47.2638 192.3 40.78 192.3C34.2962 192.3 29.04 197.556 29.04 204.04C29.04 210.524 34.2962 215.78 40.78 215.78Z" fill="#E0E0E0"/>
<path d="M52.5199 204C52.429 203.044 52.2753 202.096 52.0599 201.16C51.3797 198.623 49.8693 196.388 47.7699 194.81C46.2306 193.652 44.4257 192.897 42.5198 192.616C40.614 192.335 38.6681 192.536 36.8599 193.2C35.8294 193.586 34.8647 194.129 33.9999 194.81C33.0656 195.486 32.2482 196.31 31.5799 197.25C30.1309 199.217 29.3493 201.597 29.3493 204.04C29.3493 206.483 30.1309 208.863 31.5799 210.83C32.922 212.661 34.7768 214.053 36.9099 214.83C38.7181 215.494 40.664 215.695 42.5698 215.414C44.4757 215.133 46.2806 214.378 47.8199 213.22C49.9193 211.642 51.4297 209.407 52.1099 206.87C52.3253 205.934 52.479 204.986 52.5699 204.03C52.5981 204.279 52.5981 204.531 52.5699 204.78C52.5724 205.085 52.549 205.389 52.4999 205.69C52.4577 206.105 52.3842 206.516 52.2799 206.92C51.6616 209.55 50.1486 211.883 47.9999 213.52C46.5339 214.658 44.8213 215.435 42.9999 215.79C40.897 216.191 38.7253 216.021 36.7099 215.3C35.6315 214.915 34.6194 214.365 33.7099 213.67C32.729 212.969 31.8708 212.111 31.1699 211.13C29.65 209.079 28.8296 206.593 28.8296 204.04C28.8296 201.487 29.65 199.001 31.1699 196.95C31.8708 195.969 32.729 195.111 33.7099 194.41C34.6194 193.715 35.6315 193.165 36.7099 192.78C38.7253 192.059 40.897 191.889 42.9999 192.29C44.8213 192.645 46.5339 193.422 47.9999 194.56C50.1355 196.2 51.6373 198.528 52.2499 201.15C52.3542 201.554 52.4277 201.965 52.4699 202.38C52.519 202.681 52.5424 202.985 52.5399 203.29C52.5585 203.527 52.5518 203.765 52.5199 204Z" fill="#263238"/>
<path d="M51.2998 199.2C51.1366 199.474 50.9345 199.724 50.6998 199.94C50.0783 200.561 49.4096 201.133 48.6998 201.65C46.3946 203.382 43.7229 204.562 40.8901 205.1C38.0574 205.637 35.1391 205.517 32.3598 204.75C31.5243 204.522 30.7083 204.228 29.9198 203.87C29.6177 203.763 29.3367 203.604 29.0898 203.4C29.0898 203.31 30.3498 203.9 32.4498 204.4C35.1775 205.056 38.0131 205.128 40.7706 204.611C43.528 204.094 46.145 203 48.4498 201.4C50.3098 200.13 51.2298 199.14 51.2998 199.2Z" fill="#263238"/>
<path d="M52.32 202.61C52.1497 202.888 51.9371 203.138 51.69 203.35C51.0694 203.978 50.4007 204.556 49.69 205.08C47.2989 206.807 44.5528 207.978 41.6518 208.509C38.7507 209.04 35.7676 208.918 32.92 208.15C32.0605 207.926 31.221 207.632 30.41 207.27C30.1018 207.161 29.8118 207.006 29.55 206.81C29.55 206.72 30.84 207.31 33 207.81C35.811 208.45 38.7223 208.518 41.5602 208.01C44.3913 207.485 47.0858 206.39 49.48 204.79C51.29 203.55 52.26 202.54 52.32 202.61Z" fill="#263238"/>
<path d="M376.42 369.08L405.52 361.21C405.52 361.21 423.29 388.15 428.81 387.21L415.58 330.21L369.74 340.6L376.42 369.08Z" fill="#263238"/>
<path d="M399 344.17C399.039 343.583 399.293 343.031 399.714 342.619C400.134 342.208 400.692 341.966 401.28 341.94C401.868 341.958 402.426 342.2 402.841 342.616C403.255 343.033 403.495 343.592 403.51 344.18C403.468 344.803 403.196 345.389 402.747 345.823C402.299 346.257 401.704 346.509 401.08 346.53C400.469 346.447 399.913 346.132 399.529 345.649C399.145 345.166 398.963 344.554 399.02 343.94" fill="#E0E0E0"/>
<path d="M415.58 330.24L411 331.47L425.4 385.64C425.4 385.64 427.09 387.92 428.81 387.22L415.58 330.24Z" fill="#455A64"/>
<path d="M405.44 362.2C405.72 362.13 405.52 360.71 406.1 359.13C406.68 357.55 407.68 356.55 407.51 356.32C407.34 356.09 405.83 356.88 405.16 358.8C404.49 360.72 405.2 362.32 405.44 362.2Z" fill="white"/>
<path d="M409.3 367.6C409.59 367.6 409.78 366.29 410.74 365.07C411.7 363.85 412.88 363.29 412.8 363.02C412.72 362.75 411.11 362.93 409.95 364.47C408.79 366.01 409 367.66 409.3 367.6Z" fill="white"/>
<path d="M417.24 369.34C417.24 369.07 415.76 369.01 414.41 370.07C413.06 371.13 412.74 372.58 413 372.65C413.26 372.72 413.89 371.72 415 370.86C416.11 370 417.28 369.62 417.24 369.34Z" fill="white"/>
<path d="M398.61 363.26C398.84 363.08 398.16 361.89 397.9 360.26C397.64 358.63 397.9 357.32 397.58 357.26C397.26 357.2 396.58 358.58 396.92 360.46C397.26 362.34 398.43 363.44 398.61 363.26Z" fill="white"/>
<path d="M256.42 273.39C256.42 274.33 264.56 320.15 268.42 332.69C272.28 345.23 277.65 367.91 287.24 373.92C296.83 379.93 389.38 361.54 389.38 361.54L385.7 334.87L314.7 336.48L312.07 300.2L314.39 293.03C314.39 293.03 321.53 269.33 321.64 261.23C321.75 253.13 282.07 258.15 282.07 258.15L256.42 273.39Z" fill="#263238"/>
<path d="M288.21 292.19C288.21 292.33 282.68 292.81 275.84 293.25C269 293.69 263.45 293.94 263.44 293.79C263.43 293.64 268.97 293.17 275.81 292.73C282.65 292.29 288.2 292 288.21 292.19Z" fill="#455A64"/>
<path d="M312.82 162.79C312.82 162.79 324.93 175.54 329.5 180.84C334.07 186.14 334.5 201.55 329.21 205.08C323.92 208.61 303.69 199.15 303.69 199.15L292 178.44L312.82 162.79Z" fill="#FFBF9D"/>
<path d="M316.31 204C315.845 203.96 315.386 203.869 314.94 203.73C314.406 203.613 313.878 203.466 313.36 203.29L312.36 202.97L311.29 202.55C309.52 201.847 307.878 200.857 306.43 199.62C304.662 198.051 303.41 195.984 302.84 193.69C302.493 192.53 302.269 191.337 302.17 190.13C302.08 188.97 302.06 187.86 301.99 186.81C301.936 184.953 301.508 183.127 300.73 181.44C299.955 179.895 298.942 178.482 297.73 177.25C298.131 177.498 298.491 177.804 298.8 178.16C299.699 179.077 300.448 180.13 301.02 181.28C301.866 182.992 302.347 184.862 302.43 186.77C302.43 189.055 302.722 191.33 303.3 193.54C303.841 195.744 305.028 197.736 306.71 199.26C308.105 200.502 309.688 201.515 311.4 202.26C314.39 203.5 316.34 203.92 316.31 204Z" fill="#FF9A6C"/>
<path d="M328.87 184.45C328.78 184.56 323.78 180.45 317.7 175.18C311.62 169.91 306.78 165.62 306.87 165.51C306.96 165.4 311.97 169.51 318.04 174.78C324.11 180.05 329 184.34 328.87 184.45Z" fill="#FF9A6C"/>
<path d="M265.14 122.62C265.14 122.62 270.44 119.85 278.04 123.62C285.64 127.39 316.35 156.35 316.35 156.35L292.61 179.45L271.27 157.45L265.14 122.62Z" fill="#006DB7"/>
<path d="M212.99 133.4L209.52 143.88L197.59 152.4L211.67 196.78L251.19 248.07L319.94 232.44L311.94 213.81L280.84 158.56L265.14 122.62L252.14 125.93L240.68 122.34L212.99 133.4Z" fill="#006DB7"/>
<path d="M200.71 151.51C200.71 151.51 187.53 153.08 191.28 171.51C195.03 189.94 223.41 203.43 223.41 203.43L238.5 187.73L233.84 162.6L200.71 151.51Z" fill="#006DB7"/>
<path d="M228.06 161.29C227.112 161.066 226.186 160.762 225.29 160.38L218.72 157.9C216.16 156.9 213.82 156.12 212.12 155.55C211.184 155.283 210.268 154.949 209.38 154.55C210.35 154.665 211.306 154.883 212.23 155.2C213.96 155.68 216.33 156.45 218.9 157.41C221.47 158.37 223.77 159.33 225.42 160.04C226.335 160.378 227.219 160.796 228.06 161.29Z" fill="#263238"/>
<path d="M238.83 148.87C238.429 148.779 238.038 148.652 237.66 148.49L234.49 147.29L234.73 147.11C235.052 148.999 235.11 150.925 234.9 152.83V153.12L234.63 153.02L226.93 150.38C222.12 148.7 217.78 147.16 214.64 146.02L210.94 144.65C210.479 144.496 210.031 144.305 209.6 144.08C210.082 144.156 210.555 144.284 211.01 144.46L214.76 145.68C217.93 146.68 222.29 148.21 227.1 149.88L234.78 152.58L234.47 152.77C234.714 150.908 234.714 149.022 234.47 147.16V146.86L234.75 146.98L237.86 148.32C238.198 148.476 238.523 148.66 238.83 148.87Z" fill="#263238"/>
<path d="M249.82 127.29C249.933 127.699 250.006 128.117 250.04 128.54C250.14 129.34 250.27 130.54 250.36 131.96C250.586 135.743 250.509 139.539 250.13 143.31C250.03 144.31 249.9 145.31 249.77 146.31V146.62L249.47 146.51C246.889 145.567 244.428 144.322 242.14 142.8L242.43 142.65C242.338 143.86 241.997 145.038 241.43 146.11C241.255 146.512 241.011 146.881 240.71 147.2C240.71 147.2 240.92 146.78 241.25 146.02C241.711 144.947 241.968 143.797 242.01 142.63V142.31L242.28 142.49C244.587 143.921 247.037 145.108 249.59 146.03L249.24 146.24C249.37 145.24 249.49 144.3 249.59 143.24C249.967 139.506 250.104 135.752 250 132C250 130.55 249.89 129.38 249.85 128.57C249.788 128.146 249.778 127.716 249.82 127.29Z" fill="#263238"/>
<path d="M293.14 190.89C293.131 191.067 293.097 191.242 293.04 191.41L292.66 192.87C292.49 193.51 292.27 194.28 291.96 195.16C291.65 196.04 291.35 197.06 290.89 198.16C290.43 199.26 289.99 200.45 289.39 201.7C288.79 202.95 288.15 204.27 287.39 205.65C285.769 208.609 283.944 211.453 281.93 214.16C279.884 216.846 277.652 219.386 275.25 221.76C274.12 222.82 273.06 223.85 271.99 224.76C270.92 225.67 269.99 226.47 268.99 227.18C267.99 227.89 267.18 228.49 266.42 229.03C265.66 229.57 264.97 230.03 264.42 230.33L263.12 231.1C262.972 231.196 262.815 231.277 262.65 231.34C262.65 231.34 262.78 231.21 263.06 231.01L264.31 230.16C264.86 229.8 265.52 229.35 266.26 228.79C267 228.23 267.88 227.64 268.78 226.89C269.68 226.14 270.69 225.36 271.71 224.44C272.73 223.52 273.8 222.51 274.92 221.44C279.673 216.703 283.73 211.316 286.97 205.44C287.69 204.08 288.4 202.79 288.97 201.54C289.54 200.29 290.07 199.12 290.52 198.04C290.97 196.96 291.32 195.97 291.65 195.1C291.98 194.23 292.24 193.47 292.43 192.84L292.91 191.41C292.962 191.227 293.039 191.051 293.14 190.89Z" fill="#263238"/>
<path d="M282.65 193.08C282.622 193.237 282.579 193.391 282.52 193.54C282.39 193.89 282.24 194.32 282.06 194.84C281.66 195.97 281.01 197.57 280.14 199.53C275.612 209.76 269.418 219.168 261.81 227.37C260.35 228.93 259.13 230.16 258.26 230.98L257.26 231.91C257.148 232.027 257.024 232.131 256.89 232.22C256.89 232.22 256.98 232.07 257.19 231.84L258.13 230.84C258.96 229.98 260.13 228.71 261.56 227.12C268.972 218.815 275.127 209.469 279.83 199.38C280.73 197.45 281.43 195.87 281.89 194.76L282.44 193.5C282.55 193.22 282.63 193.07 282.65 193.08Z" fill="#263238"/>
<path d="M278 152.33C278.245 152.677 278.453 153.049 278.62 153.44L280.15 156.54C281.45 159.16 283.28 162.76 285.41 166.67C287.54 170.58 289.59 174.05 291.09 176.56C291.8 177.74 292.4 178.73 292.87 179.56C293.113 179.909 293.314 180.285 293.47 180.68C293.179 180.374 292.921 180.039 292.7 179.68C292.23 179.01 291.57 178.02 290.78 176.79C289.19 174.33 287.1 170.87 284.95 166.95C282.8 163.03 281.04 159.4 279.82 156.74C279.21 155.41 278.74 154.32 278.43 153.57C278.243 153.173 278.099 152.757 278 152.33Z" fill="#263238"/>
<path d="M221 165.86C221.355 165.631 221.755 165.482 222.173 165.424C222.59 165.365 223.016 165.398 223.42 165.52C223.42 165.52 230.6 157.75 244.99 151.67C259.38 145.59 273.9 135.58 273.9 135.58L280.08 146.83C280.08 146.83 258.9 173.12 251.61 177.57C244.32 182.02 231.24 191 224.3 191.51C217.36 192.02 214.41 191.39 214.41 191.39C214.41 191.39 210.97 182.94 214.61 175.16C216.49 171.41 218.34 167.62 221 165.86Z" fill="#FFBF9D"/>
<path d="M223.44 165.52C223.017 165.498 222.593 165.535 222.18 165.63C221.086 166.032 220.122 166.723 219.39 167.63C216.968 170.612 215.138 174.03 214 177.7C213.397 179.725 213.087 181.827 213.08 183.94C213.083 185.669 213.312 187.39 213.76 189.06C214.223 190.586 214.825 192.065 215.56 193.48C215.56 193.48 215.47 193.4 215.34 193.22C215.145 192.962 214.968 192.692 214.81 192.41C214.22 191.383 213.747 190.293 213.4 189.16C212.897 187.468 212.628 185.715 212.6 183.95C212.579 181.787 212.882 179.633 213.5 177.56C214.114 175.493 214.97 173.506 216.05 171.64C216.896 170.102 217.901 168.657 219.05 167.33C219.849 166.426 220.89 165.77 222.05 165.44C222.38 165.374 222.72 165.374 223.05 165.44C223.184 165.44 223.317 165.467 223.44 165.52Z" fill="#263238"/>
<path d="M256.91 369.41C256.91 369.41 283.62 381.24 291.28 380.72C291.28 380.72 292.48 385.42 298.99 381.89C298.99 381.89 303.17 388.95 308.14 383.16C308.14 383.16 311.74 385.46 315.8 380.24L406.53 370.87C408.002 370.721 409.356 369.994 410.293 368.849C411.23 367.703 411.675 366.233 411.53 364.76C411.384 363.348 410.704 362.044 409.63 361.115C408.556 360.186 407.169 359.702 405.75 359.76C384.16 360.63 303.17 363.76 294.75 362.1C285.03 360.17 264.57 363.87 260.15 365.51C260.14 365.48 254.8 367 256.91 369.41Z" fill="#E0E0E0"/>
<path d="M256.91 369.41L256.69 369.12C256.575 368.967 256.491 368.793 256.445 368.608C256.398 368.422 256.39 368.229 256.42 368.04C256.62 367.416 257.048 366.891 257.62 366.57C258.396 366.07 259.237 365.68 260.12 365.41C262.932 364.541 265.803 363.872 268.71 363.41C272.26 362.77 276.47 362.12 281.29 361.72C283.7 361.51 286.29 361.4 288.97 361.43C290.33 361.43 291.71 361.53 293.13 361.69C294.55 361.85 295.97 362.09 297.43 362.21C303.34 362.49 309.78 362.41 316.67 362.32C330.44 362.13 346.01 361.66 362.84 361.1L388.97 360.16L402.63 359.63C403.79 359.63 404.92 359.52 406.11 359.51C407.338 359.537 408.525 359.954 409.5 360.7C410.229 361.256 410.817 361.976 411.217 362.801C411.616 363.626 411.817 364.534 411.801 365.45C411.785 366.367 411.555 367.267 411.127 368.079C410.7 368.89 410.087 369.589 409.34 370.12C408.853 370.465 408.317 370.735 407.75 370.92C407.186 371.086 406.606 371.19 406.02 371.23L399.28 371.92L386 373.25L360.65 375.85L315.79 380.45L315.94 380.37C315.014 381.633 313.805 382.66 312.41 383.37C311.724 383.707 310.97 383.882 310.205 383.882C309.44 383.882 308.686 383.707 308 383.37H308.26C307.9 383.72 307.57 384.1 307.19 384.37C306.809 384.691 306.389 384.963 305.94 385.18C305.05 385.651 304.017 385.776 303.04 385.53C302.119 385.263 301.276 384.78 300.58 384.12C299.892 383.505 299.295 382.795 298.81 382.01L299.05 382.08C297.677 382.915 296.106 383.367 294.5 383.39C293.721 383.371 292.968 383.105 292.35 382.63C291.747 382.165 291.306 381.521 291.09 380.79L291.26 380.92C289.848 380.913 288.44 380.758 287.06 380.46L285.06 380.02L283.18 379.5C280.71 378.8 278.42 378.04 276.31 377.3C272.08 375.8 268.52 374.39 265.64 373.22C262.76 372.05 260.56 371.1 259.09 370.45L257.41 369.71L256.85 369.44L257.43 369.67L259.12 370.37C260.61 370.99 262.82 371.91 265.71 373.06C268.6 374.21 272.16 375.59 276.39 377.06C278.51 377.79 280.79 378.54 283.25 379.22L285.13 379.73L287.13 380.16C288.481 380.45 289.859 380.595 291.24 380.59H291.38V380.71C291.587 381.379 292 381.966 292.56 382.386C293.121 382.807 293.8 383.039 294.5 383.05C296.04 383.011 297.543 382.569 298.86 381.77L299 381.69L299.1 381.83C299.991 383.384 301.411 384.565 303.1 385.16C303.986 385.385 304.924 385.271 305.73 384.84C306.19 384.62 306.618 384.338 307 384C307.36 383.7 307.67 383.33 308 383L308.12 382.89L308.25 382.97C308.874 383.271 309.557 383.428 310.25 383.428C310.943 383.428 311.626 383.271 312.25 382.97C313.582 382.289 314.736 381.306 315.62 380.1L315.67 380.03H315.76L360.6 375.36L386 372.74L399.25 371.37L405.99 370.67C406.539 370.635 407.082 370.541 407.61 370.39C408.127 370.22 408.616 369.974 409.06 369.66C409.973 369.013 410.659 368.095 411.02 367.036C411.381 365.976 411.399 364.83 411.072 363.76C410.744 362.69 410.087 361.751 409.194 361.076C408.302 360.401 407.219 360.024 406.1 360C404.98 360 403.79 360.08 402.65 360.12L388.99 360.65L362.85 361.57C346.02 362.1 330.45 362.57 316.67 362.7C309.78 362.77 303.34 362.83 297.41 362.53C295.92 362.41 294.41 362.23 293.08 362C291.716 361.834 290.344 361.74 288.97 361.72C286.28 361.72 283.72 361.78 281.32 361.98C276.5 362.35 272.32 362.98 268.74 363.59C265.841 364.061 262.978 364.729 260.17 365.59C258.17 366.21 256.73 367.1 256.5 368.11C256.445 368.46 256.528 368.819 256.73 369.11C256.85 369.3 256.91 369.41 256.91 369.41Z" fill="#263238"/>
<path d="M347.16 362.15L347.77 333.68L356.1 333.72L357.25 361.45L347.16 362.15Z" fill="#E0E0E0"/>
<path d="M379.39 333.64L382.98 361.57L394.06 360.44L387.69 333.55L379.39 333.64Z" fill="#E0E0E0"/>
<path d="M314.71 335.9L291.57 363.81L308.93 369.63L309.06 368.29L318.49 335.35L314.71 335.9Z" fill="#E0E0E0"/>
<path d="M292.5 362.19C292.466 363.12 292.363 364.046 292.19 364.96C291.97 366.67 291.71 369.03 291.57 371.64C291.43 374.25 291.47 376.64 291.52 378.35C291.585 379.279 291.585 380.211 291.52 381.14C291.28 380.235 291.146 379.306 291.12 378.37C290.938 376.125 290.905 373.87 291.02 371.62C291.136 369.369 291.396 367.128 291.8 364.91C291.93 363.98 292.165 363.067 292.5 362.19Z" fill="#263238"/>
<path d="M300.17 361.82C300.186 362.823 300.126 363.826 299.99 364.82C299.83 366.66 299.63 369.2 299.5 372.01C299.37 374.82 299.32 377.37 299.3 379.22C299.345 380.221 299.308 381.225 299.19 382.22C299.014 381.23 298.927 380.226 298.93 379.22C298.86 377.37 298.85 374.81 298.98 371.98C299.11 369.15 299.37 366.61 299.62 364.78C299.701 363.777 299.885 362.785 300.17 361.82Z" fill="#263238"/>
<path d="M307.59 362.91C307.684 363.884 307.704 364.863 307.65 365.84C307.65 367.65 307.65 370.14 307.75 372.89C307.85 375.64 308.06 378.12 308.21 379.89C308.339 380.858 308.399 381.834 308.39 382.81C308.106 381.872 307.921 380.907 307.84 379.93C307.59 378.14 307.35 375.64 307.23 372.93C307.11 370.22 307.17 367.66 307.23 365.85C307.246 364.86 307.367 363.875 307.59 362.91Z" fill="#263238"/>
<path d="M315.18 362C315.273 362.897 315.29 363.8 315.23 364.7C315.23 366.37 315.23 368.7 315.31 371.21C315.39 373.72 315.58 376.04 315.72 377.7C315.844 378.594 315.898 379.497 315.88 380.4C315.604 379.536 315.427 378.644 315.35 377.74C315.055 375.581 314.868 373.408 314.79 371.23C314.702 369.05 314.726 366.867 314.86 364.69C314.866 363.784 314.973 362.882 315.18 362Z" fill="#263238"/>
<path d="M404.34 359.43H404.05H403.2L399.91 359.6L387.84 360.11L348 361.69L326.05 362.45C322.68 362.56 319.47 362.73 316.47 362.59C313.47 362.45 310.67 362.34 308.12 362.21C303.03 361.93 298.91 361.8 296.05 361.79C294.63 361.79 293.52 361.79 292.77 361.79H291.92C291.821 361.805 291.719 361.805 291.62 361.79H291.91L292.77 361.73C293.52 361.73 294.62 361.64 296.05 361.61C298.91 361.55 303.05 361.61 308.14 361.86C310.69 361.96 313.48 362.1 316.48 362.17C319.48 362.24 322.67 362.11 326.04 361.99L347.98 361.19L387.84 359.85L399.92 359.5L403.2 359.44H404.06C404.152 359.423 404.247 359.419 404.34 359.43Z" fill="#263238"/>
<path d="M404 364.38C404 364.52 384.23 366.58 359.82 368.98C335.41 371.38 315.6 373.22 315.58 373.07C315.56 372.92 335.35 370.87 359.77 368.47C384.19 366.07 404 364.23 404 364.38Z" fill="#263238"/>
<path d="M405.21 368.3C405.21 368.44 385.33 370.62 360.78 373.15C336.23 375.68 316.3 377.63 316.29 377.49C316.28 377.35 336.17 375.17 360.73 372.64C385.29 370.11 405.2 368.16 405.21 368.3Z" fill="#263238"/>
<path d="M164.5 339.56L164.88 369.71C164.88 369.71 134.36 380.22 133.88 385.79L192.35 387.16L193.69 340.16L164.5 339.56Z" fill="#263238"/>
<path d="M183 367.6C183.559 367.782 184.031 368.165 184.325 368.675C184.618 369.184 184.713 369.785 184.59 370.36C184.426 370.923 184.053 371.403 183.548 371.7C183.042 371.997 182.442 372.09 181.87 371.96C181.278 371.762 180.78 371.353 180.472 370.81C180.163 370.267 180.067 369.63 180.2 369.02C180.432 368.454 180.873 367.998 181.431 367.747C181.989 367.496 182.622 367.468 183.2 367.67" fill="#E0E0E0"/>
<path d="M192.36 387.16L192.31 382.42L136.31 382.88C136.31 382.88 133.68 383.95 133.93 385.79L192.36 387.16Z" fill="#455A64"/>
<path d="M163.93 369.39C163.93 369.67 165.36 369.84 166.75 370.79C168.14 371.74 168.85 372.96 169.11 372.85C169.37 372.74 168.99 371.08 167.3 369.96C165.61 368.84 163.88 369.12 163.93 369.39Z" fill="white"/>
<path d="M157.74 371.78C157.67 372.06 158.9 372.57 159.84 373.78C160.78 374.99 161.03 376.3 161.31 376.29C161.59 376.28 161.82 374.67 160.62 373.17C159.42 371.67 157.75 371.51 157.74 371.78Z" fill="white"/>
<path d="M154.09 379C154.35 379.07 154.78 377.65 154.09 376.07C153.4 374.49 152.09 373.84 151.95 374.07C151.81 374.3 152.63 375.16 153.18 376.47C153.73 377.78 153.8 379 154.09 379Z" fill="white"/>
<path d="M164.61 362.51C164.72 362.77 166.04 362.41 167.61 362.56C169.18 362.71 170.47 363.24 170.61 363C170.75 362.76 169.61 361.71 167.67 361.56C165.73 361.41 164.48 362.28 164.61 362.51Z" fill="white"/>
<path d="M285.43 229.84C285.43 229.84 194.54 238.89 186.71 241.26C178.88 243.63 171.71 257.9 168.37 264.83C165.03 271.76 159.76 364.83 159.76 364.83L193 366.76C193 366.76 198.65 309.33 200 299.92C201.35 290.51 200.25 278.71 200.25 278.71C200.25 278.71 291.57 289.02 300.25 288.18C308.93 287.34 319.1 277.62 322 267.92C325.69 255.44 316.91 232.92 316.91 232.92C316.91 232.92 309.91 229.48 304.3 229.14C298.002 228.836 291.689 229.07 285.43 229.84Z" fill="#263238"/>
<path d="M283.46 257.74H283.2L282.44 257.81L279.53 258.02C276.99 258.19 273.32 258.41 268.78 258.65C259.7 259.12 247.16 259.65 233.29 259.88C219.42 260.11 206.86 260.11 197.77 259.97C193.23 259.9 189.55 259.82 187.01 259.74L184.09 259.64H183.33H183.07C183.156 259.625 183.244 259.625 183.33 259.64H187L197.76 259.7C206.84 259.7 219.4 259.7 233.26 259.46C247.12 259.22 259.67 258.76 268.74 258.38L279.49 257.92L282.42 257.8H283.42L283.46 257.74Z" fill="#455A64"/>
<path d="M173.26 217.75C173.26 217.75 158.57 242.99 158.26 250.66C158.26 250.66 153.46 251.34 156.26 258.2C156.26 258.2 148.79 261.57 154 267.15C154 267.15 151.32 270.48 156.06 275.09V367.09C156.06 368.561 156.639 369.972 157.672 371.018C158.706 372.065 160.11 372.662 161.58 372.68C163.014 372.698 164.401 372.164 165.452 371.189C166.504 370.214 167.14 368.872 167.23 367.44C168.59 345.73 173.83 264.37 176.42 256.19C179.42 246.73 177.99 225.99 176.85 221.42C176.82 221.39 175.86 215.91 173.26 217.75Z" fill="#E0E0E0"/>
<path d="M173.26 217.75L173.57 217.56C173.733 217.461 173.915 217.397 174.104 217.371C174.294 217.346 174.486 217.359 174.67 217.41C175.275 217.674 175.755 218.161 176.01 218.77C176.419 219.596 176.712 220.474 176.88 221.38C177.45 224.281 177.814 227.218 177.97 230.17C178.21 233.78 178.4 238.06 178.26 242.91C178.2 245.485 178.009 248.055 177.69 250.61C177.518 251.992 177.27 253.364 176.95 254.72C176.56 256.11 176.25 257.51 175.95 258.97C175.05 264.84 174.46 271.28 173.83 278.17C172.59 291.95 171.45 307.55 170.26 324.43C169.69 332.87 169.1 341.63 168.49 350.64C168.203 355.14 167.91 359.707 167.61 364.34C167.53 365.5 167.49 366.64 167.37 367.83C167.216 369.055 166.673 370.197 165.82 371.09C165.184 371.759 164.399 372.267 163.529 372.574C162.659 372.882 161.729 372.979 160.814 372.858C159.9 372.737 159.027 372.402 158.266 371.879C157.506 371.356 156.88 370.661 156.44 369.85C156.153 369.32 155.947 368.751 155.83 368.16C155.738 367.578 155.704 366.989 155.73 366.4V346.15C155.73 337.33 155.73 328.74 155.73 320.47C155.73 303.93 155.73 288.63 155.73 275.09L155.79 275.24C154.645 274.183 153.764 272.871 153.22 271.41C152.958 270.691 152.868 269.921 152.954 269.161C153.041 268.401 153.303 267.671 153.72 267.03V267.29C153.41 266.89 153.07 266.52 152.8 266.11C152.52 265.692 152.292 265.242 152.12 264.77C151.765 263.832 151.765 262.798 152.12 261.86C152.492 260.975 153.064 260.188 153.79 259.56C154.481 258.952 155.251 258.44 156.08 258.04L155.99 258.27C155.311 256.813 155.035 255.2 155.19 253.6C155.294 252.831 155.642 252.115 156.181 251.558C156.721 251 157.425 250.629 158.19 250.5L158.05 250.65C158.211 249.248 158.52 247.867 158.97 246.53C159.19 245.89 159.41 245.25 159.62 244.62C159.83 243.99 160.11 243.4 160.34 242.81C161.34 240.43 162.34 238.24 163.29 236.22C165.24 232.22 167.04 228.8 168.52 226.07C170 223.34 171.18 221.26 171.99 219.86L172.91 218.28C173.12 217.93 173.24 217.75 173.24 217.75C173.24 217.75 173.15 217.94 172.95 218.3L172.07 219.9C171.29 221.32 170.13 223.41 168.67 226.15C167.21 228.89 165.45 232.29 163.52 236.33C162.52 238.33 161.57 240.54 160.61 242.91C160.38 243.51 160.14 244.11 159.9 244.73L159.26 246.62C158.821 247.934 158.526 249.292 158.38 250.67V250.8H158.26C157.574 250.934 156.947 251.281 156.468 251.79C155.989 252.3 155.682 252.947 155.59 253.64C155.458 255.174 155.734 256.717 156.39 258.11L156.45 258.26L156.3 258.34C154.657 259.064 153.327 260.352 152.55 261.97C152.21 262.824 152.21 263.776 152.55 264.63C152.709 265.067 152.921 265.483 153.18 265.87C153.44 266.27 153.77 266.62 154.07 267L154.17 267.13L154.08 267.26C153.709 267.85 153.477 268.517 153.402 269.21C153.328 269.903 153.412 270.605 153.65 271.26C154.177 272.658 155.027 273.912 156.13 274.92L156.2 274.98V275.07C156.2 288.61 156.2 303.91 156.2 320.45C156.2 328.72 156.2 337.31 156.2 346.13C156.2 350.55 156.2 355.023 156.2 359.55V366.38C156.179 366.935 156.209 367.491 156.29 368.04C156.401 368.576 156.586 369.095 156.84 369.58C157.241 370.319 157.811 370.953 158.504 371.43C159.197 371.907 159.993 372.213 160.827 372.323C161.661 372.434 162.509 372.345 163.302 372.064C164.095 371.784 164.811 371.32 165.39 370.71C166.175 369.89 166.674 368.837 166.81 367.71C166.92 366.58 166.97 365.39 167.05 364.25C167.343 359.623 167.637 355.053 167.93 350.54C168.55 341.54 169.14 332.77 169.72 324.33C170.93 307.46 172.1 291.86 173.37 278.07C174.02 271.18 174.63 264.74 175.55 258.85C175.82 257.38 176.15 255.93 176.55 254.58C176.879 253.239 177.13 251.88 177.3 250.51C177.629 247.965 177.829 245.405 177.9 242.84C178.06 238 177.9 233.73 177.69 230.12C177.553 227.178 177.219 224.248 176.69 221.35C176.29 219.35 175.57 217.77 174.59 217.43C174.415 217.375 174.231 217.356 174.049 217.375C173.866 217.394 173.69 217.45 173.53 217.54L173.26 217.75Z" fill="#263238"/>
<path d="M170.55 308.25L198.78 311.99L197.82 320.26L170.13 318.36L170.55 308.25Z" fill="#E0E0E0"/>
<path d="M195.34 343.42L167.19 343.92L167.09 355.06L194.51 351.68L195.34 343.42Z" fill="#E0E0E0"/>
<path d="M200.21 278.88L175.01 252.81L167.32 269.43L167.86 273.43L200.59 286.85L200.21 278.88Z" fill="#E0E0E0"/>
<path d="M176.52 253.92C175.6 253.776 174.691 253.569 173.8 253.3C172.13 252.89 169.8 252.38 167.23 251.95C164.66 251.52 162.28 251.3 160.57 251.16C159.638 251.138 158.708 251.044 157.79 250.88C158.718 250.751 159.656 250.721 160.59 250.79C162.841 250.864 165.086 251.081 167.31 251.44C169.539 251.812 171.741 252.333 173.9 253C174.807 253.201 175.686 253.51 176.52 253.92Z" fill="#263238"/>
<path d="M176.05 261.58C175.038 261.487 174.035 261.316 173.05 261.07C171.24 260.71 168.73 260.24 165.95 259.79C163.17 259.34 160.64 259.03 158.81 258.79C157.801 258.722 156.798 258.578 155.81 258.36C156.81 258.284 157.815 258.307 158.81 258.43C160.65 258.56 163.2 258.83 165.99 259.27C168.78 259.71 171.29 260.27 173.09 260.7C174.105 260.888 175.097 261.183 176.05 261.58Z" fill="#263238"/>
<path d="M174.14 268.84C173.161 268.822 172.185 268.732 171.22 268.57C169.43 268.36 166.95 268.1 164.22 267.9C161.49 267.7 158.98 267.62 157.22 267.58C156.241 267.6 155.262 267.553 154.29 267.44C155.256 267.261 156.238 267.184 157.22 267.21C159.03 267.21 161.54 267.21 164.3 267.38C167.06 267.55 169.54 267.9 171.3 268.2C172.266 268.317 173.217 268.532 174.14 268.84Z" fill="#263238"/>
<path d="M174.19 276.48C173.285 276.464 172.382 276.377 171.49 276.22C169.84 276.03 167.55 275.77 165.02 275.59C162.49 275.41 160.19 275.33 158.52 275.28C157.618 275.313 156.714 275.266 155.82 275.14C156.71 274.975 157.615 274.901 158.52 274.92C162.874 274.808 167.228 275.123 171.52 275.86C172.431 275.962 173.327 276.17 174.19 276.48Z" fill="#263238"/>
<path d="M167 365.38C166.987 365.284 166.987 365.186 167 365.09C167 364.87 167 364.59 167 364.23C167 363.45 167.12 362.35 167.2 360.95C167.4 358.07 167.68 353.95 168.02 348.89C168.76 338.68 169.79 324.64 170.92 309.12C171.51 301.35 172.07 293.96 172.58 287.23C172.84 283.87 173.02 280.66 173.5 277.68C173.98 274.7 174.39 271.95 174.8 269.43C175.63 264.43 176.22 260.32 176.53 257.48C176.7 256.07 176.81 254.96 176.87 254.22L176.96 253.37C176.961 253.271 176.978 253.173 177.01 253.08C177.017 253.177 177.017 253.273 177.01 253.37V254.22C177.01 254.97 176.9 256.08 176.77 257.5C176.51 260.35 175.98 264.45 175.19 269.5C174.81 272.02 174.37 274.78 173.96 277.75C173.55 280.72 173.34 283.91 173.09 287.28C172.59 294.01 172.04 301.41 171.47 309.18C170.28 324.68 169.2 338.72 168.42 348.93C168 353.99 167.67 358.1 167.42 360.98C167.3 362.37 167.2 363.47 167.13 364.25C167.13 364.6 167.06 364.88 167.04 365.1C167.04 365.195 167.027 365.289 167 365.38Z" fill="#263238"/>
<path d="M162.08 364.49C161.94 364.49 162.08 344.6 162.36 320.07C162.64 295.54 163.02 275.65 163.17 275.65C163.32 275.65 163.17 295.54 162.88 320.08C162.59 344.62 162.23 364.49 162.08 364.49Z" fill="#263238"/>
<path d="M158.05 365.27C157.9 365.27 157.93 345.27 158.11 320.57C158.29 295.87 158.55 275.88 158.7 275.88C158.85 275.88 158.81 295.88 158.63 320.58C158.45 345.28 158.19 365.27 158.05 365.27Z" fill="#263238"/>
<path d="M322.54 265.11C322.54 265.11 322.54 265.39 322.42 265.93C322.29 266.717 322.113 267.495 321.89 268.26C321.07 271.075 319.872 273.766 318.33 276.26C317.269 277.999 316.011 279.61 314.58 281.06C312.889 282.685 310.939 284.017 308.81 285C303.919 287.203 298.603 288.303 293.24 288.22C287.92 288.133 282.608 287.753 277.33 287.08L264.4 285.7L255.69 284.7L253.32 284.41C253.044 284.384 252.769 284.337 252.5 284.27C252.776 284.243 253.054 284.243 253.33 284.27L255.71 284.47L264.44 285.27L277.38 286.54C282.64 287.187 287.931 287.554 293.23 287.64C298.519 287.72 303.763 286.652 308.6 284.51C310.688 283.553 312.606 282.263 314.28 280.69C315.695 279.269 316.95 277.696 318.02 276C319.58 273.54 320.813 270.888 321.69 268.11C322 267.11 322.2 266.35 322.32 265.82C322.369 265.577 322.443 265.339 322.54 265.11Z" fill="#455A64"/>
<path d="M300.38 115.66C297.45 127.38 292.74 145.81 291.32 151.37C290.908 152.879 291.05 154.486 291.72 155.9C292.213 156.937 292.946 157.841 293.86 158.537C294.773 159.233 295.839 159.7 296.97 159.9C298.049 160.1 299.161 160.031 300.207 159.7C301.254 159.368 302.203 158.785 302.97 158C303.97 157 304.86 155.84 304.87 154.93C304.87 153.37 311.02 129.17 313.6 119.04C313.933 117.734 313.872 116.358 313.426 115.086C312.979 113.814 312.166 112.702 311.09 111.89C310.19 111.222 309.14 110.785 308.031 110.618C306.923 110.45 305.791 110.557 304.733 110.929C303.676 111.302 302.726 111.927 301.967 112.752C301.208 113.577 300.663 114.575 300.38 115.66Z" fill="#455A64"/>
<path d="M303.69 155.33C303.64 155.33 303.69 155.12 303.69 154.77C303.641 154.282 303.442 153.82 303.12 153.45C302.34 152.45 300.48 152.05 298.58 151.6C296.95 151.201 295.241 151.256 293.64 151.76C293 152.033 292.379 152.347 291.78 152.7C292.204 152.098 292.811 151.649 293.51 151.42C295.157 150.775 296.964 150.66 298.68 151.09C299.614 151.286 300.533 151.546 301.43 151.87C302.215 152.114 302.91 152.584 303.43 153.22C303.771 153.662 303.942 154.212 303.91 154.77C303.85 155.16 303.71 155.34 303.69 155.33Z" fill="#263238"/>
<path d="M318.19 141.63C317.981 140.067 317.497 138.554 316.76 137.16C316.714 135.17 316.185 133.221 315.22 131.48C313.89 129.21 307.43 123.55 300.91 123.09C300.115 123.034 299.318 123.152 298.573 123.436C297.829 123.72 297.155 124.163 296.6 124.734C296.045 125.306 295.621 125.992 295.358 126.744C295.096 127.496 295.001 128.297 295.08 129.09C295.08 129.09 295.08 129.18 295.08 129.22C295.08 129.26 289.45 130.1 289.4 134.14V135.77C289.4 135.77 285.7 140.57 291.08 141.85C291.08 141.85 289.83 148.53 294.86 148.95C298.013 149.208 301.181 149.248 304.34 149.07L305.62 151.38L305.14 153.76C305.14 153.76 304.14 157.91 301.45 159.12C297.74 160.82 296.13 160.21 294.76 162.35C294.047 163.483 293.656 164.789 293.628 166.128C293.6 167.466 293.936 168.788 294.6 169.95L297.2 174.74C297.78 178.59 299.11 180.12 299.11 180.12L314.11 173.42C314.292 173.337 314.452 173.21 314.573 173.051C314.695 172.892 314.776 172.706 314.809 172.508C314.841 172.31 314.825 172.108 314.76 171.918C314.696 171.728 314.586 171.557 314.44 171.42L311.81 169C311.81 169 313.43 168.32 314.81 165.07L315.73 162.83C317.001 160.738 317.977 158.48 318.63 156.12C319.13 153.24 318.7 144.61 318.19 141.63Z" fill="#E0E0E0"/>
<path d="M314.35 149.67C313.83 148.426 313.158 147.25 312.35 146.17C310.292 143.647 307.447 141.886 304.27 141.17C301.086 140.517 297.803 140.517 294.62 141.17C292.17 141.64 290.67 142.09 290.62 142.01C290.936 141.834 291.272 141.697 291.62 141.6C292.29 141.38 293.27 141.09 294.5 140.81C297.727 140.026 301.087 139.964 304.34 140.63C307.626 141.347 310.552 143.203 312.6 145.87C313.202 146.677 313.677 147.57 314.01 148.52C314.194 148.879 314.309 149.269 314.35 149.67Z" fill="#263238"/>
<path d="M315.25 139.55C314.26 138.7 313.222 137.909 312.14 137.18C309.429 135.579 306.381 134.634 303.24 134.42C300.093 134.237 296.935 134.473 293.85 135.12C291.46 135.58 290 135.95 289.98 135.87C290.296 135.705 290.632 135.581 290.98 135.5C291.63 135.3 292.58 135.03 293.77 134.76C296.878 133.991 300.085 133.701 303.28 133.9C306.505 134.118 309.622 135.15 312.34 136.9C313.154 137.435 313.905 138.058 314.58 138.76C314.841 138.989 315.067 139.255 315.25 139.55Z" fill="#263238"/>
<path d="M312.83 132.14C312.83 132.21 311.83 131.66 310.31 130.97C306.236 129.142 301.753 128.414 297.31 128.86C295.61 129.02 294.57 129.26 294.55 129.17C294.53 129.08 294.79 129.04 295.26 128.91C295.916 128.725 296.585 128.585 297.26 128.49C301.782 127.84 306.394 128.587 310.48 130.63C311.091 130.924 311.683 131.258 312.25 131.63C312.64 131.94 312.85 132.11 312.83 132.14Z" fill="#263238"/>
<path d="M299.9 172.63C299.9 172.49 302.55 171.79 305.79 170.78C309.03 169.77 311.63 168.83 311.69 168.97C307.984 170.82 304.002 172.057 299.9 172.63Z" fill="#263238"/>
<path d="M298.37 98.1399C304 101.31 316.28 108.44 316.28 108.44C317.51 107.87 340.09 30.1299 344.33 15.4999C344.547 14.7555 344.584 13.9701 344.438 13.2086C344.292 12.447 343.967 11.7311 343.49 11.1199C340.49 7.30989 333.99 -0.490107 330.55 0.279893C326.55 1.18989 301.82 77.4699 296.62 93.6599C296.352 94.494 296.38 95.3949 296.699 96.2109C297.017 97.0269 297.608 97.7082 298.37 98.1399Z" fill="#006DB7"/>
<path d="M318.19 102.94C318.13 103 317.1 102.22 315.34 101.1C313.057 99.6339 310.639 98.3883 308.12 97.3798C305.589 96.3954 302.966 95.6684 300.29 95.2098C298.24 94.8498 296.95 94.7398 296.95 94.6598C297.255 94.6085 297.565 94.6085 297.87 94.6598C298.7 94.6879 299.528 94.7614 300.35 94.8798C303.091 95.2326 305.777 95.9211 308.35 96.9298C310.904 97.9383 313.331 99.244 315.58 100.82C316.44 101.43 317.12 101.95 317.58 102.33C318.04 102.71 318.21 102.91 318.19 102.94Z" fill="#263238"/>
<path d="M333.08 1.37999C333.057 1.46128 333.031 1.54138 333 1.61999C332.93 1.80999 332.85 2.03999 332.74 2.32999C332.493 2.99666 332.143 3.89665 331.69 5.02999L327.82 15C324.57 23.39 320.23 35 315.82 48C311.41 61 307.68 72.85 305.1 81.46C303.84 85.75 302.81 89.23 302.1 91.68C301.75 92.85 301.47 93.78 301.27 94.46L301.05 95.18C301.026 95.2636 300.992 95.3441 300.95 95.42C300.939 95.3337 300.939 95.2463 300.95 95.16C300.95 94.97 301.05 94.73 301.12 94.43C301.3 93.75 301.54 92.81 301.85 91.62C302.49 89.19 303.47 85.68 304.71 81.36C307.2 72.71 310.84 60.82 315.28 47.83C319.72 34.84 324.13 23.21 327.47 14.83C329.13 10.65 330.47 7.27999 331.47 4.96999L332.62 2.29999L332.92 1.60999C333 1.44999 333.07 1.36999 333.08 1.37999Z" fill="#263238"/>
<path d="M273.15 134.16L278.79 129.57C279.442 126.5 280.348 123.49 281.5 120.57C281.682 118.397 282.363 116.296 283.491 114.429C284.618 112.563 286.161 110.982 288 109.81C288.608 108.475 289.492 107.284 290.593 106.316C291.695 105.347 292.989 104.623 294.39 104.19C295.005 102.653 296.062 101.333 297.427 100.397C298.792 99.4604 300.405 98.95 302.06 98.93C311.97 98.5 319.86 104.93 321.13 107.93C322.4 110.93 319.39 113.12 319.39 113.12L320.03 116.77C320.289 118.262 319.959 119.796 319.11 121.05C319.11 121.05 319.79 125.97 316.63 126.12C313.47 126.27 313 124 313 124C313 124 310.28 125.27 309 124.88L305.84 123.88L300.45 123.44L296.39 126.25C296.39 126.25 294.39 135.53 292.64 138.31C290.89 141.09 281.15 148.72 281.15 148.72L273.15 134.16Z" fill="#E0E0E0"/>
<path d="M286.72 115.26C287.097 115.085 287.493 114.954 287.9 114.87C288.996 114.586 290.108 114.369 291.23 114.22C294.952 113.754 298.727 113.951 302.38 114.8C304.387 115.274 306.344 115.944 308.22 116.8C309.804 117.415 311.262 118.317 312.52 119.46C312.985 119.954 313.298 120.572 313.42 121.24C313.511 121.739 313.466 122.254 313.29 122.73C313.185 123.033 313.006 123.304 312.77 123.52C312.61 123.66 312.5 123.7 312.5 123.69C312.757 123.416 312.955 123.093 313.083 122.74C313.21 122.386 313.263 122.011 313.24 121.636C313.217 121.261 313.117 120.895 312.946 120.561C312.776 120.226 312.539 119.93 312.25 119.69C310.997 118.628 309.569 117.792 308.03 117.22C306.168 116.411 304.237 115.771 302.26 115.31C298.656 114.483 294.942 114.24 291.26 114.59C288.45 114.88 286.74 115.35 286.72 115.26Z" fill="#263238"/>
<path d="M295.52 108.47C295.882 108.323 296.262 108.226 296.65 108.18C297.693 107.997 298.751 107.907 299.81 107.91C303.341 107.896 306.816 108.795 309.898 110.519C312.98 112.243 315.564 114.734 317.4 117.75C317.96 118.651 318.435 119.601 318.82 120.59C318.985 120.943 319.103 121.316 319.17 121.7C319.08 121.7 318.54 120.16 317.09 117.95C315.209 115.056 312.652 112.664 309.64 110.979C306.627 109.294 303.25 108.368 299.8 108.28C297.16 108.2 295.53 108.57 295.52 108.47Z" fill="#263238"/>
<path d="M299.21 103.77C299.503 103.672 299.811 103.621 300.12 103.62C300.475 103.575 300.833 103.558 301.19 103.57C301.667 103.557 302.145 103.577 302.62 103.63C303.853 103.733 305.074 103.944 306.27 104.26C307.736 104.654 309.17 105.159 310.56 105.77C311.95 106.398 313.288 107.137 314.56 107.98C315.583 108.678 316.543 109.465 317.43 110.33C317.787 110.639 318.121 110.973 318.43 111.33C318.67 111.598 318.888 111.886 319.08 112.19C319.274 112.427 319.43 112.694 319.54 112.98C319.46 113.04 318.75 111.98 317.21 110.55C316.304 109.738 315.338 108.996 314.32 108.33C311.818 106.706 309.083 105.472 306.21 104.67C305.039 104.341 303.846 104.097 302.64 103.94C300.52 103.73 299.22 103.87 299.21 103.77Z" fill="#263238"/>
<path d="M298.72 123.3C298.72 123.45 296.52 123.68 293.92 124.5C291.32 125.32 289.19 126 289.14 125.84C290.61 125.056 292.163 124.439 293.77 124C295.352 123.418 297.039 123.18 298.72 123.3Z" fill="#263238"/>
<path d="M294.86 148.94C294.648 148.947 294.437 148.927 294.23 148.88C293.626 148.782 293.054 148.542 292.56 148.18C291.19 147.18 290.48 144.68 290.91 141.81L291.04 142L290.19 141.75C289.9 141.63 289.62 141.49 289.34 141.34C288.747 140.983 288.301 140.426 288.08 139.77C287.905 139.061 287.947 138.315 288.2 137.63C288.429 136.916 288.766 136.241 289.2 135.63L289.15 135.76C289.15 135.01 289.15 134.28 289.23 133.44C289.387 132.602 289.783 131.828 290.37 131.21C291.647 129.977 293.262 129.152 295.01 128.84L294.81 129.11C294.694 128.085 294.86 127.048 295.29 126.11C295.749 125.139 296.465 124.313 297.36 123.72C298.287 123.112 299.372 122.789 300.48 122.79C301.029 122.805 301.577 122.855 302.12 122.94C302.65 123.06 303.21 123.13 303.73 123.3C307.182 124.359 310.352 126.176 313.01 128.62C313.642 129.185 314.23 129.797 314.77 130.45C315.292 131.095 315.71 131.817 316.01 132.59C316.608 134.031 316.93 135.571 316.96 137.13V137.01C318.082 139.425 318.688 142.048 318.74 144.71C318.91 147.05 318.96 149.09 318.97 150.77C318.989 152.072 318.942 153.373 318.83 154.67C318.8 155.006 318.75 155.34 318.68 155.67C318.669 155.786 318.642 155.901 318.6 156.01C318.6 156.01 318.6 155.53 318.69 154.64C318.78 153.75 318.75 152.43 318.69 150.75C318.63 149.07 318.55 147.04 318.35 144.75C318.269 142.154 317.66 139.603 316.56 137.25V137.19V137.13C316.515 135.635 316.196 134.16 315.62 132.78C314.97 131.306 313.975 130.01 312.72 129C310.119 126.615 307.016 124.845 303.64 123.82C303.13 123.65 302.64 123.58 302.09 123.46C301.574 123.38 301.052 123.333 300.53 123.32C299.521 123.315 298.534 123.607 297.69 124.16C296.875 124.699 296.222 125.449 295.8 126.33C295.412 127.17 295.257 128.099 295.35 129.02V129.24H295.13C293.485 129.534 291.96 130.298 290.74 131.44C290.223 131.998 289.876 132.692 289.74 133.44C289.64 134.16 289.68 134.97 289.65 135.7V135.77V135.83C289.211 136.344 288.884 136.943 288.691 137.591C288.498 138.239 288.443 138.92 288.53 139.59C288.713 140.164 289.097 140.654 289.61 140.97C289.87 141.11 290.13 141.24 290.39 141.35L291.2 141.61H291.35V141.75C290.89 144.53 291.52 146.97 292.78 147.92C293.243 148.286 293.783 148.543 294.36 148.67L294.86 148.94Z" fill="#263238"/>
<path d="M237.48 95.3499C237.933 91.9075 237.815 88.4138 237.13 85.0099C237.01 84.4599 234.88 73.0099 227.18 65.4499C221.68 59.9999 212.45 57.2699 205 58.9999C197.55 60.7299 189 65.3099 185.79 73.8599C182.58 82.4099 183.96 86.5599 183.96 86.5599C183.96 86.5599 183.46 93.8599 183.96 95.7799C184.86 99.0199 189.89 106.03 189.89 106.03L192.74 108.77L233 101.86L237.48 95.3499Z" fill="#006DB7"/>
<path d="M235.3 101.2C235.646 95.8262 235.525 90.4328 234.94 85.0799C234.351 79.6949 232.434 74.5405 229.36 70.0799C228.88 69.4199 225.14 65.1499 224.36 65.4399C223.82 65.6599 226.57 69.8499 226.42 70.4399C225.04 75.8299 225.89 81.5999 227.84 86.8199C229.778 91.8715 232.274 96.6913 235.28 101.19" fill="#263238"/>
<path d="M186.84 92C185.346 86.1241 186.117 79.9011 189 74.5675C191.883 69.2338 196.666 65.1796 202.4 63.21L203.59 62.8099C216.59 59.1799 226.93 68.19 230.19 81.29L241.34 123L238.5 146.17L213.88 136.32C212.8 132.67 212.47 131.58 212.44 131.59C212.41 131.6 199.53 133.88 195.18 121.69C193.08 115.83 189.74 103.34 186.84 92Z" fill="#FFBF9D"/>
<path d="M212.44 131.63C218.095 129.672 223.071 126.136 226.78 121.44C226.78 121.44 226.1 131.97 213.49 135.06L212.44 131.63Z" fill="#FF9A6C"/>
<path d="M193.5 101.9C193.649 102.359 193.973 102.741 194.401 102.964C194.83 103.186 195.328 103.232 195.79 103.09C196.019 103.031 196.233 102.927 196.421 102.784C196.609 102.64 196.767 102.461 196.884 102.256C197.001 102.051 197.077 101.824 197.105 101.59C197.134 101.355 197.115 101.117 197.05 100.89C196.899 100.432 196.574 100.052 196.147 99.8296C195.719 99.6073 195.221 99.5607 194.76 99.6998C194.531 99.7588 194.317 99.863 194.129 100.007C193.941 100.15 193.783 100.329 193.666 100.534C193.549 100.739 193.473 100.966 193.445 101.2C193.416 101.435 193.435 101.673 193.5 101.9Z" fill="#263238"/>
<path d="M191.31 96.5298C191.6 96.6798 192.59 95.2398 194.47 94.5998C196.35 93.9598 198.06 94.4298 198.19 94.1298C198.25 93.9898 197.89 93.6598 197.14 93.4298C196.132 93.1417 195.059 93.1731 194.07 93.5198C193.088 93.8545 192.237 94.4916 191.64 95.3398C191.22 95.9998 191.16 96.4598 191.31 96.5298Z" fill="#263238"/>
<path d="M210.49 96.8499C210.643 97.3057 210.968 97.6837 211.396 97.904C211.823 98.1243 212.32 98.1694 212.78 98.0299C213.008 97.972 213.223 97.8689 213.411 97.7266C213.598 97.5843 213.756 97.4057 213.873 97.2015C213.991 96.9972 214.066 96.7715 214.095 96.5376C214.123 96.3037 214.105 96.0665 214.04 95.8399C213.891 95.3808 213.567 94.9987 213.139 94.7761C212.71 94.5535 212.211 94.5082 211.75 94.6499C211.521 94.7089 211.307 94.8131 211.119 94.9564C210.931 95.0997 210.773 95.2791 210.656 95.4842C210.539 95.6892 210.463 95.9157 210.435 96.1502C210.406 96.3848 210.425 96.6227 210.49 96.8499Z" fill="#263238"/>
<path d="M209.6 91.0899C209.9 91.2399 210.89 89.7999 212.77 89.1599C214.65 88.5199 216.36 88.9899 216.48 88.6899C216.55 88.5499 216.19 88.2199 215.48 87.9899C214.472 87.7018 213.399 87.7332 212.41 88.0799C211.431 88.4146 210.583 89.052 209.99 89.8999C209.51 90.5399 209.46 90.9999 209.6 91.0899Z" fill="#263238"/>
<path d="M208.12 107.42C207.021 107.449 205.929 107.614 204.87 107.91C204.37 108.03 203.87 108.09 203.69 107.79C203.48 107.305 203.421 106.769 203.52 106.25C203.58 104.93 203.63 103.55 203.69 102.11C203.88 96.2199 203.84 91.4399 203.6 91.4299C203.36 91.4199 203.02 96.1999 202.83 102.09C202.83 103.54 202.76 104.92 202.73 106.24C202.626 106.933 202.767 107.641 203.13 108.24C203.255 108.38 203.41 108.491 203.582 108.566C203.755 108.64 203.942 108.676 204.13 108.67C204.423 108.651 204.712 108.594 204.99 108.5C206.075 108.273 207.126 107.911 208.12 107.42Z" fill="#263238"/>
<path d="M208.36 86.8999C208.76 87.2999 210.21 86.2699 212.19 85.5799C214.17 84.8899 215.95 84.6899 215.97 84.1299C215.97 83.8699 215.49 83.5499 214.65 83.3899C213.575 83.2134 212.472 83.3202 211.45 83.6999C210.437 84.0553 209.536 84.6729 208.84 85.4899C208.32 86.1499 208.17 86.6999 208.36 86.8999Z" fill="#263238"/>
<path d="M188.85 89.43C189.38 89.73 190.78 88.78 192.62 88.16C194.46 87.54 196.14 87.33 196.35 86.76C196.44 86.49 196.05 86.14 195.23 85.96C194.12 85.7579 192.976 85.8616 191.92 86.26C190.859 86.6166 189.915 87.2563 189.19 88.11C188.68 88.76 188.61 89.28 188.85 89.43Z" fill="#263238"/>
<path d="M232.3 90.7199C232.48 90.5499 239.87 85.3399 242.47 93.8099C245.07 102.28 236 103.14 236 102.9C236 102.66 232.3 90.7199 232.3 90.7199Z" fill="#FFBF9D"/>
<path d="M237.55 98.8999C237.55 98.8999 237.73 98.9599 238.01 98.9999C238.407 99.0372 238.804 98.9228 239.12 98.6799C239.92 98.0799 240.23 96.4199 239.8 94.8899C239.604 94.151 239.242 93.4668 238.74 92.8899C238.579 92.6495 238.362 92.4519 238.108 92.3143C237.853 92.1766 237.569 92.1031 237.28 92.0999C237.097 92.1055 236.922 92.176 236.787 92.2987C236.651 92.4215 236.564 92.5885 236.54 92.7699C236.54 93.0399 236.6 93.1999 236.54 93.2199C236.48 93.2399 236.32 93.1399 236.28 92.7699C236.262 92.5435 236.322 92.3177 236.45 92.1299C236.63 91.884 236.899 91.7188 237.2 91.6699C237.568 91.63 237.941 91.6864 238.281 91.8336C238.621 91.9809 238.917 92.2139 239.14 92.5099C239.728 93.1304 240.153 93.886 240.38 94.7099C240.85 96.4299 240.47 98.2999 239.38 99.0299C239.173 99.1663 238.938 99.2542 238.692 99.2871C238.446 99.32 238.196 99.297 237.96 99.2199C237.63 99.0999 237.53 98.9299 237.55 98.8999Z" fill="#FF9A6C"/>
<path d="M188.15 76.3098C186.55 75.9598 189.34 70.3098 192.26 67.7398C196.68 63.9098 204.05 60.1598 209.15 60.0898C215.29 60.0098 220.84 61.4298 225.22 65.7298C229.524 70.1666 232.572 75.6677 234.05 81.6698C234.652 83.4534 234.773 85.3645 234.4 87.2098C233.77 89.4398 231.85 91.2998 232.72 93.8598C232.891 94.3203 232.969 94.81 232.95 95.3008C232.931 95.7916 232.816 96.2738 232.61 96.7198C231.55 98.8298 229.19 97.8398 227.85 96.5498C224.99 93.7798 223.6 89.8698 222.3 86.1098C221.233 83.4866 220.601 80.7067 220.43 77.8798C220.43 76.3398 220.69 74.7998 220.6 73.2598C220.602 72.4903 220.437 71.7295 220.115 71.0302C219.794 70.3309 219.325 69.7098 218.74 69.2098C218.456 69.0163 218.154 68.849 217.84 68.7098C216.344 68.0357 214.695 67.773 213.064 67.9488C211.433 68.1245 209.878 68.7325 208.56 69.7098C204.28 72.8198 196.87 77.7798 194.25 76.7998C190.49 75.3798 189.3 74.0698 189.3 74.0698L188.15 76.3098Z" fill="#263238"/>
<path d="M214.45 106.82C214.16 106.88 214.72 108.82 213.45 110.71C212.18 112.6 210.04 112.98 210.11 113.26C210.11 113.39 210.68 113.5 211.57 113.26C212.716 112.945 213.714 112.237 214.39 111.26C215.038 110.317 215.292 109.158 215.1 108.03C214.94 107.19 214.58 106.77 214.45 106.82Z" fill="#263238"/>
<path d="M232.61 96.72C232.61 96.72 233.67 116.94 223.72 124.12L222.42 123.71C222.42 123.71 231.55 114.71 230.97 97.24L232.61 96.72Z" fill="#263238"/>
<path d="M199 127.87C199 127.87 208.11 119.69 224.44 123.36C224.44 123.36 221.17 129.74 211.97 131.69C204.92 133.19 199 128 199 127.87Z" fill="#263238"/>
<path d="M205.31 132.8C202.03 132.821 198.771 132.269 195.68 131.17L195.15 130.99C192.37 130.1 184 114.43 183.57 112.36C183.08 110 185.35 99.72 185.57 98.56L186.57 98.78C185.87 101.88 184.15 110.34 184.57 112.16C185.08 114.65 193.44 129.39 195.47 130.04L196.01 130.22C198.59 131.07 203.39 132.66 211.95 131.22C220.95 129.68 229.67 121.37 231.26 118.31C232.5 115.93 235.18 98.06 236.42 88.95L237.42 89.09C237.27 90.17 233.79 115.64 232.16 118.77C230.45 122.05 221.57 130.58 212.16 132.21C209.898 132.601 207.606 132.798 205.31 132.8Z" fill="#E0E0E0"/>
<path d="M184.44 112.58L183.67 111.94C183.95 111.61 190.67 103.74 209.81 102.13C228.95 100.52 233.91 106.84 234.11 107.13L233.3 107.72C233.25 107.66 228.47 101.58 209.89 103.14C191.31 104.7 184.51 112.5 184.44 112.58Z" fill="#E0E0E0"/>
<path d="M189.47 122.84L189 122C195.621 118.551 202.815 116.338 210.23 115.47C222.5 114.03 230.81 118.73 231.15 118.93L230.65 119.8C224.354 116.72 217.291 115.559 210.34 116.46C203.054 117.306 195.983 119.468 189.47 122.84Z" fill="#E0E0E0"/>
<path d="M216.56 130C216.39 129.51 212.38 117.83 212.05 116.74C211.72 115.65 211.05 104.07 211.05 102.74L212.05 102.68C212.32 107.79 212.79 115.68 213.05 116.42C213.38 117.5 217.51 129.54 217.55 129.66L216.56 130Z" fill="#E0E0E0"/>
<path d="M207.61 132.43L199.61 118.29C198.61 116.58 196.02 105.81 195.91 105.35L196.91 105.11C197.66 108.2 199.77 116.48 200.51 117.8L208.51 131.94L207.61 132.43Z" fill="#E0E0E0"/>
<path d="M199.65 132.11C199.4 131.74 193.49 123.03 192.23 120.99C191.76 120.23 186.82 110.36 186.61 109.94L187.5 109.49C189.27 113.03 192.72 119.88 193.08 120.49C194.33 122.49 200.42 131.49 200.48 131.57L199.65 132.11Z" fill="#E0E0E0"/>
<path d="M225.14 125.55L224.14 125.46C224.386 122.654 224.783 119.863 225.33 117.1C225.94 114.71 226.82 104.41 226.83 104.3C226.98 102.53 227.33 98.3699 227.38 98.1099L228.38 98.3299L227.89 98.2199L228.38 98.3199C228.38 98.5899 228.03 102.19 227.85 104.39C227.85 104.82 226.95 114.88 226.32 117.39C225.791 120.089 225.397 122.812 225.14 125.55Z" fill="#E0E0E0"/>
<path d="M205.37 57.57L214.49 58.11C214.787 58.1299 215.078 58.201 215.35 58.32C217.35 59.32 225.18 60.2 228.22 65.32C230.38 68.94 233.79 74.25 235.16 78.52C235.288 78.937 235.301 79.3811 235.196 79.8046C235.09 80.228 234.872 80.6148 234.563 80.9233C234.255 81.2319 233.868 81.4504 233.445 81.5556C233.021 81.6607 232.577 81.6484 232.16 81.52C229.305 80.4607 226.257 80.0243 223.22 80.24C211.49 81.34 195.46 83.89 188.51 85.41C186.86 85.76 185.2 85.18 185.46 83.51C186.03 79.81 186.94 74.21 187.46 72.39C188.18 69.93 193.25 64.5 194.46 63.23C194.629 63.0469 194.829 62.8947 195.05 62.78L204.11 57.86C204.495 57.6479 204.931 57.5475 205.37 57.57Z" fill="#006DB7"/>
<path d="M190.79 77.5098C195.63 76.1298 206.92 75.1798 212.56 75.9798C216.352 76.6321 219.988 77.9888 223.28 79.9798L185.11 86.5598L177.44 88.3398C180.46 83.5198 186 78.8898 190.79 77.5098Z" fill="#006DB7"/>
<path d="M183.89 81.17C184.329 80.8514 184.794 80.5704 185.28 80.33C186.19 79.82 187.54 79.14 189.28 78.33C191.29 77.4526 193.366 76.737 195.49 76.19C198.107 75.5396 200.793 75.2039 203.49 75.19C208.375 75.0552 213.252 75.6724 217.95 77.02C219.366 77.4555 220.733 78.0352 222.03 78.75C222.374 78.9419 222.708 79.1522 223.03 79.38C223.15 79.4538 223.26 79.541 223.36 79.64C222.864 79.4292 222.38 79.1922 221.91 78.93C220.589 78.298 219.217 77.7762 217.81 77.37C213.132 76.1442 208.304 75.5853 203.47 75.71C200.814 75.7106 198.167 76.016 195.58 76.62C193.474 77.1353 191.409 77.8038 189.4 78.62C187.68 79.33 186.32 79.96 185.4 80.41C184.921 80.7088 184.415 80.9632 183.89 81.17Z" fill="#263238"/>
<path d="M235.84 83.4499L236.35 88.9799L232 90.8899C232 90.8899 232.05 97.1299 229.69 98.0099C227.33 98.8899 225.11 97.0699 225.11 97.0699L224.37 79.8399C224.37 79.8399 232.04 77.6399 231.99 77.9499C231.94 78.2599 235.84 83.4499 235.84 83.4499Z" fill="#006DB7"/>
<path d="M200.13 71.6398C200.155 69.4073 200.492 67.1893 201.13 65.0498C201.591 62.8709 202.362 60.7694 203.42 58.8098C203.56 58.8098 202.52 61.6498 201.63 65.1798C200.74 68.7098 200.29 71.6498 200.13 71.6398Z" fill="#263238"/>
<path d="M185.22 76.9999C185.508 76.2377 185.881 75.5099 186.33 74.8299C187.08 73.5299 188.17 71.7599 189.45 69.8299C190.73 67.8999 191.94 66.2299 192.85 65.0299C193.306 64.3559 193.832 63.7324 194.42 63.1699C194.068 63.9041 193.642 64.601 193.15 65.2499L189.88 70.1199C188.67 71.9399 187.58 73.5899 186.65 75.0099C186.241 75.7192 185.762 76.3858 185.22 76.9999Z" fill="#263238"/>
<path d="M223.39 69.4099C223.25 69.4699 221.98 66.6799 219.79 63.6399C217.6 60.5999 215.38 58.4699 215.5 58.3599C216.081 58.7014 216.605 59.1335 217.05 59.6399C218.212 60.7724 219.27 62.0074 220.21 63.3299C221.159 64.6504 221.989 66.0526 222.69 67.5199C223.018 68.1107 223.254 68.748 223.39 69.4099Z" fill="#263238"/>
<path d="M237.68 88.7599C237.53 88.8999 235.68 85.5399 231.79 83.0999C227.9 80.6599 224.09 80.4399 224.14 80.2399C224.961 80.1909 225.784 80.272 226.58 80.48C230.511 81.2527 234.015 83.4588 236.41 86.6699C236.943 87.2935 237.372 87.9993 237.68 88.7599Z" fill="#263238"/>
<path d="M304.68 182.25L304.13 182.53L302.52 183.31L296.29 186.23C288.551 189.613 280.64 192.591 272.59 195.15C260.639 198.918 248.439 201.845 236.08 203.91L233.45 204.37L230.78 204.75L225.34 205.51C221.67 206.01 217.9 206.32 214.08 206.75C206.41 207.33 198.45 207.83 190.28 207.75C174.927 207.875 159.593 206.634 144.46 204.04C137.853 202.898 131.365 201.147 125.08 198.81C119.576 196.793 114.42 193.929 109.8 190.32C107.85 188.666 106.074 186.816 104.5 184.8C103.14 182.971 101.996 180.991 101.09 178.9C99.632 175.524 99.147 171.807 99.69 168.17C100.116 165.899 100.979 163.732 102.23 161.79L103.32 160.37L103.7 159.89C103.7 159.89 103.59 160.07 103.36 160.4L102.36 161.85C101.163 163.8 100.342 165.957 99.94 168.21C99.4403 171.801 99.9457 175.459 101.4 178.78C102.312 180.845 103.46 182.798 104.82 184.6C106.385 186.586 108.151 188.406 110.09 190.03C114.686 193.595 119.811 196.419 125.28 198.4C131.546 200.718 138.014 202.449 144.6 203.57C159.707 206.127 175.009 207.352 190.33 207.23C198.48 207.23 206.42 206.77 214.08 206.23C217.9 205.81 221.66 205.5 225.33 205.01L230.76 204.26L233.43 203.88L236.05 203.43C248.393 201.389 260.582 198.502 272.53 194.79C282.75 191.67 290.73 188.29 296.26 186.04L302.52 183.2L304.16 182.47C304.48 182.32 304.68 182.25 304.68 182.25Z" fill="#263238"/>
<path d="M160.65 213.28C160.424 213.306 160.196 213.306 159.97 213.28H158.03C156.34 213.28 153.89 213.12 150.88 212.89C143.02 212.263 135.217 211.067 127.53 209.31C123.03 208.31 118.78 207.1 114.97 205.9C111.16 204.7 107.76 203.46 104.97 202.31C103.56 201.76 102.31 201.21 101.21 200.73C100.11 200.25 99.2101 199.83 98.4001 199.46L96.6501 198.6C96.4419 198.512 96.244 198.401 96.0601 198.27C96.2795 198.333 96.4935 198.413 96.7001 198.51L98.4901 199.27C99.2601 199.62 100.21 200.02 101.32 200.46C102.43 200.9 103.69 201.46 105.11 201.96C107.92 203.07 111.32 204.23 115.11 205.44C118.9 206.65 123.11 207.77 127.64 208.81C135.309 210.546 143.082 211.785 150.91 212.52C153.91 212.8 156.35 212.99 158.04 213.08L159.98 213.21C160.205 213.219 160.428 213.242 160.65 213.28Z" fill="#263238"/>
</g>
<defs>
<clipPath id="clip0_12_10245">
<rect width="470" height="427" fill="white"/>
</clipPath>
</defs>
</svg>
