<svg width="501" height="369" viewBox="0 0 501 369" fill="none" xmlns="http://www.w3.org/2000/svg">
<g clip-path="url(#clip0_12_10723)">
<path d="M375.402 245.83C375.327 245.768 375.267 245.69 375.225 245.601C375.184 245.513 375.162 245.417 375.161 245.32C374.991 241.69 372.812 206.13 351.032 181.76C332.602 161.15 351.501 175.86 359.701 182.49C359.84 182.613 360.02 182.681 360.205 182.681C360.391 182.682 360.57 182.614 360.71 182.491C360.849 182.368 360.938 182.198 360.96 182.013C360.983 181.829 360.937 181.643 360.831 181.49C355.051 171.72 340.551 145.89 345.581 140.86C350.331 136.11 360.152 159.7 364.532 171.14C364.594 171.316 364.72 171.464 364.885 171.553C365.049 171.642 365.241 171.668 365.424 171.624C365.606 171.581 365.766 171.472 365.872 171.318C365.979 171.164 366.025 170.976 366.002 170.79C364.732 158.68 362.891 133.35 369.721 134.24C376.551 135.13 374.592 168.59 373.252 184.97C373.242 185.154 373.299 185.335 373.413 185.479C373.526 185.624 373.688 185.722 373.869 185.757C374.05 185.791 374.237 185.758 374.395 185.665C374.554 185.572 374.673 185.424 374.731 185.25C377.781 175.17 383.582 160.25 390.402 164.25C400.482 170.09 375.561 190.6 377.111 212.86C378.641 234.66 379.052 249 375.402 245.83Z" fill="#F5F5F5"/>
<path d="M388.471 249.12C388.551 249.12 388.651 248.79 388.611 248.54C383.851 218.4 415.771 196.49 438.181 185.64C443.181 183.22 448.351 180.72 452.611 177.02C444.301 177.57 436.011 181.02 428.051 183.72C427.001 184.08 426.451 182.99 427.351 182.36C437.521 175.3 465.831 149.36 457.671 141.76C453.991 138.35 433.671 165.45 428.881 170.31C428.101 171.1 426.881 170.4 427.411 169.49C433.721 158.93 435.801 125.63 429.411 126.03C426.701 126.2 425.681 141.81 424.261 148.16C421.591 160.05 416.601 171.22 411.391 182.16C410.931 183.16 409.321 182.96 409.561 181.99C411.371 174.71 412.051 153.36 403.091 154.9C396.591 156.02 397.631 168.59 397.571 175.32C397.461 187.32 396.461 199.54 391.311 210.19C387.821 217.45 383.451 249.72 388.471 249.12Z" fill="#F5F5F5"/>
<path d="M381.242 252.47C381.341 252.379 381.402 252.254 381.412 252.12C381.522 249.69 382.982 225.81 397.602 209.46C409.972 195.62 397.282 205.46 391.782 209.94C391.689 210.013 391.574 210.051 391.457 210.049C391.339 210.046 391.225 210.003 391.136 209.926C391.046 209.85 390.986 209.745 390.965 209.629C390.945 209.513 390.965 209.393 391.022 209.29C394.902 202.73 404.642 185.39 401.262 182.01C398.072 178.82 391.482 194.66 388.542 202.34C388.512 202.473 388.43 202.588 388.314 202.66C388.199 202.732 388.06 202.756 387.927 202.725C387.795 202.695 387.679 202.613 387.607 202.497C387.535 202.382 387.512 202.243 387.542 202.11C388.392 193.98 389.632 176.97 385.052 177.57C380.472 178.17 381.782 200.63 382.672 211.62C382.688 211.749 382.654 211.878 382.578 211.983C382.502 212.088 382.389 212.16 382.261 212.184C382.134 212.208 382.002 212.183 381.893 212.113C381.783 212.044 381.704 211.936 381.672 211.81C379.622 205.05 375.732 195.05 371.162 197.7C364.392 201.62 381.162 215.38 380.072 230.32C379.112 245 378.792 254.58 381.242 252.47Z" fill="#E6E6E6"/>
<path d="M397.721 319.58C405.251 291.51 410.211 251.98 410.211 242.24H354.051C354.051 251.98 359.051 291.51 366.541 319.58C367.217 322.091 368.702 324.308 370.767 325.889C372.832 327.469 375.361 328.324 377.961 328.32H386.311C388.909 328.321 391.436 327.466 393.498 325.886C395.561 324.305 397.045 322.089 397.721 319.58Z" fill="#E6E6E6"/>
<path d="M408.592 260.82C409.012 257.41 409.352 254.3 409.592 251.57H354.592C354.852 254.3 355.192 257.41 355.592 260.82H408.592Z" fill="#F5F5F5"/>
<path d="M127.301 135.84H79.5508V183.59H127.301V135.84Z" fill="#F5F5F5"/>
<path d="M118.102 140.45H88.7621C86.2216 140.45 84.1621 142.509 84.1621 145.05V174.39C84.1621 176.93 86.2216 178.99 88.7621 178.99H118.102C120.643 178.99 122.702 176.93 122.702 174.39V145.05C122.702 142.509 120.643 140.45 118.102 140.45Z" fill="#EBEBEB"/>
<path d="M95.4805 140.45C95.6178 141.099 95.9737 141.682 96.4887 142.1C97.0037 142.519 97.6468 142.748 98.3105 142.75H108.54C109.205 142.747 109.848 142.517 110.365 142.099C110.881 141.681 111.239 141.099 111.38 140.45H95.4805Z" fill="#E0E0E0"/>
<path d="M127.301 183.6H79.5508V231.35H127.301V183.6Z" fill="#F0F0F0"/>
<path d="M118.102 188.21H88.7621C86.2216 188.21 84.1621 190.269 84.1621 192.81V222.15C84.1621 224.69 86.2216 226.75 88.7621 226.75H118.102C120.643 226.75 122.702 224.69 122.702 222.15V192.81C122.702 190.269 120.643 188.21 118.102 188.21Z" fill="#FAFAFA"/>
<path d="M95.4805 188.21C95.6178 188.859 95.9737 189.442 96.4887 189.86C97.0037 190.279 97.6468 190.508 98.3105 190.51H108.54C109.205 190.507 109.848 190.277 110.365 189.859C110.881 189.441 111.239 188.859 111.38 188.21H95.4805Z" fill="#E0E0E0"/>
<path d="M127.301 231.35H79.5508V279.1H127.301V231.35Z" fill="#F5F5F5"/>
<path d="M118.102 235.96H88.7621C86.2216 235.96 84.1621 238.019 84.1621 240.56V269.9C84.1621 272.44 86.2216 274.5 88.7621 274.5H118.102C120.643 274.5 122.702 272.44 122.702 269.9V240.56C122.702 238.019 120.643 235.96 118.102 235.96Z" fill="#EBEBEB"/>
<path d="M95.4805 236C95.6178 236.649 95.9737 237.232 96.4887 237.65C97.0037 238.069 97.6468 238.298 98.3105 238.3H108.54C109.205 238.297 109.848 238.067 110.365 237.649C110.881 237.231 111.239 236.649 111.38 236H95.4805Z" fill="#E0E0E0"/>
<path d="M127.301 279.1H79.5508V326.85H127.301V279.1Z" fill="#F0F0F0"/>
<path d="M118.102 283.71H88.7621C86.2216 283.71 84.1621 285.769 84.1621 288.31V317.65C84.1621 320.19 86.2216 322.25 88.7621 322.25H118.102C120.643 322.25 122.702 320.19 122.702 317.65V288.31C122.702 285.769 120.643 283.71 118.102 283.71Z" fill="#FAFAFA"/>
<path d="M95.4805 283.71C95.6198 284.357 95.9765 284.938 96.4914 285.354C97.0062 285.771 97.6482 285.999 98.3105 286H108.54C109.206 285.996 109.851 285.765 110.367 285.345C110.884 284.925 111.241 284.341 111.38 283.69L95.4805 283.71Z" fill="#E0E0E0"/>
<path d="M133.161 135.84H127.311V326.86H133.161V135.84Z" fill="#E6E6E6"/>
<path d="M112.281 50.02H74.7012V87.6H112.281V50.02Z" fill="#F0F0F0"/>
<path d="M112.271 87.61H114.051V50.03H112.271V87.61Z" fill="#E6E6E6"/>
<path d="M108.872 53.4302H78.1016V84.2002H108.872V53.4302Z" fill="#E6E6E6"/>
<path d="M105.841 56.45H81.1211V81.1698H105.841V56.45Z" fill="#FAFAFA"/>
<path d="M144.752 73.01H120.752V112.83H144.752V73.01Z" fill="#F0F0F0"/>
<path d="M144.751 112.84H145.891V73.02H144.751V112.84Z" fill="#E6E6E6"/>
<path d="M142.592 76.6201H122.932V109.23H142.592V76.6201Z" fill="#FAFAFA"/>
<path d="M140.651 79.8201H124.861V106.02H140.651V79.8201Z" fill="#F5F5F5"/>
<path d="M140.651 66.1099C149.957 66.1099 157.501 61.0911 157.501 54.8999C157.501 48.7088 149.957 43.6899 140.651 43.6899C131.345 43.6899 123.801 48.7088 123.801 54.8999C123.801 61.0911 131.345 66.1099 140.651 66.1099Z" fill="#E0E0E0"/>
<path d="M139.5 66.1099C148.806 66.1099 156.35 61.0911 156.35 54.8999C156.35 48.7088 148.806 43.6899 139.5 43.6899C130.194 43.6899 122.65 48.7088 122.65 54.8999C122.65 61.0911 130.194 66.1099 139.5 66.1099Z" fill="#EBEBEB"/>
<path d="M139.502 63.6599C146.776 63.6599 152.672 59.7379 152.672 54.8999C152.672 50.0619 146.776 46.1399 139.502 46.1399C132.228 46.1399 126.332 50.0619 126.332 54.8999C126.332 59.7379 132.228 63.6599 139.502 63.6599Z" fill="#FAFAFA"/>
<path d="M450.011 343.49H416.891V343.74H450.011V343.49Z" fill="#EBEBEB"/>
<path d="M331.331 346.21H322.641V346.46H331.331V346.21Z" fill="#EBEBEB"/>
<path d="M415.891 334.21H396.701V334.46H415.891V334.21Z" fill="#EBEBEB"/>
<path d="M95.7623 335.89H52.5723V336.14H95.7623V335.89Z" fill="#EBEBEB"/>
<path d="M111.002 335.89H104.672V336.14H111.002V335.89Z" fill="#EBEBEB"/>
<path d="M225.262 340.11H131.582V340.36H225.262V340.11Z" fill="#EBEBEB"/>
<path d="M237.112 282.8H44.0323C42.5179 282.8 41.0655 282.198 39.9947 281.128C38.9239 280.057 38.3223 278.604 38.3223 277.09V5.66C38.3355 4.15429 38.9429 2.71475 40.0123 1.65471C41.0817 0.594662 42.5265 -5.77259e-05 44.0323 4.20255e-09H237.112C238.627 4.20256e-09 240.079 0.601588 241.15 1.67242C242.221 2.74325 242.822 4.19561 242.822 5.71V277.09C242.822 278.604 242.221 280.057 241.15 281.128C240.079 282.198 238.627 282.8 237.112 282.8ZM44.0323 0.200001C42.585 0.202644 41.1978 0.77874 40.1744 1.80212C39.151 2.82549 38.5749 4.21273 38.5723 5.66V277.09C38.5749 278.537 39.151 279.924 40.1744 280.948C41.1978 281.971 42.585 282.547 44.0323 282.55H237.112C238.56 282.547 239.947 281.971 240.97 280.948C241.994 279.924 242.57 278.537 242.572 277.09V5.66C242.57 4.21273 241.994 2.82549 240.97 1.80212C239.947 0.77874 238.56 0.202644 237.112 0.200001H44.0323Z" fill="#EBEBEB"/>
<path d="M453.421 282.8H260.321C258.808 282.797 257.357 282.195 256.287 281.125C255.216 280.054 254.614 278.604 254.611 277.09V5.66C254.627 4.15511 255.235 2.71708 256.304 1.65759C257.373 0.598109 258.816 0.00254829 260.321 0H453.421C454.924 0.0052045 456.363 0.602249 457.428 1.66173C458.494 2.72121 459.098 4.15775 459.111 5.66V277.09C459.111 278.601 458.512 280.05 457.446 281.121C456.379 282.191 454.932 282.795 453.421 282.8ZM260.321 0.200001C258.874 0.202644 257.487 0.77874 256.463 1.80212C255.44 2.82549 254.864 4.21273 254.861 5.66V277.09C254.864 278.537 255.44 279.924 256.463 280.948C257.487 281.971 258.874 282.547 260.321 282.55H453.421C454.869 282.547 456.256 281.971 457.279 280.948C458.303 279.924 458.879 278.537 458.881 277.09V5.66C458.879 4.21273 458.303 2.82549 457.279 1.80212C456.256 0.77874 454.869 0.202644 453.421 0.200001H260.321Z" fill="#EBEBEB"/>
<path d="M500.111 327.4H0.111328V327.65H500.111V327.4Z" fill="#EBEBEB"/>
<path d="M245.29 368.71C352.373 368.71 439.18 363.642 439.18 357.39C439.18 351.138 352.373 346.07 245.29 346.07C138.208 346.07 51.4004 351.138 51.4004 357.39C51.4004 363.642 138.208 368.71 245.29 368.71Z" fill="#F5F5F5"/>
<path d="M177.491 50.9998L250.231 92.9998C250.403 93.1006 250.608 93.1288 250.802 93.0781C250.995 93.0275 251.16 92.9022 251.261 92.7298C251.361 92.5574 251.39 92.3521 251.339 92.1589C251.288 91.9657 251.163 91.8006 250.991 91.6998L178.241 49.6998C178.068 49.6003 177.863 49.5734 177.671 49.625C177.479 49.6766 177.315 49.8024 177.216 49.9748C177.116 50.1472 177.089 50.352 177.141 50.5443C177.192 50.7365 177.318 50.9004 177.491 50.9998Z" fill="#263238"/>
<path d="M341.801 44.8799L300.041 117.2L294.041 127.65C293.954 127.82 293.935 128.017 293.989 128.2C294.042 128.384 294.164 128.54 294.328 128.637C294.493 128.734 294.688 128.764 294.875 128.722C295.061 128.68 295.224 128.568 295.331 128.41L337.111 56.0799L343.111 45.6299C343.187 45.4607 343.198 45.2692 343.142 45.0924C343.085 44.9155 342.965 44.766 342.804 44.6727C342.644 44.5793 342.454 44.5489 342.273 44.5872C342.091 44.6255 341.93 44.7298 341.821 44.8799H341.801Z" fill="#263238"/>
<path d="M294.012 45.6299L311.272 75.5399C311.373 75.7123 311.538 75.8376 311.731 75.8882C311.924 75.9389 312.129 75.9107 312.302 75.8099C312.474 75.7091 312.6 75.544 312.65 75.3508C312.701 75.1577 312.673 74.9523 312.572 74.7799C306.812 64.7799 301.055 54.8133 295.302 44.8799C295.193 44.7298 295.032 44.6255 294.85 44.5872C294.668 44.5489 294.479 44.5793 294.318 44.6727C294.158 44.766 294.038 44.9155 293.981 45.0924C293.924 45.2692 293.935 45.4607 294.012 45.6299Z" fill="#263238"/>
<path d="M213.492 93.72V194C213.492 194.199 213.571 194.39 213.712 194.53C213.853 194.671 214.043 194.75 214.242 194.75C214.441 194.75 214.632 194.671 214.773 194.53C214.913 194.39 214.992 194.199 214.992 194V93.72C214.992 93.5211 214.913 93.3303 214.773 93.1896C214.632 93.049 214.441 92.97 214.242 92.97C214.043 92.97 213.853 93.049 213.712 93.1896C213.571 93.3303 213.492 93.5211 213.492 93.72Z" fill="#263238"/>
<path d="M213.492 29.3701V71.8501C213.492 72.049 213.571 72.2398 213.712 72.3804C213.853 72.5211 214.043 72.6001 214.242 72.6001C214.441 72.6001 214.632 72.5211 214.773 72.3804C214.913 72.2398 214.992 72.049 214.992 71.8501V29.3701C214.992 29.1712 214.913 28.9804 214.773 28.8398C214.632 28.6991 214.441 28.6201 214.242 28.6201C214.043 28.6201 213.853 28.6991 213.712 28.8398C213.571 28.9804 213.492 29.1712 213.492 29.3701Z" fill="#263238"/>
<path d="M174.502 126.53C184.602 132.35 194.695 138.177 204.782 144.01C204.954 144.111 205.16 144.139 205.353 144.088C205.546 144.038 205.711 143.912 205.812 143.74C205.913 143.568 205.941 143.362 205.89 143.169C205.84 142.976 205.714 142.811 205.542 142.71L175.262 125.23C175.089 125.129 174.884 125.101 174.691 125.152C174.498 125.202 174.333 125.328 174.232 125.5C174.131 125.672 174.103 125.878 174.154 126.071C174.204 126.264 174.329 126.429 174.502 126.53Z" fill="#263238"/>
<path d="M175.262 172L205.542 154.52C205.627 154.47 205.702 154.404 205.762 154.325C205.821 154.246 205.865 154.157 205.89 154.061C205.915 153.965 205.921 153.866 205.908 153.768C205.894 153.67 205.862 153.575 205.812 153.49C205.762 153.405 205.696 153.33 205.617 153.27C205.538 153.21 205.448 153.167 205.353 153.142C205.257 153.117 205.157 153.111 205.06 153.124C204.962 153.137 204.867 153.17 204.782 153.22C194.695 159.053 184.602 164.88 174.502 170.7C174.329 170.801 174.204 170.966 174.154 171.159C174.103 171.352 174.131 171.558 174.232 171.73C174.333 171.902 174.498 172.028 174.691 172.078C174.884 172.129 175.089 172.101 175.262 172Z" fill="#263238"/>
<path d="M230.992 149.57H331.712C331.911 149.57 332.102 149.491 332.243 149.35C332.383 149.21 332.462 149.019 332.462 148.82C332.462 148.621 332.383 148.43 332.243 148.29C332.102 148.149 331.911 148.07 331.712 148.07H230.992C230.793 148.07 230.603 148.149 230.462 148.29C230.321 148.43 230.242 148.621 230.242 148.82C230.242 149.019 230.321 149.21 230.462 149.35C230.603 149.491 230.793 149.57 230.992 149.57Z" fill="#263238"/>
<path d="M352.572 162.58V188.88C352.572 189.079 352.651 189.27 352.792 189.41C352.933 189.551 353.123 189.63 353.322 189.63C353.521 189.63 353.712 189.551 353.853 189.41C353.993 189.27 354.072 189.079 354.072 188.88V162.58C354.072 162.381 353.993 162.19 353.853 162.05C353.712 161.909 353.521 161.83 353.322 161.83C353.123 161.83 352.933 161.909 352.792 162.05C352.651 162.19 352.572 162.381 352.572 162.58Z" fill="#263238"/>
<path d="M369.021 149.57H388.571C388.77 149.57 388.961 149.491 389.102 149.35C389.242 149.21 389.321 149.019 389.321 148.82C389.321 148.621 389.242 148.43 389.102 148.29C388.961 148.149 388.77 148.07 388.571 148.07H369.021C368.823 148.07 368.632 148.149 368.491 148.29C368.35 148.43 368.271 148.621 368.271 148.82C368.271 149.019 368.35 149.21 368.491 149.35C368.632 149.491 368.823 149.57 369.021 149.57Z" fill="#263238"/>
<path d="M380.532 100.2C373.285 112.733 366.042 125.273 358.802 137.82C358.752 137.905 358.72 138 358.706 138.098C358.693 138.196 358.699 138.295 358.724 138.391C358.749 138.486 358.793 138.576 358.852 138.655C358.912 138.734 358.987 138.8 359.072 138.85C359.157 138.9 359.252 138.932 359.35 138.946C359.448 138.959 359.547 138.953 359.643 138.928C359.739 138.903 359.828 138.86 359.907 138.8C359.986 138.74 360.052 138.665 360.102 138.58L381.822 101C381.909 100.83 381.928 100.633 381.874 100.449C381.821 100.266 381.699 100.11 381.535 100.013C381.37 99.916 381.175 99.8855 380.988 99.9277C380.802 99.9699 380.639 100.082 380.532 100.24V100.2Z" fill="#263238"/>
<path d="M236.111 152.85L231.551 148.29V149.35L236.111 144.79C236.243 144.648 236.315 144.46 236.312 144.265C236.309 144.071 236.23 143.886 236.092 143.748C235.955 143.611 235.77 143.532 235.575 143.529C235.381 143.525 235.193 143.597 235.051 143.73L230.491 148.29C230.35 148.431 230.271 148.621 230.271 148.82C230.271 149.019 230.35 149.209 230.491 149.35L235.051 153.91C235.731 154.6 236.791 153.54 236.111 152.85Z" fill="#263238"/>
<path d="M326.621 144.79L331.181 149.35V148.29L326.621 152.85C326.488 152.992 326.416 153.18 326.419 153.374C326.423 153.569 326.502 153.754 326.639 153.892C326.776 154.029 326.962 154.108 327.156 154.111C327.35 154.114 327.538 154.042 327.681 153.91L332.241 149.35C332.381 149.209 332.46 149.019 332.46 148.82C332.46 148.621 332.381 148.431 332.241 148.29L327.681 143.73C326.991 143.05 325.931 144.11 326.621 144.79Z" fill="#263238"/>
<path d="M302.841 105.83L309.071 104.16L308.141 103.63C308.701 105.71 309.257 107.787 309.811 109.86C309.862 110.052 309.988 110.216 310.161 110.316C310.334 110.415 310.538 110.442 310.731 110.39C310.923 110.338 311.087 110.212 311.186 110.04C311.286 109.867 311.312 109.662 311.261 109.47C310.701 107.39 310.151 105.31 309.591 103.23C309.535 103.041 309.408 102.881 309.236 102.784C309.064 102.687 308.862 102.66 308.671 102.71L302.441 104.38C302.346 104.406 302.256 104.451 302.179 104.512C302.101 104.572 302.035 104.648 301.987 104.734C301.938 104.82 301.907 104.914 301.894 105.012C301.882 105.11 301.889 105.21 301.916 105.305C301.942 105.4 301.987 105.489 302.047 105.567C302.108 105.645 302.184 105.71 302.27 105.759C302.355 105.808 302.45 105.839 302.548 105.851C302.646 105.864 302.746 105.856 302.841 105.83Z" fill="#263238"/>
<path d="M282.322 182.32C300.824 182.32 315.822 167.321 315.822 148.82C315.822 130.318 300.824 115.32 282.322 115.32C263.821 115.32 248.822 130.318 248.822 148.82C248.822 167.321 263.821 182.32 282.322 182.32Z" fill="#006DB7"/>
<path opacity="0.7" d="M282.322 182.32C300.824 182.32 315.822 167.321 315.822 148.82C315.822 130.318 300.824 115.32 282.322 115.32C263.821 115.32 248.822 130.318 248.822 148.82C248.822 167.321 263.821 182.32 282.322 182.32Z" fill="white"/>
<path d="M309.773 155.298C313.353 140.13 303.958 124.931 288.79 121.351C273.621 117.77 258.422 127.165 254.842 142.334C251.262 157.502 260.656 172.701 275.825 176.281C290.993 179.862 306.192 170.467 309.773 155.298Z" fill="#006DB7"/>
<path opacity="0.8" d="M309.773 155.298C313.353 140.13 303.958 124.931 288.79 121.351C273.621 117.77 258.422 127.165 254.842 142.334C251.262 157.502 260.656 172.701 275.825 176.281C290.993 179.862 306.192 170.467 309.773 155.298Z" fill="white"/>
<path opacity="0.9" d="M282.322 170.06C294.053 170.06 303.562 160.55 303.562 148.82C303.562 137.089 294.053 127.58 282.322 127.58C270.591 127.58 261.082 137.089 261.082 148.82C261.082 160.55 270.591 170.06 282.322 170.06Z" fill="white"/>
<path d="M310.375 53.7557C314.23 44.4219 309.789 33.73 300.455 29.8748C291.122 26.0195 280.43 30.4607 276.574 39.7946C272.719 49.1284 277.16 59.8203 286.494 63.6755C295.828 67.5308 306.52 63.0896 310.375 53.7557Z" fill="#006DB7"/>
<path opacity="0.7" d="M310.375 53.7557C314.23 44.4219 309.789 33.73 300.455 29.8748C291.122 26.0195 280.43 30.4607 276.574 39.7946C272.719 49.1284 277.16 59.8203 286.494 63.6755C295.828 67.5308 306.52 63.0896 310.375 53.7557Z" fill="white"/>
<path d="M322.375 105.2C332.62 102.782 338.965 92.5165 336.547 82.2714C334.129 72.0264 323.864 65.6814 313.619 68.0994C303.374 70.5175 297.029 80.7829 299.447 91.028C301.865 101.273 312.13 107.618 322.375 105.2Z" fill="#006DB7"/>
<path opacity="0.7" d="M322.375 105.2C332.62 102.782 338.965 92.5165 336.547 82.2714C334.129 72.0264 323.864 65.6814 313.619 68.0994C303.374 70.5175 297.029 80.7829 299.447 91.028C301.865 101.273 312.13 107.618 322.375 105.2Z" fill="white"/>
<path d="M214.242 165.57C223.493 165.57 230.992 158.071 230.992 148.82C230.992 139.569 223.493 132.07 214.242 132.07C204.991 132.07 197.492 139.569 197.492 148.82C197.492 158.071 204.991 165.57 214.242 165.57Z" fill="#006DB7"/>
<path opacity="0.7" d="M214.242 165.57C223.493 165.57 230.992 158.071 230.992 148.82C230.992 139.569 223.493 132.07 214.242 132.07C204.991 132.07 197.492 139.569 197.492 148.82C197.492 158.071 204.991 165.57 214.242 165.57Z" fill="white"/>
<path d="M214.241 93.72C226.32 93.72 236.111 83.9284 236.111 71.85C236.111 59.7715 226.32 49.98 214.241 49.98C202.163 49.98 192.371 59.7715 192.371 71.85C192.371 83.9284 202.163 93.72 214.241 93.72Z" fill="#006DB7"/>
<path opacity="0.7" d="M214.241 93.72C226.32 93.72 236.111 83.9284 236.111 71.85C236.111 59.7715 226.32 49.98 214.241 49.98C202.163 49.98 192.371 59.7715 192.371 71.85C192.371 83.9284 202.163 93.72 214.241 93.72Z" fill="white"/>
<path d="M353.321 211.72C361.992 211.72 369.021 204.691 369.021 196.02C369.021 187.349 361.992 180.32 353.321 180.32C344.65 180.32 337.621 187.349 337.621 196.02C337.621 204.691 344.65 211.72 353.321 211.72Z" fill="#006DB7"/>
<path opacity="0.7" d="M353.321 211.72C361.992 211.72 369.021 204.691 369.021 196.02C369.021 187.349 361.992 180.32 353.321 180.32C344.65 180.32 337.621 187.349 337.621 196.02C337.621 204.691 344.65 211.72 353.321 211.72Z" fill="white"/>
<path d="M397.422 162.58C405.022 162.58 411.182 156.419 411.182 148.82C411.182 141.221 405.022 135.06 397.422 135.06C389.823 135.06 383.662 141.221 383.662 148.82C383.662 156.419 389.823 162.58 397.422 162.58Z" fill="#006DB7"/>
<path opacity="0.7" d="M397.422 162.58C405.022 162.58 411.182 156.419 411.182 148.82C411.182 141.221 405.022 135.06 397.422 135.06C389.823 135.06 383.662 141.221 383.662 148.82C383.662 156.419 389.823 162.58 397.422 162.58Z" fill="white"/>
<path d="M385.418 121.149C396.771 118.47 403.801 107.095 401.122 95.7426C398.443 84.3902 387.068 77.3594 375.715 80.0388C364.363 82.7182 357.332 94.0932 360.012 105.446C362.691 116.798 374.066 123.829 385.418 121.149Z" fill="#006DB7"/>
<path opacity="0.7" d="M385.418 121.149C396.771 118.47 403.801 107.095 401.122 95.7426C398.443 84.3902 387.068 77.3594 375.715 80.0388C364.363 82.7182 357.332 94.0932 360.012 105.446C362.691 116.798 374.066 123.829 385.418 121.149Z" fill="white"/>
<path d="M223.895 39.0178C229.226 33.6872 229.226 25.0445 223.895 19.7138C218.565 14.3832 209.922 14.3832 204.591 19.7138C199.261 25.0445 199.261 33.6872 204.591 39.0178C209.922 44.3485 218.565 44.3485 223.895 39.0178Z" fill="#006DB7"/>
<path opacity="0.7" d="M223.895 39.0178C229.226 33.6872 229.226 25.0445 223.895 19.7138C218.565 14.3832 209.922 14.3832 204.591 19.7138C199.261 25.0445 199.261 33.6872 204.591 39.0178C209.922 44.3485 218.565 44.3485 223.895 39.0178Z" fill="white"/>
<path d="M214.242 210.77C223.493 210.77 230.992 203.271 230.992 194.02C230.992 184.769 223.493 177.27 214.242 177.27C204.991 177.27 197.492 184.769 197.492 194.02C197.492 203.271 204.991 210.77 214.242 210.77Z" fill="#006DB7"/>
<path opacity="0.7" d="M214.242 210.77C223.493 210.77 230.992 203.271 230.992 194.02C230.992 184.769 223.493 177.27 214.242 177.27C204.991 177.27 197.492 184.769 197.492 194.02C197.492 203.271 204.991 210.77 214.242 210.77Z" fill="white"/>
<path d="M174.882 188.8C184.536 188.8 192.362 180.974 192.362 171.32C192.362 161.666 184.536 153.84 174.882 153.84C165.228 153.84 157.402 161.666 157.402 171.32C157.402 180.974 165.228 188.8 174.882 188.8Z" fill="#006DB7"/>
<path opacity="0.7" d="M174.882 188.8C184.536 188.8 192.362 180.974 192.362 171.32C192.362 161.666 184.536 153.84 174.882 153.84C165.228 153.84 157.402 161.666 157.402 171.32C157.402 180.974 165.228 188.8 174.882 188.8Z" fill="white"/>
<path d="M178.029 145.237C188.725 143.501 195.988 133.423 194.252 122.727C192.515 112.031 182.437 104.768 171.742 106.504C161.046 108.24 153.782 118.318 155.519 129.014C157.255 139.71 167.333 146.973 178.029 145.237Z" fill="#006DB7"/>
<path opacity="0.7" d="M178.029 145.237C188.725 143.501 195.988 133.423 194.252 122.727C192.515 112.031 182.437 104.768 171.742 106.504C161.046 108.24 153.782 118.318 155.519 129.014C157.255 139.71 167.333 146.973 178.029 145.237Z" fill="white"/>
<path d="M180.062 63.8109C187.492 62.6047 192.538 55.6035 191.332 48.1731C190.126 40.7427 183.125 35.6969 175.694 36.903C168.264 38.1092 163.218 45.1104 164.424 52.5408C165.63 59.9712 172.631 65.017 180.062 63.8109Z" fill="#006DB7"/>
<path opacity="0.7" d="M180.062 63.8109C187.492 62.6047 192.538 55.6035 191.332 48.1731C190.126 40.7427 183.125 35.6969 175.694 36.903C168.264 38.1092 163.218 45.1104 164.424 52.5408C165.63 59.9712 172.631 65.017 180.062 63.8109Z" fill="white"/>
<path d="M252.802 105.813C260.233 104.607 265.278 97.6058 264.072 90.1754C262.866 82.745 255.865 77.6993 248.434 78.9054C241.004 80.1115 235.958 87.1128 237.164 94.5432C238.37 101.974 245.372 107.019 252.802 105.813Z" fill="#006DB7"/>
<path opacity="0.7" d="M252.802 105.813C260.233 104.607 265.278 97.6058 264.072 90.1754C262.866 82.745 255.865 77.6993 248.434 78.9054C241.004 80.1115 235.958 87.1128 237.164 94.5432C238.37 101.974 245.372 107.019 252.802 105.813Z" fill="white"/>
<path d="M342.441 64.9001C353.288 64.9001 362.081 56.107 362.081 45.2601C362.081 34.4132 353.288 25.6201 342.441 25.6201C331.594 25.6201 322.801 34.4132 322.801 45.2601C322.801 56.107 331.594 64.9001 342.441 64.9001Z" fill="#006DB7"/>
<path opacity="0.7" d="M342.441 64.9001C353.288 64.9001 362.081 56.107 362.081 45.2601C362.081 34.4132 353.288 25.6201 342.441 25.6201C331.594 25.6201 322.801 34.4132 322.801 45.2601C322.801 56.107 331.594 64.9001 342.441 64.9001Z" fill="white"/>
<path d="M353.321 170.43C365.256 170.43 374.931 160.755 374.931 148.82C374.931 136.885 365.256 127.21 353.321 127.21C341.386 127.21 331.711 136.885 331.711 148.82C331.711 160.755 341.386 170.43 353.321 170.43Z" fill="#006DB7"/>
<path opacity="0.7" d="M353.321 170.43C365.256 170.43 374.931 160.755 374.931 148.82C374.931 136.885 365.256 127.21 353.321 127.21C341.386 127.21 331.711 136.885 331.711 148.82C331.711 160.755 341.386 170.43 353.321 170.43Z" fill="white"/>
<path d="M214.241 90.8799C224.751 90.8799 233.271 82.3598 233.271 71.8498C233.271 61.3399 224.751 52.8198 214.241 52.8198C203.731 52.8198 195.211 61.3399 195.211 71.8498C195.211 82.3598 203.731 90.8799 214.241 90.8799Z" fill="#006DB7"/>
<path d="M174.882 141.02C183.244 141.02 190.022 134.242 190.022 125.88C190.022 117.518 183.244 110.74 174.882 110.74C166.521 110.74 159.742 117.518 159.742 125.88C159.742 134.242 166.521 141.02 174.882 141.02Z" fill="#006DB7"/>
<path d="M180.388 184.625C187.735 181.581 191.224 173.158 188.181 165.81C185.137 158.463 176.714 154.974 169.366 158.017C162.019 161.06 158.53 169.484 161.573 176.831C164.617 184.179 173.04 187.668 180.388 184.625Z" fill="#006DB7"/>
<path d="M223.128 157.701C228.033 152.796 228.033 144.843 223.128 139.938C218.223 135.033 210.271 135.033 205.366 139.938C200.461 144.843 200.461 152.796 205.366 157.701C210.271 162.606 218.223 162.606 223.128 157.701Z" fill="#006DB7"/>
<path d="M223.732 203.524C228.973 198.284 228.973 189.786 223.732 184.546C218.491 179.305 209.994 179.305 204.753 184.546C199.512 189.786 199.512 198.284 204.753 203.524C209.994 208.765 218.491 208.765 223.732 203.524Z" fill="#006DB7"/>
<path d="M186.312 51.7395C187.068 47.0785 183.903 42.6866 179.242 41.9301C174.581 41.1735 170.189 44.3386 169.432 48.9997C168.676 53.6607 171.841 58.0525 176.502 58.8091C181.163 59.5657 185.555 56.4005 186.312 51.7395Z" fill="#006DB7"/>
<path d="M225.415 31.996C226.873 25.8199 223.048 19.6316 216.872 18.1739C210.696 16.7162 204.507 20.5412 203.05 26.7173C201.592 32.8933 205.417 39.0817 211.593 40.5394C217.769 41.9971 223.957 38.1721 225.415 31.996Z" fill="#006DB7"/>
<path d="M250.612 101.98C255.919 101.98 260.222 97.6775 260.222 92.37C260.222 87.0626 255.919 82.76 250.612 82.76C245.304 82.76 241.002 87.0626 241.002 92.37C241.002 97.6775 245.304 101.98 250.612 101.98Z" fill="#006DB7"/>
<path d="M294.652 60.2101C302.555 60.2101 308.962 53.8033 308.962 45.9001C308.962 37.9969 302.555 31.5901 294.652 31.5901C286.749 31.5901 280.342 37.9969 280.342 45.9001C280.342 53.8033 286.749 60.2101 294.652 60.2101Z" fill="#006DB7"/>
<path d="M342.441 62.3899C351.901 62.3899 359.571 54.7205 359.571 45.2599C359.571 35.7993 351.901 28.1299 342.441 28.1299C332.98 28.1299 325.311 35.7993 325.311 45.2599C325.311 54.7205 332.98 62.3899 342.441 62.3899Z" fill="#006DB7"/>
<path d="M353.322 165.57C362.573 165.57 370.072 158.071 370.072 148.82C370.072 139.569 362.573 132.07 353.322 132.07C344.071 132.07 336.572 139.569 336.572 148.82C336.572 158.071 344.071 165.57 353.322 165.57Z" fill="#006DB7"/>
<path d="M318.002 101.98C326.474 101.98 333.342 95.1119 333.342 86.6398C333.342 78.1678 326.474 71.2998 318.002 71.2998C309.53 71.2998 302.662 78.1678 302.662 86.6398C302.662 95.1119 309.53 101.98 318.002 101.98Z" fill="#006DB7"/>
<path d="M393.545 113.551C400.711 106.385 400.712 94.7665 393.545 87.6004C386.379 80.4343 374.761 80.4343 367.595 87.6004C360.428 94.7665 360.428 106.385 367.595 113.551C374.761 120.717 386.379 120.717 393.545 113.551Z" fill="#006DB7"/>
<path d="M353.321 205.98C358.822 205.98 363.281 201.521 363.281 196.02C363.281 190.519 358.822 186.06 353.321 186.06C347.821 186.06 343.361 190.519 343.361 196.02C343.361 201.521 347.821 205.98 353.321 205.98Z" fill="#006DB7"/>
<path opacity="0.5" d="M214.241 90.8799C224.751 90.8799 233.271 82.3598 233.271 71.8498C233.271 61.3399 224.751 52.8198 214.241 52.8198C203.731 52.8198 195.211 61.3399 195.211 71.8498C195.211 82.3598 203.731 90.8799 214.241 90.8799Z" fill="white"/>
<path opacity="0.4" d="M174.882 141.02C183.244 141.02 190.022 134.242 190.022 125.88C190.022 117.518 183.244 110.74 174.882 110.74C166.521 110.74 159.742 117.518 159.742 125.88C159.742 134.242 166.521 141.02 174.882 141.02Z" fill="white"/>
<path opacity="0.9" d="M180.388 184.625C187.735 181.581 191.224 173.158 188.181 165.81C185.137 158.463 176.714 154.974 169.366 158.017C162.019 161.06 158.53 169.484 161.573 176.831C164.617 184.179 173.04 187.668 180.388 184.625Z" fill="white"/>
<path opacity="0.4" d="M223.732 203.524C228.973 198.284 228.973 189.786 223.732 184.546C218.491 179.305 209.994 179.305 204.753 184.546C199.512 189.786 199.512 198.284 204.753 203.524C209.994 208.765 218.491 208.765 223.732 203.524Z" fill="white"/>
<path opacity="0.2" d="M225.415 31.996C226.873 25.8199 223.048 19.6316 216.872 18.1739C210.696 16.7162 204.507 20.5412 203.05 26.7173C201.592 32.8933 205.417 39.0817 211.593 40.5394C217.769 41.9971 223.957 38.1721 225.415 31.996Z" fill="white"/>
<path opacity="0.2" d="M250.612 101.98C255.919 101.98 260.222 97.6775 260.222 92.37C260.222 87.0626 255.919 82.76 250.612 82.76C245.304 82.76 241.002 87.0626 241.002 92.37C241.002 97.6775 245.304 101.98 250.612 101.98Z" fill="white"/>
<path opacity="0.9" d="M294.652 60.2101C302.555 60.2101 308.962 53.8033 308.962 45.9001C308.962 37.9969 302.555 31.5901 294.652 31.5901C286.749 31.5901 280.342 37.9969 280.342 45.9001C280.342 53.8033 286.749 60.2101 294.652 60.2101Z" fill="white"/>
<path opacity="0.2" d="M342.441 62.3899C351.901 62.3899 359.571 54.7205 359.571 45.2599C359.571 35.7993 351.901 28.1299 342.441 28.1299C332.98 28.1299 325.311 35.7993 325.311 45.2599C325.311 54.7205 332.98 62.3899 342.441 62.3899Z" fill="white"/>
<path opacity="0.4" d="M353.322 165.57C362.573 165.57 370.072 158.071 370.072 148.82C370.072 139.569 362.573 132.07 353.322 132.07C344.071 132.07 336.572 139.569 336.572 148.82C336.572 158.071 344.071 165.57 353.322 165.57Z" fill="white"/>
<path opacity="0.2" d="M393.545 113.551C400.711 106.385 400.712 94.7665 393.545 87.6004C386.379 80.4343 374.761 80.4343 367.595 87.6004C360.428 94.7665 360.428 106.385 367.595 113.551C374.761 120.717 386.379 120.717 393.545 113.551Z" fill="white"/>
<path opacity="0.2" d="M353.321 205.98C358.822 205.98 363.281 201.521 363.281 196.02C363.281 190.519 358.822 186.06 353.321 186.06C347.821 186.06 343.361 190.519 343.361 196.02C343.361 201.521 347.821 205.98 353.321 205.98Z" fill="white"/>
<path opacity="0.8" d="M397.421 158.69C402.872 158.69 407.291 154.271 407.291 148.82C407.291 143.369 402.872 138.95 397.421 138.95C391.97 138.95 387.551 143.369 387.551 148.82C387.551 154.271 391.97 158.69 397.421 158.69Z" fill="#006DB7"/>
<path d="M214.241 59.8501L216.661 62.2501L219.961 61.3901L220.861 64.6801L224.161 65.5801L223.291 68.8801L225.691 71.3001L223.291 73.7301L224.161 77.0301L220.861 77.9301L219.961 81.2201L216.661 80.3601L214.241 82.7601L211.811 80.3601L208.511 81.2201L207.611 77.9301L204.321 77.0301L205.191 73.7301L202.791 71.3001L205.191 68.8801L204.321 65.5801L207.611 64.6801L208.511 61.3901L211.811 62.2501L214.241 59.8501Z" fill="#006DB7"/>
<path d="M214.491 142.4L216.901 145.52L220.621 146.85L218.391 150.11L218.281 154.06L214.491 152.95L210.701 154.06L210.581 150.11L208.361 146.85L212.081 145.52L214.491 142.4Z" fill="white"/>
<path d="M177.862 46.3701L179.362 48.3001L181.662 49.1201L180.282 51.1401L180.212 53.5801L177.862 52.8901L175.522 53.5801L175.452 51.1401L174.082 49.1201L176.372 48.3001L177.862 46.3701Z" fill="white"/>
<path d="M314.091 78.24L318.941 84.61L307.711 83.1L314.091 78.24Z" fill="white"/>
<path d="M319.811 88.3989L312.465 87.4343L311.5 94.7801L318.846 95.7447L319.811 88.3989Z" fill="white"/>
<path d="M330.272 86.6201C330.17 87.3704 329.849 88.0738 329.348 88.6414C328.847 89.209 328.188 89.6154 327.456 89.8091C326.725 90.0028 325.952 89.9753 325.235 89.7299C324.519 89.4845 323.892 89.0324 323.432 88.4305C322.973 87.8287 322.702 87.1041 322.654 86.3485C322.606 85.5928 322.784 84.84 323.163 84.185C323.543 83.5301 324.109 83.0024 324.788 82.6687C325.468 82.335 326.231 82.2102 326.982 82.3101C327.482 82.3753 327.964 82.5388 328.4 82.7911C328.836 83.0434 329.218 83.3795 329.524 83.7801C329.83 84.1808 330.054 84.638 330.182 85.1254C330.31 85.6128 330.341 86.1208 330.272 86.6201Z" fill="white"/>
<path d="M336.621 44.5398L341.671 48.2898L332.871 49.5898L336.621 44.5398Z" fill="white"/>
<path d="M343.259 52.052L337.502 52.9022L338.352 58.6598L344.11 57.8096L343.259 52.052Z" fill="white"/>
<path d="M332.913 40.1814L328.719 40.8008L329.338 44.9953L333.533 44.3759L332.913 40.1814Z" fill="white"/>
<path d="M355.62 40.4707L351.426 41.0901L352.045 45.2846L356.24 44.6652L355.62 40.4707Z" fill="white"/>
<path d="M350.641 47.3399C350.726 47.9262 350.634 48.5242 350.379 49.0587C350.124 49.5932 349.716 50.0402 349.207 50.3433C348.698 50.6464 348.111 50.7921 347.52 50.762C346.928 50.732 346.359 50.5275 345.883 50.1743C345.408 49.8212 345.047 49.3352 344.848 48.7776C344.648 48.22 344.618 47.6157 344.761 47.041C344.904 46.4662 345.214 45.9467 345.652 45.5479C346.09 45.1491 346.636 44.8888 347.221 44.7999C347.613 44.7404 348.012 44.7591 348.397 44.8548C348.781 44.9505 349.143 45.1213 349.461 45.3575C349.779 45.5936 350.047 45.8903 350.249 46.2306C350.452 46.5708 350.585 46.9479 350.641 47.3399Z" fill="white"/>
<path d="M349.911 35.6999L346.161 40.7499L344.861 31.9399L349.911 35.6999Z" fill="white"/>
<path d="M342.065 39.532L341.215 33.7744L335.457 34.6246L336.307 40.3822L342.065 39.532Z" fill="white"/>
<path d="M349.632 144.2L351.682 149.04L356.912 149.49L352.942 152.93L354.132 158.05L349.632 155.34L345.132 158.05L346.322 152.93L342.352 149.49L347.592 149.04L349.632 144.2Z" fill="#006DB7"/>
<path d="M358.371 136.39L359.661 139.44L362.961 139.72L360.451 141.89L361.201 145.12L358.371 143.41L355.531 145.12L356.281 141.89L353.781 139.72L357.081 139.44L358.371 136.39Z" fill="#006DB7"/>
<path d="M361.261 150.97L362.071 152.89L364.151 153.07L362.571 154.44L363.051 156.47L361.261 155.39L359.471 156.47L359.941 154.44L358.371 153.07L360.451 152.89L361.261 150.97Z" fill="#006DB7"/>
<path d="M374.881 101.61C374.881 102.047 374.751 102.474 374.508 102.838C374.266 103.201 373.921 103.484 373.517 103.652C373.113 103.819 372.668 103.863 372.24 103.777C371.811 103.692 371.417 103.482 371.108 103.173C370.799 102.864 370.589 102.47 370.503 102.041C370.418 101.612 370.462 101.168 370.629 100.764C370.796 100.36 371.08 100.015 371.443 99.7724C371.807 99.5295 372.234 99.3999 372.671 99.3999C373.257 99.3999 373.819 99.6327 374.234 100.047C374.648 100.462 374.881 101.024 374.881 101.61Z" fill="white"/>
<path d="M381.832 101.61C381.832 102.047 381.702 102.474 381.46 102.838C381.217 103.201 380.872 103.484 380.468 103.652C380.064 103.819 379.62 103.863 379.191 103.777C378.762 103.692 378.368 103.482 378.059 103.173C377.75 102.864 377.54 102.47 377.455 102.041C377.369 101.612 377.413 101.168 377.58 100.764C377.748 100.36 378.031 100.015 378.394 99.7724C378.758 99.5295 379.185 99.3999 379.622 99.3999C380.208 99.3999 380.77 99.6327 381.185 100.047C381.599 100.462 381.832 101.024 381.832 101.61Z" fill="white"/>
<path d="M388.772 101.61C388.772 102.047 388.642 102.474 388.399 102.838C388.156 103.201 387.811 103.484 387.407 103.652C387.003 103.819 386.559 103.863 386.13 103.777C385.702 103.692 385.308 103.482 384.999 103.173C384.69 102.864 384.479 102.47 384.394 102.041C384.309 101.612 384.353 101.168 384.52 100.764C384.687 100.36 384.97 100.015 385.334 99.7724C385.697 99.5295 386.124 99.3999 386.562 99.3999C387.148 99.3999 387.71 99.6327 388.124 100.047C388.539 100.462 388.772 101.024 388.772 101.61Z" fill="white"/>
<path d="M170.111 171.38C170.111 171.817 169.982 172.244 169.739 172.608C169.496 172.971 169.151 173.254 168.747 173.422C168.343 173.589 167.899 173.633 167.47 173.547C167.042 173.462 166.648 173.252 166.339 172.943C166.03 172.634 165.819 172.24 165.734 171.811C165.649 171.382 165.692 170.938 165.86 170.534C166.027 170.13 166.31 169.785 166.674 169.542C167.037 169.3 167.464 169.17 167.901 169.17C168.488 169.17 169.05 169.403 169.464 169.817C169.879 170.232 170.111 170.794 170.111 171.38Z" fill="#006DB7"/>
<path d="M174.882 173.59C176.102 173.59 177.092 172.6 177.092 171.38C177.092 170.159 176.102 169.17 174.882 169.17C173.661 169.17 172.672 170.159 172.672 171.38C172.672 172.6 173.661 173.59 174.882 173.59Z" fill="#006DB7"/>
<path d="M184.041 171.38C184.041 171.817 183.911 172.244 183.669 172.608C183.426 172.971 183.081 173.254 182.677 173.422C182.273 173.589 181.829 173.633 181.4 173.547C180.971 173.462 180.577 173.252 180.268 172.943C179.959 172.634 179.749 172.24 179.664 171.811C179.578 171.382 179.622 170.938 179.789 170.534C179.957 170.13 180.24 169.785 180.603 169.542C180.967 169.3 181.394 169.17 181.831 169.17C182.417 169.17 182.979 169.403 183.394 169.817C183.808 170.232 184.041 170.794 184.041 171.38Z" fill="#006DB7"/>
<path d="M286.952 48.1099C288.173 48.1099 289.162 47.1205 289.162 45.8999C289.162 44.6794 288.173 43.6899 286.952 43.6899C285.732 43.6899 284.742 44.6794 284.742 45.8999C284.742 47.1205 285.732 48.1099 286.952 48.1099Z" fill="#006DB7"/>
<path d="M293.901 48.1099C295.122 48.1099 296.111 47.1205 296.111 45.8999C296.111 44.6794 295.122 43.6899 293.901 43.6899C292.681 43.6899 291.691 44.6794 291.691 45.8999C291.691 47.1205 292.681 48.1099 293.901 48.1099Z" fill="#006DB7"/>
<path d="M303.111 45.8999C303.111 46.337 302.982 46.7643 302.739 47.1277C302.496 47.4912 302.151 47.7744 301.747 47.9417C301.343 48.109 300.899 48.1527 300.47 48.0675C300.042 47.9822 299.648 47.7717 299.339 47.4626C299.03 47.1536 298.819 46.7598 298.734 46.3311C298.649 45.9024 298.692 45.458 298.86 45.0542C299.027 44.6504 299.31 44.3052 299.674 44.0624C300.037 43.8196 300.464 43.6899 300.901 43.6899C301.488 43.6899 302.05 43.9228 302.464 44.3372C302.879 44.7517 303.111 45.3138 303.111 45.8999Z" fill="#006DB7"/>
<path d="M402.017 146.911L395.559 143.961L392.609 150.419L399.067 153.369L402.017 146.911Z" fill="white"/>
<path d="M255.188 94.4584L252.707 87.8059L246.054 90.2866L248.535 96.9391L255.188 94.4584Z" fill="white"/>
<path d="M348.322 196.93L355.472 191.26L357.292 200.2L348.322 196.93Z" fill="white"/>
<path d="M207.162 189L212.602 184.69L213.992 191.49L207.162 189Z" fill="white"/>
<path d="M218.201 193.74L219.001 186.84L224.791 190.67L218.201 193.74Z" fill="white"/>
<path d="M214.912 202.65L215.702 195.75L221.492 199.58L214.912 202.65Z" fill="white"/>
<path d="M205.592 198.15L211.302 194.19L212.242 201.07L205.592 198.15Z" fill="white"/>
<path d="M209.002 29.8399L216.152 24.1699L217.972 33.1099L209.002 29.8399Z" fill="white"/>
<path d="M173.202 126.83L168.372 121.83C168.176 121.602 167.935 121.417 167.664 121.286C167.393 121.155 167.099 121.081 166.798 121.067C166.498 121.054 166.198 121.102 165.917 121.209C165.635 121.315 165.379 121.478 165.163 121.688C164.947 121.897 164.776 122.148 164.66 122.426C164.544 122.703 164.487 123.002 164.49 123.302C164.494 123.603 164.559 123.9 164.682 124.175C164.804 124.449 164.981 124.696 165.202 124.9L170.032 129.9C170.234 130.111 170.475 130.279 170.742 130.396C171.009 130.513 171.297 130.576 171.589 130.581C171.88 130.587 172.17 130.534 172.441 130.427C172.712 130.32 172.96 130.16 173.169 129.957C173.378 129.754 173.545 129.511 173.66 129.243C173.775 128.975 173.836 128.687 173.839 128.395C173.842 128.104 173.787 127.814 173.678 127.544C173.569 127.274 173.407 127.028 173.202 126.82V126.83Z" fill="#006DB7"/>
<path d="M180.112 118.15L174.512 118.36C174.04 118.379 173.595 118.584 173.274 118.931C172.953 119.278 172.784 119.738 172.802 120.21C172.821 120.682 173.026 121.127 173.373 121.448C173.72 121.769 174.18 121.939 174.652 121.92L180.242 121.71C180.714 121.693 181.16 121.489 181.482 121.143C181.803 120.797 181.974 120.337 181.957 119.865C181.94 119.393 181.736 118.947 181.39 118.625C181.044 118.304 180.584 118.133 180.112 118.15Z" fill="#006DB7"/>
<path d="M181.111 129.55C180.971 129.23 179.381 125.77 179.241 125.45C179.172 125.265 179.065 125.096 178.927 124.954C178.789 124.812 178.624 124.7 178.441 124.625C178.258 124.549 178.062 124.513 177.864 124.517C177.666 124.521 177.471 124.566 177.292 124.648C177.112 124.731 176.951 124.85 176.819 124.997C176.688 125.144 176.588 125.317 176.526 125.505C176.464 125.693 176.441 125.892 176.459 126.089C176.477 126.286 176.536 126.477 176.631 126.65C176.781 126.99 178.351 130.4 178.501 130.74C178.579 130.911 178.69 131.066 178.828 131.194C178.966 131.322 179.128 131.422 179.304 131.488C179.48 131.554 179.668 131.585 179.856 131.578C180.045 131.572 180.23 131.528 180.401 131.45C180.572 131.372 180.727 131.261 180.855 131.123C180.984 130.985 181.084 130.823 181.15 130.647C181.216 130.471 181.246 130.283 181.239 130.095C181.233 129.906 181.189 129.721 181.111 129.55Z" fill="#006DB7"/>
<path d="M277.82 167.46C277.82 167.46 274.01 174.35 267.11 171.15C260.21 167.95 265.44 158.62 265.11 154.43C264.78 150.24 257.11 139.99 269.46 138.26C269.46 138.26 279.39 127.34 292.86 135.06C302.39 140.53 300.75 146.06 303.33 149.8C304.71 151.8 312.5 154.9 310.65 161.48C309.75 164.7 308.01 165.86 300.74 166.1C295 166.29 290.51 175.65 277.82 167.46Z" fill="#263238"/>
<path d="M285.901 244.19C285.901 244.19 234.751 240.42 231.021 254.98C227.291 269.54 233.511 314.3 234.401 329.57H246.111C246.111 329.57 251.111 285.06 249.421 268.51C249.421 268.51 318.421 283.93 318.071 249.65L285.901 244.19Z" fill="#006DB7"/>
<path opacity="0.3" d="M285.901 244.19C285.901 244.19 234.751 240.42 231.021 254.98C227.291 269.54 233.511 314.3 234.401 329.57H246.111C246.111 329.57 251.111 285.06 249.421 268.51C249.421 268.51 318.421 283.93 318.071 249.65L285.901 244.19Z" fill="white"/>
<path d="M243.36 328.34L243.16 341.56L236.22 340.92L235.75 328.92L243.36 328.34Z" fill="#FFB573"/>
<path d="M232.18 341C231.333 340.955 230.532 340.599 229.93 340C229.866 339.866 229.845 339.715 229.87 339.568C229.895 339.421 229.965 339.285 230.07 339.18C230.237 338.982 230.473 338.857 230.73 338.83C232.11 338.66 234.65 340.67 234.73 340.76C234.763 340.782 234.787 340.816 234.798 340.854C234.809 340.892 234.806 340.933 234.79 340.97C234.777 341.005 234.754 341.037 234.724 341.06C234.694 341.083 234.658 341.097 234.62 341.1C233.805 341.135 232.989 341.102 232.18 341ZM231.18 339.26C231.058 339.24 230.933 339.24 230.81 339.26C230.73 339.261 230.652 339.281 230.581 339.317C230.509 339.353 230.448 339.406 230.4 339.47C230.22 339.68 230.26 339.8 230.3 339.87C230.59 340.45 232.6 340.76 234.11 340.8C233.219 340.095 232.2 339.569 231.11 339.25L231.18 339.26Z" fill="#006DB7"/>
<path d="M234.62 341.12C234.594 341.13 234.565 341.13 234.54 341.12C233.65 340.56 232 338.54 232.3 337.67C232.36 337.46 232.56 337.22 233.09 337.25C233.28 337.258 233.467 337.304 233.639 337.387C233.811 337.469 233.964 337.586 234.09 337.73C234.98 338.73 234.86 340.89 234.86 340.99C234.857 341.024 234.846 341.057 234.827 341.085C234.807 341.113 234.781 341.136 234.75 341.15C234.704 341.155 234.658 341.145 234.62 341.12ZM233.16 337.6H233.05C232.71 337.6 232.67 337.71 232.64 337.75C232.51 338.29 233.56 339.83 234.46 340.56C234.506 339.643 234.265 338.734 233.77 337.96C233.614 337.777 233.397 337.656 233.16 337.62V337.6Z" fill="#006DB7"/>
<path d="M235.63 340.13L244.32 341.44C244.48 341.463 244.627 341.54 244.736 341.658C244.845 341.777 244.91 341.929 244.92 342.09L245.43 349.4C245.452 349.711 245.35 350.019 245.146 350.255C244.941 350.491 244.652 350.637 244.34 350.66C244.257 350.67 244.173 350.67 244.09 350.66C240.97 350.14 238.21 349.55 234.31 348.96C229.71 348.27 230.79 348.96 225.37 348.26C222.1 347.82 222.06 344.02 223.47 344.05C229.92 344.2 230.87 342.39 233.65 340.49C234.245 340.133 234.949 340.005 235.63 340.13Z" fill="#263238"/>
<path opacity="0.1" d="M235.63 340.13L244.32 341.44C244.48 341.463 244.627 341.54 244.736 341.658C244.845 341.777 244.91 341.929 244.92 342.09L245.43 349.4C245.452 349.711 245.35 350.019 245.146 350.255C244.941 350.491 244.652 350.637 244.34 350.66C244.257 350.67 244.173 350.67 244.09 350.66C240.97 350.14 238.21 349.55 234.31 348.96C229.71 348.27 230.79 348.96 225.37 348.26C222.1 347.82 222.06 344.02 223.47 344.05C229.92 344.2 230.87 342.39 233.65 340.49C234.245 340.133 234.949 340.005 235.63 340.13Z" fill="black"/>
<path opacity="0.2" d="M243.33 330.42L243.25 335.38L236 335.37L235.85 331.39L243.33 330.42Z" fill="black"/>
<path d="M248.851 326.58L248.441 332.35L232.821 333.05L231.711 327.13L248.851 326.58Z" fill="#006DB7"/>
<path d="M271.599 195.63C271.599 195.63 266.109 217.92 265.109 222C265.109 222 260.579 222 248.709 227.81C248.709 227.81 240.599 224.3 236.959 226.72C235.381 227.729 234.261 229.315 233.839 231.14C233.798 231.34 233.801 231.547 233.85 231.746C233.898 231.944 233.991 232.129 234.12 232.288C234.25 232.446 234.413 232.573 234.598 232.66C234.783 232.747 234.985 232.791 235.189 232.79H248.349C252.589 232.79 253.619 232.07 255.349 231.79C260.579 231.02 271.769 232.79 275.049 224.16C277.359 218.16 283.989 201.87 281.509 191.09L274.679 192.67L271.599 195.63Z" fill="#FFB573"/>
<path d="M278.65 178.31C278.65 178.31 271.09 179.63 268.65 200.04C268.65 200.04 266.32 200.82 267.45 204.04C267.45 204.04 276.02 204.29 281.52 209.41C281.52 209.41 284.78 206.96 283.15 205.09C283.2 205.05 286.27 183.3 278.65 178.31Z" fill="#006DB7"/>
<path d="M290.93 159.46C290.93 159.46 292.74 172.14 301.42 171.61C301.42 171.61 297.55 189.98 287.7 189.01C277.85 188.04 280.11 176.93 280.11 176.93C280.11 176.93 284.62 176.93 283.8 172.7C283.191 170.612 282.459 168.562 281.61 166.56L290.93 159.46Z" fill="#FFB573"/>
<path d="M282.41 239C282.41 239 283.41 251.12 287.66 255C287.66 255 325.33 258 326.03 248.25C326.38 243.38 321.19 237.58 321.19 237.58L282.41 239Z" fill="#006DB7"/>
<path opacity="0.2" d="M282.41 239C282.41 239 283.41 251.12 287.66 255C287.66 255 325.33 258 326.03 248.25C326.38 243.38 321.19 237.58 321.19 237.58L282.41 239Z" fill="white"/>
<path d="M318.7 182.87C316.43 174.2 309.7 170.94 299.56 171.43C299.28 176.49 296.47 185.78 288.26 186.31C281.26 186.76 282.8 178.85 283.67 174.96C275.5 178.6 273.48 183.04 273.48 183.04C271.07 196.93 272.24 206.59 274.12 212.04C275.31 215.45 278.12 222.11 279.25 225.55C280.794 230.289 281.899 235.159 282.55 240.1L322.55 239.15C321.59 227.79 321.45 193.37 318.7 182.87Z" fill="#263238"/>
<path d="M288.171 222.29C286.171 227.29 283.741 232.01 283.171 231.79C282.601 231.57 284.171 226.44 286.171 221.49C288.171 216.54 289.841 213.62 290.401 213.85C290.961 214.08 290.161 217.34 288.171 222.29Z" fill="#006DB7"/>
<path d="M286.891 219.72L288.891 220.51C288.991 220.24 289.091 219.98 289.181 219.72L287.251 218.95C287.111 219.2 287.001 219.45 286.891 219.72Z" fill="#006DB7"/>
<path opacity="0.7" d="M286.891 219.72L288.891 220.51C288.991 220.24 289.091 219.98 289.181 219.72L287.251 218.95C287.111 219.2 287.001 219.45 286.891 219.72Z" fill="white"/>
<path d="M325.411 244.33C325.411 244.33 282.521 242.46 264.411 252.33C246.301 262.2 248.691 271.51 247.361 290.16C246.031 308.81 240.971 341 240.971 341L252.111 343.16C252.111 343.16 267.341 306.93 271.111 276C271.111 276 335.801 286.15 325.411 244.33Z" fill="#006DB7"/>
<path opacity="0.5" d="M325.411 244.33C325.411 244.33 282.521 242.46 264.411 252.33C246.301 262.2 248.691 271.51 247.361 290.16C246.031 308.81 240.971 341 240.971 341L252.111 343.16C252.111 343.16 267.341 306.93 271.111 276C271.111 276 335.801 286.15 325.411 244.33Z" fill="white"/>
<path d="M250.24 341.69L245.76 354.13L239.4 351.26L242.86 339.76L250.24 341.69Z" fill="#FFB573"/>
<path d="M235.56 350C234.67 349.54 233.84 348.9 233.74 348.36C233.726 348.212 233.756 348.064 233.827 347.933C233.899 347.803 234.008 347.698 234.14 347.63C234.363 347.499 234.628 347.46 234.88 347.52C236.24 347.81 237.99 350.52 238.07 350.65C238.091 350.683 238.103 350.721 238.103 350.76C238.103 350.799 238.091 350.837 238.07 350.87C238.045 350.9 238.012 350.923 237.975 350.935C237.938 350.947 237.898 350.949 237.86 350.94C237.067 350.694 236.298 350.379 235.56 350ZM235.15 348C235.039 347.942 234.921 347.898 234.8 347.87C234.724 347.847 234.645 347.841 234.567 347.853C234.489 347.865 234.415 347.895 234.35 347.94C234.11 348.08 234.1 348.21 234.12 348.29C234.21 348.93 236 349.88 237.42 350.41C236.81 349.467 236.026 348.649 235.11 348H235.15Z" fill="#006DB7"/>
<path d="M237.821 350.93C237.798 350.938 237.773 350.938 237.751 350.93C237.101 350.1 236.191 347.66 236.751 346.93C236.871 346.74 237.141 346.59 237.631 346.78C237.808 346.85 237.97 346.955 238.106 347.089C238.242 347.223 238.349 347.383 238.421 347.56C238.941 348.78 238.121 350.81 238.091 350.9C238.075 350.931 238.053 350.958 238.025 350.979C237.997 351 237.965 351.014 237.931 351.02C237.887 351 237.849 350.969 237.821 350.93ZM237.591 347.13L237.491 347.07C237.181 346.94 237.091 347.07 237.061 347.07C236.761 347.53 237.251 349.33 237.861 350.31C238.201 349.458 238.271 348.523 238.061 347.63C237.972 347.406 237.805 347.221 237.591 347.11V347.13Z" fill="#006DB7"/>
<path d="M239.11 350.33L246.9 354.4C247.042 354.474 247.155 354.595 247.219 354.743C247.282 354.89 247.293 355.055 247.25 355.21L245.35 362.28C245.305 362.449 245.222 362.607 245.109 362.74C244.995 362.874 244.853 362.98 244.693 363.052C244.533 363.124 244.359 363.159 244.184 363.155C244.009 363.152 243.837 363.109 243.68 363.03C240.9 361.52 238.49 360.03 234.99 358.24C230.86 356.09 231.65 357.13 226.76 354.66C223.82 353.18 225.02 349.57 226.34 350.06C232.39 352.31 233.87 350.9 237.12 350.01C237.8 349.868 238.509 349.982 239.11 350.33Z" fill="#263238"/>
<path opacity="0.2" d="M249.54 343.65L247.85 348.31L241 345.95L242.15 342.13L249.54 343.65Z" fill="black"/>
<path d="M256.01 341.82L253.75 347.14L238.75 342.71L239.63 336.76L256.01 341.82Z" fill="#006DB7"/>
<path opacity="0.2" d="M282.43 168.58C282.98 169.922 283.441 171.298 283.81 172.7C283.853 172.931 283.883 173.165 283.9 173.4C290.6 170.86 291.18 162.88 291.18 162.88L282.43 168.58Z" fill="black"/>
<path d="M291.881 147.37C293.291 156.12 294.071 159.83 290.701 165.17C285.641 173.3 274.581 173.17 270.601 164.96C267.041 157.62 265.251 144.54 272.981 139.21C274.672 138.026 276.637 137.294 278.69 137.085C280.743 136.875 282.815 137.195 284.71 138.013C286.604 138.831 288.258 140.12 289.513 141.758C290.769 143.396 291.584 145.328 291.881 147.37Z" fill="#FFB573"/>
<path d="M270.7 155H269.02C269.02 155 270.16 156 270.7 155Z" fill="#263238"/>
<path d="M278.93 153.9C279.11 154.55 278.93 155.17 278.5 155.3C278.07 155.43 277.58 154.98 277.39 154.3C277.2 153.62 277.39 153.02 277.82 152.9C278.25 152.78 278.72 153.29 278.93 153.9Z" fill="#263238"/>
<path d="M271.611 156C271.791 156.66 271.611 157.28 271.181 157.4C270.751 157.52 270.251 157.08 270.071 156.4C269.891 155.72 270.071 155.13 270.511 155.01C270.951 154.89 271.421 155.34 271.611 156Z" fill="#263238"/>
<path d="M274.201 156.52C274.039 158.165 273.652 159.78 273.051 161.32C273.45 161.457 273.874 161.508 274.294 161.47C274.715 161.433 275.122 161.306 275.491 161.1L274.201 156.52Z" fill="#FF7C6E"/>
<path d="M278.801 163.57C278.499 163.713 278.185 163.827 277.861 163.91C277.838 163.919 277.812 163.924 277.787 163.922C277.762 163.921 277.737 163.915 277.714 163.904C277.692 163.892 277.672 163.876 277.656 163.857C277.64 163.837 277.628 163.814 277.621 163.79C277.614 163.739 277.625 163.687 277.653 163.643C277.68 163.599 277.722 163.566 277.771 163.55C278.583 163.34 279.333 162.941 279.962 162.387C280.591 161.833 281.081 161.138 281.391 160.36C281.398 160.334 281.41 160.31 281.427 160.29C281.443 160.269 281.464 160.252 281.487 160.239C281.511 160.227 281.537 160.22 281.563 160.218C281.59 160.217 281.616 160.221 281.641 160.23C281.692 160.246 281.733 160.281 281.758 160.328C281.782 160.375 281.787 160.43 281.771 160.48C281.507 161.167 281.108 161.794 280.598 162.324C280.088 162.855 279.477 163.278 278.801 163.57Z" fill="#263238"/>
<path d="M279.731 150.14C279.69 150.213 279.628 150.271 279.553 150.307C279.478 150.343 279.393 150.355 279.311 150.34C278.668 150.298 278.022 150.39 277.417 150.611C276.811 150.831 276.257 151.175 275.791 151.62C275.754 151.658 275.709 151.688 275.66 151.708C275.611 151.729 275.559 151.739 275.506 151.739C275.453 151.739 275.4 151.729 275.351 151.708C275.302 151.688 275.258 151.658 275.221 151.62C275.148 151.547 275.107 151.448 275.107 151.345C275.107 151.242 275.148 151.143 275.221 151.07C275.776 150.53 276.442 150.117 277.172 149.858C277.902 149.599 278.679 149.501 279.451 149.57C279.551 149.592 279.639 149.652 279.696 149.738C279.752 149.824 279.772 149.929 279.751 150.03C279.754 150.068 279.747 150.106 279.731 150.14Z" fill="#263238"/>
<path d="M268.03 152.66C267.958 152.66 267.887 152.642 267.824 152.607C267.761 152.572 267.708 152.521 267.67 152.46C267.618 152.371 267.602 152.264 267.626 152.164C267.651 152.063 267.713 151.976 267.8 151.92C268.329 151.561 268.937 151.339 269.573 151.273C270.208 151.206 270.849 151.298 271.44 151.54C271.486 151.56 271.528 151.588 271.563 151.624C271.598 151.66 271.626 151.702 271.644 151.748C271.663 151.795 271.672 151.845 271.671 151.895C271.671 151.945 271.66 151.994 271.64 152.04C271.621 152.087 271.592 152.13 271.555 152.166C271.519 152.202 271.476 152.23 271.428 152.249C271.38 152.267 271.329 152.276 271.278 152.275C271.227 152.273 271.177 152.261 271.13 152.24C270.663 152.071 270.163 152.014 269.67 152.073C269.177 152.132 268.704 152.305 268.29 152.58C268.213 152.631 268.123 152.659 268.03 152.66Z" fill="#263238"/>
<path d="M278.051 153H276.371C276.371 153 277.491 153.93 278.051 153Z" fill="#263238"/>
<path d="M270.181 139.08C270.181 139.08 266.081 132.34 262.641 138.08C263.854 137.475 265.22 137.247 266.564 137.425C267.908 137.603 269.167 138.18 270.181 139.08Z" fill="#263238"/>
<path d="M271.181 144.42C271.181 144.42 265.891 147.8 266.951 154.1C266.951 154.1 260.841 139.72 271.181 140.1C271.181 140.1 280.281 132.1 287.681 137.64C295.081 143.18 294.211 153.26 294.211 153.26L290.211 154.34C290.211 154.34 285.511 149.74 286.451 144.91C286.451 144.89 269.881 151 271.181 144.42Z" fill="#263238"/>
<path d="M295.661 153.73C295.538 154.575 295.25 155.387 294.812 156.119C294.375 156.852 293.797 157.491 293.111 158C291.271 159.33 289.551 157.86 289.441 155.71C289.321 153.78 290.131 150.76 292.291 150.29C293.05 150.14 293.837 150.297 294.48 150.726C295.123 151.155 295.569 151.822 295.721 152.58C295.779 152.963 295.759 153.355 295.661 153.73Z" fill="#FFB573"/>
<path d="M291.621 150.47C291.621 150.47 289.391 137 275.111 139.69C275.111 139.69 267.761 140.69 267.621 149.54C267.621 149.54 264.821 140.93 273.821 137.66C282.441 134.53 292.241 139.67 291.621 150.47Z" fill="#006DB7"/>
<path d="M236.041 229.9C240.392 231.098 244.889 231.68 249.401 231.63H280.701C287.591 231.63 290.701 229.9 290.701 229.9C290.701 229.9 263.781 231.78 261.271 228.9C252.939 230.316 244.459 230.652 236.041 229.9Z" fill="#263238"/>
<path opacity="0.9" d="M236.041 229.9C240.392 231.098 244.889 231.68 249.401 231.63H280.701C287.591 231.63 290.701 229.9 290.701 229.9C290.701 229.9 263.781 231.78 261.271 228.9C252.939 230.316 244.459 230.652 236.041 229.9Z" fill="white"/>
<path d="M310.46 195.63C310.46 195.63 316.6 210.17 315.59 214.29C315.59 214.29 310.09 222.04 298.22 227.85C298.22 227.85 290.11 224.34 286.47 226.76C285.668 227.27 284.976 227.936 284.435 228.717C283.894 229.498 283.515 230.38 283.32 231.31C283.283 231.494 283.287 231.684 283.332 231.866C283.377 232.048 283.462 232.218 283.581 232.363C283.699 232.508 283.849 232.625 284.018 232.706C284.187 232.787 284.372 232.829 284.56 232.83H297.86C300.231 232.856 302.591 232.519 304.86 231.83C304.86 231.83 322.27 224.69 324.56 216.45C325.81 211.97 325.93 202.88 320.36 191.13L313.53 192.71L310.46 195.63Z" fill="#FFB573"/>
<path d="M309.37 171.69C306.84 171.44 302.53 171.25 303.15 179.76C303.663 185.339 304.998 190.811 307.11 196C307.11 196 306.35 199.84 309.11 199.83C313.501 196.078 318.442 193.023 323.76 190.77C323.76 190.77 324.76 187.77 322.25 187.51C322.31 187.51 318.4 172.61 309.37 171.69Z" fill="#006DB7"/>
<path d="M296.111 282.19L296.751 364.39H300.411L301.051 282.19H296.111Z" fill="#006DB7"/>
<path opacity="0.2" d="M296.111 282.19L296.751 364.39H300.411L301.051 282.19H296.111Z" fill="white"/>
<path d="M315.602 275.7L319.962 364.39H323.612L320.652 275.7H315.602Z" fill="#006DB7"/>
<path opacity="0.2" d="M315.602 275.7L319.962 364.39H323.612L320.652 275.7H315.602Z" fill="white"/>
<path d="M276.441 282.19L273.701 364.39H277.351L281.391 282.19H276.441Z" fill="#006DB7"/>
<path opacity="0.2" d="M276.441 282.19L273.701 364.39H277.351L281.391 282.19H276.441Z" fill="white"/>
<path d="M277.491 271H319.681C321.373 271 322.996 271.672 324.193 272.869C325.389 274.065 326.061 275.688 326.061 277.38V285.49C326.061 286.355 325.718 287.184 325.107 287.795C324.495 288.407 323.666 288.75 322.801 288.75H274.371C273.507 288.75 272.678 288.407 272.066 287.795C271.455 287.184 271.111 286.355 271.111 285.49V277.38C271.111 275.688 271.783 274.065 272.98 272.869C274.176 271.672 275.799 271 277.491 271Z" fill="#006DB7"/>
<path d="M277.111 330.63H295.901C296.336 330.63 296.754 330.803 297.061 331.11C297.369 331.418 297.541 331.835 297.541 332.27V333C297.541 333.435 297.369 333.852 297.061 334.16C296.754 334.467 296.336 334.64 295.901 334.64H277.111C276.925 334.64 276.74 334.603 276.568 334.532C276.396 334.461 276.239 334.356 276.107 334.224C275.975 334.092 275.871 333.936 275.799 333.763C275.728 333.591 275.691 333.406 275.691 333.22V332.05C275.691 331.864 275.728 331.679 275.799 331.507C275.871 331.334 275.975 331.178 276.107 331.046C276.239 330.914 276.396 330.809 276.568 330.738C276.74 330.667 276.925 330.63 277.111 330.63Z" fill="#006DB7"/>
<path opacity="0.4" d="M277.111 330.63H295.901C296.336 330.63 296.754 330.803 297.061 331.11C297.369 331.418 297.541 331.835 297.541 332.27V333C297.541 333.435 297.369 333.852 297.061 334.16C296.754 334.467 296.336 334.64 295.901 334.64H277.111C276.925 334.64 276.74 334.603 276.568 334.532C276.396 334.461 276.239 334.356 276.107 334.224C275.975 334.092 275.871 333.936 275.799 333.763C275.728 333.591 275.691 333.406 275.691 333.22V332.05C275.691 331.864 275.728 331.679 275.799 331.507C275.871 331.334 275.975 331.178 276.107 331.046C276.239 330.914 276.396 330.809 276.568 330.738C276.74 330.667 276.925 330.63 277.111 330.63Z" fill="white"/>
<path d="M300.992 330.63H319.782C320.217 330.63 320.634 330.803 320.942 331.11C321.249 331.418 321.422 331.835 321.422 332.27V333C321.422 333.435 321.249 333.852 320.942 334.16C320.634 334.467 320.217 334.64 319.782 334.64H300.992C300.616 334.64 300.254 334.49 299.988 334.224C299.722 333.958 299.572 333.597 299.572 333.22V332.05C299.572 331.673 299.722 331.312 299.988 331.046C300.254 330.78 300.616 330.63 300.992 330.63Z" fill="#006DB7"/>
<path opacity="0.4" d="M300.992 330.63H319.782C320.217 330.63 320.634 330.803 320.942 331.11C321.249 331.418 321.422 331.835 321.422 332.27V333C321.422 333.435 321.249 333.852 320.942 334.16C320.634 334.467 320.217 334.64 319.782 334.64H300.992C300.616 334.64 300.254 334.49 299.988 334.224C299.722 333.958 299.572 333.597 299.572 333.22V332.05C299.572 331.673 299.722 331.312 299.988 331.046C300.254 330.78 300.616 330.63 300.992 330.63Z" fill="white"/>
<path d="M188.302 230.09V219.79C188.567 219.79 188.821 219.685 189.009 219.497C189.196 219.31 189.302 219.055 189.302 218.79C189.302 218.525 189.196 218.27 189.009 218.083C188.821 217.895 188.567 217.79 188.302 217.79C184.372 217.79 180.442 217.79 176.512 217.73V232.03H188.302C188.518 231.976 188.71 231.851 188.847 231.675C188.984 231.499 189.059 231.283 189.059 231.06C189.059 230.837 188.984 230.621 188.847 230.445C188.71 230.269 188.518 230.144 188.302 230.09Z" fill="#006DB7"/>
<path opacity="0.3" d="M188.302 230.09V219.79C188.567 219.79 188.821 219.685 189.009 219.497C189.196 219.31 189.302 219.055 189.302 218.79C189.302 218.525 189.196 218.27 189.009 218.083C188.821 217.895 188.567 217.79 188.302 217.79C184.372 217.79 180.442 217.79 176.512 217.73V232.03H188.302C188.518 231.976 188.71 231.851 188.847 231.675C188.984 231.499 189.059 231.283 189.059 231.06C189.059 230.837 188.984 230.621 188.847 230.445C188.71 230.269 188.518 230.144 188.302 230.09Z" fill="white"/>
<path d="M188.303 219.79H179.143V230.08H188.303V219.79Z" fill="#006DB7"/>
<path opacity="0.8" d="M188.303 219.79H179.143V230.08H188.303V219.79Z" fill="white"/>
<path d="M181.112 231.08H149.322C147.142 231.08 145.322 228.33 145.322 224.94C145.322 221.55 147.092 218.8 149.322 218.8H181.112V231.08Z" fill="white"/>
<path d="M181.112 217.82C170.722 217.82 160.312 217.63 149.922 217.82C142.812 217.94 142.422 231.59 149.402 232.06C154.272 232.4 159.282 232.06 164.152 232.06H181.152C181.418 232.06 181.672 231.955 181.859 231.767C182.047 231.579 182.152 231.325 182.152 231.06C182.152 230.795 182.047 230.54 181.859 230.353C181.672 230.165 181.418 230.06 181.152 230.06H151.522C149.242 230.06 147.612 230.06 146.722 227.35C145.962 225.02 146.202 220.27 149.322 219.76C149.678 219.73 150.036 219.73 150.392 219.76H181.112C181.378 219.76 181.632 219.655 181.819 219.467C182.007 219.279 182.112 219.025 182.112 218.76C182.112 218.495 182.007 218.24 181.819 218.053C181.632 217.865 181.378 217.76 181.112 217.76V217.82Z" fill="#006DB7"/>
<g opacity="0.3">
<path d="M181.112 217.82C170.722 217.82 160.312 217.63 149.922 217.82C142.812 217.94 142.422 231.59 149.402 232.06C154.272 232.4 159.282 232.06 164.152 232.06H181.152C181.418 232.06 181.672 231.955 181.859 231.767C182.047 231.579 182.152 231.325 182.152 231.06C182.152 230.795 182.047 230.54 181.859 230.353C181.672 230.165 181.418 230.06 181.152 230.06H151.522C149.242 230.06 147.612 230.06 146.722 227.35C145.962 225.02 146.202 220.27 149.322 219.76C149.678 219.73 150.036 219.73 150.392 219.76H181.112C181.378 219.76 181.632 219.655 181.819 219.467C182.007 219.279 182.112 219.025 182.112 218.76C182.112 218.495 182.007 218.24 181.819 218.053C181.632 217.865 181.378 217.76 181.112 217.76V217.82Z" fill="black"/>
</g>
<path d="M188.302 230.09V219.79C188.567 219.79 188.821 219.685 189.009 219.497C189.196 219.31 189.302 219.055 189.302 218.79C189.302 218.525 189.196 218.27 189.009 218.083C188.821 217.895 188.567 217.79 188.302 217.79C184.372 217.79 180.442 217.79 176.512 217.73V232.03H188.302C188.518 231.976 188.71 231.851 188.847 231.675C188.984 231.499 189.059 231.283 189.059 231.06C189.059 230.837 188.984 230.621 188.847 230.445C188.71 230.269 188.518 230.144 188.302 230.09Z" fill="#006DB7"/>
<path opacity="0.3" d="M188.302 230.09V219.79C188.567 219.79 188.821 219.685 189.009 219.497C189.196 219.31 189.302 219.055 189.302 218.79C189.302 218.525 189.196 218.27 189.009 218.083C188.821 217.895 188.567 217.79 188.302 217.79C184.372 217.79 180.442 217.79 176.512 217.73V232.03H188.302C188.518 231.976 188.71 231.851 188.847 231.675C188.984 231.499 189.059 231.283 189.059 231.06C189.059 230.837 188.984 230.621 188.847 230.445C188.71 230.269 188.518 230.144 188.302 230.09Z" fill="white"/>
<path d="M188.303 219.79H179.143V230.08H188.303V219.79Z" fill="#006DB7"/>
<path opacity="0.8" d="M188.303 219.79H179.143V230.08H188.303V219.79Z" fill="white"/>
<path d="M181.112 231.08H149.322C147.142 231.08 145.322 228.33 145.322 224.94C145.322 221.55 147.092 218.8 149.322 218.8H181.112V231.08Z" fill="#006DB7"/>
<path opacity="0.9" d="M181.112 231.08H149.322C147.142 231.08 145.322 228.33 145.322 224.94C145.322 221.55 147.092 218.8 149.322 218.8H181.112V231.08Z" fill="white"/>
<path d="M181.112 217.82C170.722 217.82 160.312 217.63 149.922 217.82C142.812 217.94 142.422 231.59 149.402 232.06C154.272 232.4 159.282 232.06 164.152 232.06H181.152C181.418 232.06 181.672 231.955 181.859 231.767C182.047 231.579 182.152 231.325 182.152 231.06C182.152 230.795 182.047 230.54 181.859 230.353C181.672 230.165 181.418 230.06 181.152 230.06H151.522C149.242 230.06 147.612 230.06 146.722 227.35C145.962 225.02 146.202 220.27 149.322 219.76C149.678 219.73 150.036 219.73 150.392 219.76H181.112C181.378 219.76 181.632 219.655 181.819 219.467C182.007 219.279 182.112 219.025 182.112 218.76C182.112 218.495 182.007 218.24 181.819 218.053C181.632 217.865 181.378 217.76 181.112 217.76V217.82Z" fill="#006DB7"/>
<g opacity="0.3">
<path d="M181.112 217.82C170.722 217.82 160.312 217.63 149.922 217.82C142.812 217.94 142.422 231.59 149.402 232.06C154.272 232.4 159.282 232.06 164.152 232.06H181.152C181.418 232.06 181.672 231.955 181.859 231.767C182.047 231.579 182.152 231.325 182.152 231.06C182.152 230.795 182.047 230.54 181.859 230.353C181.672 230.165 181.418 230.06 181.152 230.06H151.522C149.242 230.06 147.612 230.06 146.722 227.35C145.962 225.02 146.202 220.27 149.322 219.76C149.678 219.73 150.036 219.73 150.392 219.76H181.112C181.378 219.76 181.632 219.655 181.819 219.467C182.007 219.279 182.112 219.025 182.112 218.76C182.112 218.495 182.007 218.24 181.819 218.053C181.632 217.865 181.378 217.76 181.112 217.76V217.82Z" fill="black"/>
</g>
<path d="M154.162 216.46V208.24C153.969 208.218 153.791 208.126 153.662 207.981C153.532 207.836 153.461 207.649 153.461 207.455C153.461 207.261 153.532 207.073 153.662 206.929C153.791 206.784 153.969 206.692 154.162 206.67C157.302 206.67 160.432 206.67 163.572 206.67V218H154.162C153.988 217.96 153.832 217.862 153.721 217.722C153.61 217.582 153.549 217.409 153.549 217.23C153.549 217.051 153.61 216.878 153.721 216.738C153.832 216.598 153.988 216.5 154.162 216.46Z" fill="#006DB7"/>
<path opacity="0.3" d="M154.162 216.46V208.24C153.969 208.218 153.791 208.126 153.662 207.981C153.532 207.836 153.461 207.649 153.461 207.455C153.461 207.261 153.532 207.073 153.662 206.929C153.791 206.784 153.969 206.692 154.162 206.67C157.302 206.67 160.432 206.67 163.572 206.67V218H154.162C153.988 217.96 153.832 217.862 153.721 217.722C153.61 217.582 153.549 217.409 153.549 217.23C153.549 217.051 153.61 216.878 153.721 216.738C153.832 216.598 153.988 216.5 154.162 216.46Z" fill="white"/>
<path d="M161.462 208.24H154.162V216.45H161.462V208.24Z" fill="#006DB7"/>
<path opacity="0.8" d="M161.462 208.24H154.162V216.45H161.462V208.24Z" fill="white"/>
<path d="M159.941 217.25H185.261C187.001 217.25 188.411 215.06 188.411 212.35C188.411 209.64 187.001 207.45 185.261 207.45H159.941V217.25Z" fill="#006DB7"/>
<path opacity="0.9" d="M159.941 217.25H185.261C187.001 217.25 188.411 215.06 188.411 212.35C188.411 209.64 187.001 207.45 185.261 207.45H159.941V217.25Z" fill="white"/>
<path d="M159.942 206.67C168.232 206.67 176.532 206.52 184.822 206.67C190.502 206.77 190.822 217.67 185.232 218.04C181.352 218.3 177.362 218.04 173.472 218.04H159.942C159.733 218.04 159.532 217.957 159.384 217.809C159.236 217.66 159.152 217.459 159.152 217.25C159.152 217.04 159.236 216.839 159.384 216.691C159.532 216.543 159.733 216.46 159.942 216.46H183.512C185.332 216.46 186.632 216.46 187.332 214.3C187.942 212.44 187.752 208.65 185.262 208.24C184.979 208.22 184.695 208.22 184.412 208.24H159.942C159.749 208.218 159.571 208.126 159.442 207.981C159.313 207.836 159.241 207.649 159.241 207.455C159.241 207.261 159.313 207.073 159.442 206.929C159.571 206.784 159.749 206.692 159.942 206.67Z" fill="#006DB7"/>
<path d="M282.352 231.8H368.222V236.15C368.222 238.025 367.477 239.823 366.151 241.149C364.825 242.475 363.027 243.22 361.152 243.22H282.352V231.8Z" fill="#006DB7"/>
<path opacity="0.5" d="M282.352 231.8H368.222V236.15C368.222 238.025 367.477 239.823 366.151 241.149C364.825 242.475 363.027 243.22 361.152 243.22H282.352V231.8Z" fill="white"/>
<path d="M210.571 364.39H206.811L205.861 243.22H211.521L210.571 364.39Z" fill="#006DB7"/>
<path opacity="0.7" d="M210.571 364.39H206.811L205.861 243.22H211.521L210.571 364.39Z" fill="white"/>
<path d="M359.151 364.39H355.401L354.441 243.22H360.111L359.151 364.39Z" fill="#006DB7"/>
<path opacity="0.7" d="M359.151 364.39H355.401L354.441 243.22H360.111L359.151 364.39Z" fill="white"/>
<path d="M141.492 347.9H207.022C207.465 347.9 207.89 348.076 208.203 348.389C208.516 348.702 208.692 349.127 208.692 349.57V350.36C208.692 350.803 208.516 351.228 208.203 351.541C207.89 351.854 207.465 352.03 207.022 352.03H141.492V347.9Z" fill="#006DB7"/>
<path opacity="0.4" d="M141.492 347.9H207.022C207.465 347.9 207.89 348.076 208.203 348.389C208.516 348.702 208.692 349.127 208.692 349.57V350.36C208.692 350.803 208.516 351.228 208.203 351.541C207.89 351.854 207.465 352.03 207.022 352.03H141.492V347.9Z" fill="white"/>
<path d="M176.112 348.51H291.112V351.4H176.112C175.933 351.4 175.757 351.365 175.592 351.296C175.427 351.228 175.277 351.128 175.15 351.002C175.024 350.875 174.924 350.725 174.855 350.56C174.787 350.395 174.752 350.219 174.752 350.04V349.87C174.752 349.691 174.787 349.515 174.855 349.35C174.924 349.185 175.024 349.035 175.15 348.908C175.277 348.782 175.427 348.682 175.592 348.614C175.757 348.545 175.933 348.51 176.112 348.51Z" fill="#006DB7"/>
<path opacity="0.1" d="M176.112 348.51H291.112V351.4H176.112C175.933 351.4 175.757 351.365 175.592 351.296C175.427 351.228 175.277 351.128 175.15 351.002C175.024 350.875 174.924 350.725 174.855 350.56C174.787 350.395 174.752 350.219 174.752 350.04V349.87C174.752 349.691 174.787 349.515 174.855 349.35C174.924 349.185 175.024 349.035 175.15 348.908C175.277 348.782 175.427 348.682 175.592 348.614C175.757 348.545 175.933 348.51 176.112 348.51Z" fill="white"/>
<path d="M290.111 347.9H355.671C356.106 347.9 356.523 348.073 356.831 348.38C357.139 348.688 357.311 349.105 357.311 349.54V350.39C357.311 350.825 357.139 351.242 356.831 351.55C356.523 351.857 356.106 352.03 355.671 352.03H290.111V347.9Z" fill="#006DB7"/>
<path opacity="0.4" d="M290.111 347.9H355.671C356.106 347.9 356.523 348.073 356.831 348.38C357.139 348.688 357.311 349.105 357.311 349.54V350.39C357.311 350.825 357.139 351.242 356.831 351.55C356.523 351.857 356.106 352.03 355.671 352.03H290.111V347.9Z" fill="white"/>
<path d="M131.582 231.8H291.462V243.22H138.632C136.762 243.22 134.969 242.477 133.647 241.155C132.325 239.833 131.582 238.04 131.582 236.17V231.8Z" fill="#006DB7"/>
<path d="M143.372 364.39H139.612L138.662 243.22H144.322L143.372 364.39Z" fill="#006DB7"/>
<path opacity="0.7" d="M143.372 364.39H139.612L138.662 243.22H144.322L143.372 364.39Z" fill="white"/>
<path d="M291.962 364.39H288.202L287.252 243.22H292.912L291.962 364.39Z" fill="#006DB7"/>
<path opacity="0.7" d="M291.962 364.39H288.202L287.252 243.22H292.912L291.962 364.39Z" fill="white"/>
</g>
<defs>
<clipPath id="clip0_12_10723">
<rect width="501" height="369" fill="white"/>
</clipPath>
</defs>
</svg>
