<svg width="225" height="171" viewBox="0 0 225 171" fill="none" xmlns="http://www.w3.org/2000/svg">
<g clip-path="url(#clip0_12_11968)">
<path d="M22 28C24.5 11.5 18.5 7 0 0H12L31.5 7.5L102.5 49.5L160 169C134 168 127 157.5 114 151C100 144 91.5 146 78 146C73 146 63.5 149.258 57 148C41.5 145 42.3 123 50 116C55.5 111 62.1818 106 66 99C75 82.5 68 68.4737 57 65C47.5 62 39 60.1481 31 56C17.5 49 20.5 37.9 22 28Z" fill="#2487CE" fill-opacity="0.5"/>
<path d="M28 28C31 13.5 25 4 1 0H225V161C212 167.5 181.5 173.526 160 169C141 165 134 159.519 126 153C112.5 142 100 141.846 85 143C78.5 143.5 70.9375 146.5 64 145C45.5 141 50.5 116 58 111C61 109 69.2069 103 72 97C85.5 68 63 62.4054 43 57C24.5 52 26.0345 37.5 28 28Z" fill="url(#paint0_linear_12_11968)"/>
</g>
<defs>
<linearGradient id="paint0_linear_12_11968" x1="-5.5" y1="4" x2="225" y2="70" gradientUnits="userSpaceOnUse">
<stop stop-color="#D9D9D9"/>
<stop offset="0.0001" stop-color="white"/>
<stop offset="1" stop-color="#FFB03B"/>
</linearGradient>
<clipPath id="clip0_12_11968">
<rect width="225" height="170.575" fill="white"/>
</clipPath>
</defs>
</svg>
